{
.appVersion = "895";
customParameters = (
{
name = openTypeOS2FamilyClass;
value = (
0,
0
);
},
{
name = postscriptBlueFuzz;
value = 1;
},
{
name = postscriptBlueScale;
value = 0.039625;
},
{
name = postscriptBlueShift;
value = 7;
}
);
date = "2016-08-02 09:47:22 +0000";
familyName = Oswald;
fontMaster = (
{
alignmentZones = (
"{1658, 19}",
"{1184, 19}",
"{0, -22}",
"{-334, -56}"
);
ascender = 1658;
capHeight = 1658;
customParameters = (
{
name = typoAscender;
value = 2885;
},
{
name = typoDescender;
value = -101;
},
{
name = typoLineGap;
value = 0;
},
{
name = hheaAscender;
value = 0;
},
{
name = hheaDescender;
value = 0;
},
{
name = hheaLineGap;
value = 0;
},
{
name = winAscent;
value = 1658;
},
{
name = winDescent;
value = 390;
},
{
name = underlineThickness;
value = 21;
},
{
name = underlinePosition;
value = -67;
}
);
descender = -390;
horizontalStems = (
50,
56
);
id = "6D1B020D-7C4E-4885-9208-B35BA480FE8F";
verticalStems = (
24,
42,
50,
54,
61,
77,
100,
246,
662
);
weight = SemiLight;
weightValue = 200;
xHeight = 1184;
},
{
alignmentZones = (
"{1658, 17}",
"{1184, 17}",
"{0, -18}",
"{-357, -33}"
);
ascender = 1658;
capHeight = 1658;
customParameters = (
{
name = typoAscender;
value = 1890;
},
{
name = typoDescender;
value = -335;
},
{
name = typoLineGap;
value = 0;
},
{
name = hheaAscender;
value = 0;
},
{
name = hheaDescender;
value = 0;
},
{
name = hheaLineGap;
value = 0;
},
{
name = winAscent;
value = 1658;
},
{
name = winDescent;
value = 390;
},
{
name = underlineThickness;
value = 4;
},
{
name = underlinePosition;
value = -13;
}
);
descender = -390;
horizontalStems = (
50,
56
);
id = "43161617-4660-4075-B14A-1D8E25AEE542";
verticalStems = (
24,
42,
50,
54,
61,
77,
100,
246,
662
);
weightValue = 400;
xHeight = 1184;
},
{
alignmentZones = (
"{3996, 54}",
"{2784, 62}",
"{0, -62}",
"{-893, -20}"
);
ascender = 1658;
capHeight = 1658;
customParameters = (
{
name = typoAscender;
value = 1640;
},
{
name = typoDescender;
value = -408;
},
{
name = typoLineGap;

glyphs = (
{
glyphname = A;
lastChange = "2016-08-02 09:50:01 +0000";
layers = (
{
layerId = "6D1B020D-7C4E-4885-9208-B35BA480FE8F";
paths = (
{
closed = 1;
nodes = (
"133 0 LINE",
"270 458 LINE",
"701 458 LINE",
"738 0 LINE",
"850 0 LINE",
"674 1658 LINE",
"546 1658 LINE",
"23 0 LINE"
);
},
{
closed = 1;
nodes = (
"596 1523 LINE",
"694 541 LINE",
"296 541 LINE"
);
}
);
width = 959;
},
{
layerId = "BF03A18F-065F-4249-8E16-486B9CB494A0";
paths = (
{
closed = 1;
nodes = (
"373 0 LINE",
"458 335 LINE",
"678 335 LINE",
"696 0 LINE",
"1062 0 LINE",
"935 1658 LINE",
"473 1658 LINE",
"-4 0 LINE"
);
},
{
closed = 1;
nodes = (
"657 1189 LINE",
"668 566 LINE",
"514 566 LINE"
);
}
);
width = 1158;
},
{
layerId = "43161617-4660-4075-B14A-1D8E25AEE542";
paths = (
{
closed = 1;
nodes = (
"204 0 LINE",
"327 421 LINE",
"670 421 LINE",
"702 0 LINE",
"916 0 LINE",
"736 1658 LINE",
"519 1658 LINE",
"-9 0 LINE"
);
},
{
closed = 1;
nodes = (
"595 1344 LINE",
"658 581 LINE",
"373 581 LINE"
);
}
);
width = 1004;
}
);
unicode = 0041;
},
{
glyphname = AE;
lastChange = "2016-08-02 09:50:01 +0000";
layers = (
{
layerId = "6D1B020D-7C4E-4885-9208-B35BA480FE8F";
paths = (
{
closed = 1;
nodes = (
"35 0 LINE",
"264 458 LINE",
"651 458 LINE",
"603 0 LINE",
"1177 0 LINE",
"1188 91 LINE",
"719 91 LINE",
"795 822 LINE",
"1133 822 LINE",
"1142 904 LINE",
"804 904 LINE",
"873 1569 LINE",
"1342 1569 LINE",
"1351 1658 LINE",
"744 1658 LINE",
"-74 0 LINE"
);
},
{
closed = 1;
nodes = (
"758 1503 LINE",
"659 548 LINE",
"305 548 LINE"
);
}
);
width = 1289;
},
{
associatedMasterId = "6D1B020D-7C4E-4885-9208-B35BA480FE8F";
layerId = "B45D9027-F677-408B-8511-9BA9D5CA972C";
name = b;
width = 1284;
},
{
layerId = "BF03A18F-065F-4249-8E16-486B9CB494A0";
paths = (
{
closed = 1;
nodes = (
"344 0 LINE",
"511 328 LINE",
"768 328 LINE",
"733 0 LINE",
"1402 0 LINE",
"1430 267 LINE",
"1099 267 LINE",
"1146 717 LINE",
"1380 717 LINE",
"1409 995 LINE",
"1175 995 LINE",
"1214 1359 LINE",
"1545 1359 LINE",
"1573 1629 LINE",
"840 1629 LINE",
"-59 0 LINE"
);
},
{
closed = 1;
nodes = (
"845 1056 LINE",
"794 574 LINE",
"615 574 LINE"
);
}
);
width = 1485;
},
{
layerId = "43161617-4660-4075-B14A-1D8E25AEE542";
paths = (
{
closed = 1;
nodes = (
"63 0 LINE",
"285 422 LINE",
"598 422 LINE",
"553 0 LINE",
"1190 0 LINE",
"1207 161 LINE",
"783 161 LINE",
"848 779 LINE",
"1152 779 LINE",
"1169 939 LINE",
"865 939 LINE",
"923 1497 LINE",
"1348 1497 LINE",
"1364 1658 LINE",
"720 1658 LINE",
"-149 0 LINE"
);
},
{
closed = 1;
nodes = (
"685 1257 LINE",
"614 584 LINE",
"362 584 LINE"
);
}
);
width = 1299;
}
);
unicode = 00C6;
userData = {
com.typemytype.robofont.layerData = {
b = {
anchors = (
);
components = (
);
contours = (
);
lib = {
};
name = AE;
unicodes = (
);
width = 1284;
};
};
};
},
{
glyphname = B;
lastChange = "2016-08-02 09:50:01 +0000";
layers = (
{
layerId = "6D1B020D-7C4E-4885-9208-B35BA480FE8F";
paths = (
{
closed = 1;
nodes = (
"503 0 LINE SMOOTH",
"822 0 OFFCURVE",
"897 233 OFFCURVE",
"923 483 CURVE SMOOTH",
"939 630 OFFCURVE",
"923 837 OFFCURVE",
"736 894 CURVE",
"900 934 OFFCURVE",
"953 1112 OFFCURVE",
"967 1245 CURVE SMOOTH",
"991 1475 OFFCURVE",
"931 1658 OFFCURVE",
"626 1658 CURVE SMOOTH",
"284 1658 LINE",
"110 0 LINE"
);
},
{
closed = 1;
nodes = (
"311 843 LINE",
"592 843 LINE SMOOTH",
"791 843 OFFCURVE",
"834 679 OFFCURVE",
"814 482 CURVE SMOOTH",
"786 213 OFFCURVE",
"717 88 OFFCURVE",
"498 88 CURVE SMOOTH",
"232 88 LINE"
);
},
{
closed = 1;
nodes = (
"387 1569 LINE",
"592 1569 LINE SMOOTH",
"851 1569 OFFCURVE",
"883 1430 OFFCURVE",
"864 1245 CURVE SMOOTH",
"845 1074 OFFCURVE",
"783 931 OFFCURVE",
"599 931 CURVE SMOOTH",
"320 931 LINE"
);
}
);
width = 1000;
},
{
layerId = "BF03A18F-065F-4249-8E16-486B9CB494A0";
paths = (
{
closed = 1;
nodes = (
"598 0 LINE SMOOTH",
"921 0 OFFCURVE",
"1137 140 OFFCURVE",
"1169 497 CURVE SMOOTH",
"1191 732 OFFCURVE",
"1101 872 OFFCURVE",
"915 890 CURVE",
"1064 919 OFFCURVE",
"1166 1020 OFFCURVE",
"1192 1219 CURVE SMOOTH",
"1242 1609 OFFCURVE",
"970 1658 OFFCURVE",
"690 1658 CURVE SMOOTH",
"244 1658 LINE",
"70 0 LINE"
);
},
{
closed = 1;
nodes = (
"548 745 LINE",
"608 745 LINE SMOOTH",
"760 745 OFFCURVE",
"804 684 OFFCURVE",
"785 503 CURVE SMOOTH",
"769 357 OFFCURVE",
"711 278 OFFCURVE",
"558 278 CURVE SMOOTH",
"499 278 LINE"
);
},
{
closed = 1;
nodes = (
"616 1395 LINE",
"682 1395 LINE SMOOTH",
"796 1395 OFFCURVE",
"854 1316 OFFCURVE",
"843 1209 CURVE SMOOTH",
"829 1083 OFFCURVE",
"790 1001 OFFCURVE",
"632 1001 CURVE SMOOTH",
"575 1001 LINE"
);
}
);
width = 1238;
},
{
layerId = "43161617-4660-4075-B14A-1D8E25AEE542";
paths = (
{
closed = 1;
nodes = (
"521 0 LINE SMOOTH",
"819 0 OFFCURVE",
"963 190 OFFCURVE",
"994 475 CURVE SMOOTH",
"1018 703 OFFCURVE",
"951 844 OFFCURVE",
"759 893 CURVE",
"922 916 OFFCURVE",
"1009 1044 OFFCURVE",
"1030 1243 CURVE SMOOTH",
"1059 1524 OFFCURVE",
"933 1658 OFFCURVE",
"633 1658 CURVE SMOOTH",
"256 1658 LINE",
"82 0 LINE"
);
},
{
closed = 1;
nodes = (
"390 793 LINE",
"535 793 LINE SMOOTH",
"738 793 OFFCURVE",
"801 680 OFFCURVE",
"780 475 CURVE SMOOTH",
"757 256 OFFCURVE",
"693 161 OFFCURVE",
"487 161 CURVE SMOOTH",
"324 161 LINE"
);
},
{
closed = 1;
nodes = (
"463 1492 LINE",
"526 1492 LINE SMOOTH",
"764 1492 OFFCURVE",
"858 1468 OFFCURVE",
"835 1243 CURVE SMOOTH",
"814 1049 OFFCURVE",
"747 963 OFFCURVE",
"553 963 CURVE SMOOTH",
"408 963 LINE"
);
}
);
width = 1068;
}
);
unicode = 0042;
userData = {
com.fontlab.hintData = {
hhints = (
{
position = 0;
width = 56;
},
{
position = 864;
width = 53;
},
{
position = 1602;
width = 56;
}
);
};
};
},
{
glyphname = C;
lastChange = "2016-08-02 09:50:01 +0000";
layers = (
{
layerId = "6D1B020D-7C4E-4885-9208-B35BA480FE8F";
paths = (
{
closed = 1;
nodes = (
"776 -22 OFFCURVE",
"878 181 OFFCURVE",
"907 464 CURVE",
"915 546 LINE",
"809 546 LINE",
"799 446 LINE SMOOTH",
"775 219 OFFCURVE",
"708 70 OFFCURVE",
"488 70 CURVE SMOOTH",
"257 70 OFFCURVE",
"211 215 OFFCURVE",
"237 460 CURVE SMOOTH",
"314 1194 LINE SMOOTH",
"339 1427 OFFCURVE",
"406 1586 OFFCURVE",
"648 1586 CURVE SMOOTH",
"865 1586 OFFCURVE",
"904 1446 OFFCURVE",
"880 1211 CURVE SMOOTH",
"871 1126 LINE",
"977 1126 LINE",
"986 1210 LINE SMOOTH",
"1015 1492 OFFCURVE",
"944 1677 OFFCURVE",
"656 1677 CURVE SMOOTH",
"337 1677 OFFCURVE",
"230 1467 OFFCURVE",
"200 1181 CURVE SMOOTH",
"126 478 LINE SMOOTH",
"97 200 OFFCURVE",
"149 -22 OFFCURVE",
"477 -22 CURVE SMOOTH"
);
}
);
width = 1001;
},
{
layerId = "BF03A18F-065F-4249-8E16-486B9CB494A0";
paths = (
{
closed = 1;
nodes = (
"940 -25 OFFCURVE",
"1073 187 OFFCURVE",
"1102 465 CURVE",
"1117 611 LINE",
"724 611 LINE",
"705 425 LINE SMOOTH",
"697 349 OFFCURVE",
"684 252 OFFCURVE",
"587 252 CURVE SMOOTH",
"492 252 OFFCURVE",
"492 344 OFFCURVE",
"501 425 CURVE SMOOTH",
"585 1233 LINE SMOOTH",
"594 1310 OFFCURVE",
"611 1406 OFFCURVE",
"708 1406 CURVE SMOOTH",
"806 1406 OFFCURVE",
"798 1311 OFFCURVE",
"790 1236 CURVE SMOOTH",
"771 1056 LINE",
"1164 1056 LINE",
"1180 1204 LINE SMOOTH",
"1209 1481 OFFCURVE",
"1119 1683 OFFCURVE",
"737 1683 CURVE SMOOTH",
"353 1683 OFFCURVE",
"205 1474 OFFCURVE",
"169 1127 CURVE SMOOTH",
"106 530 LINE SMOOTH",
"69 186 OFFCURVE",
"173 -25 OFFCURVE",
"558 -25 CURVE SMOOTH"
);
}
);
width = 1176;
},
{
layerId = "43161617-4660-4075-B14A-1D8E25AEE542";
paths = (
{
closed = 1;
nodes = (
"817 -18 OFFCURVE",
"930 188 OFFCURVE",
"961 491 CURVE",
"974 612 LINE",
"762 612 LINE",
"750 491 LINE SMOOTH",
"728 292 OFFCURVE",
"702 158 OFFCURVE",
"512 158 CURVE SMOOTH",
"349 158 OFFCURVE",
"303 244 OFFCURVE",
"329 493 CURVE SMOOTH",
"398 1154 LINE SMOOTH",
"421 1362 OFFCURVE",
"456 1500 OFFCURVE",
"654 1500 CURVE SMOOTH",
"850 1500 OFFCURVE",
"842 1370 OFFCURVE",
"822 1183 CURVE SMOOTH",
"810 1069 LINE",
"1022 1069 LINE",
"1036 1198 LINE SMOOTH",
"1067 1496 OFFCURVE",
"980 1675 OFFCURVE",
"670 1675 CURVE SMOOTH",
"321 1675 OFFCURVE",
"205 1456 OFFCURVE",
"170 1123 CURVE SMOOTH",
"107 529 LINE SMOOTH",
"75 221 OFFCURVE",
"141 -18 OFFCURVE",
"492 -18 CURVE SMOOTH"
);
}
);
width = 1050;
}
);
unicode = 0043;
userData = {
com.fontlab.hintData = {
hhints = (
{
position = -24;
width = 56;
},
{
position = 1623;
width = 55;
}
);
};
};
},
{
glyphname = D;
lastChange = "2016-08-02 09:50:01 +0000";
layers = (
{
layerId = "6D1B020D-7C4E-4885-9208-B35BA480FE8F";
paths = (
{
closed = 1;
nodes = (
"484 0 LINE SMOOTH",
"804 0 OFFCURVE",
"920 208 OFFCURVE",
"950 494 CURVE SMOOTH",
"1022 1182 LINE SMOOTH",
"1050 1448 OFFCURVE",
"978 1658 OFFCURVE",
"648 1658 CURVE SMOOTH",
"284 1658 LINE",
"110 0 LINE"
);
},
{
closed = 1;
nodes = (
"387 1569 LINE",
"638 1569 LINE SMOOTH",
"893 1569 OFFCURVE",
"934 1416 OFFCURVE",
"909 1173 CURVE SMOOTH",
"839 506 LINE SMOOTH",
"815 280 OFFCURVE",
"755 88 OFFCURVE",
"488 88 CURVE SMOOTH",
"232 88 LINE"
);
}
);
width = 1059;
},
{
layerId = "BF03A18F-065F-4249-8E16-486B9CB494A0";
paths = (
{
closed = 1;
nodes = (
"506 0 LINE SMOOTH",
"953 0 OFFCURVE",
"1094 152 OFFCURVE",
"1134 532 CURVE SMOOTH",
"1197 1130 LINE SMOOTH",
"1237 1508 OFFCURVE",
"1128 1658 OFFCURVE",
"678 1658 CURVE SMOOTH",
"244 1658 LINE",
"70 0 LINE"
);
},
{
closed = 1;
nodes = (
"614 1382 LINE",
"655 1382 LINE SMOOTH",
"798 1382 OFFCURVE",
"808 1335 OFFCURVE",
"796 1216 CURVE SMOOTH",
"715 448 LINE SMOOTH",
"701 327 OFFCURVE",
"684 276 OFFCURVE",
"540 276 CURVE SMOOTH",
"499 276 LINE"
);
}
);
width = 1227;
},
{
layerId = "43161617-4660-4075-B14A-1D8E25AEE542";
paths = (
{
closed = 1;
nodes = (
"460 0 LINE SMOOTH",
"806 0 OFFCURVE",
"949 191 OFFCURVE",
"986 539 CURVE SMOOTH",
"1050 1154 LINE SMOOTH",
"1085 1486 OFFCURVE",
"984 1658 OFFCURVE",
"617 1658 CURVE SMOOTH",
"256 1658 LINE",
"82 0 LINE"
);
},
{
closed = 1;
nodes = (
"463 1492 LINE",
"596 1492 LINE SMOOTH",
"835 1492 OFFCURVE",
"848 1382 OFFCURVE",
"822 1128 CURVE SMOOTH",
"764 581 LINE SMOOTH",
"736 316 OFFCURVE",
"715 161 OFFCURVE",
"461 161 CURVE SMOOTH",
"324 161 LINE"
);
}
);
width = 1078;
}
);
unicode = 0044;
userData = {
com.fontlab.hintData = {
hhints = (
{
position = 0;
width = 56;
},
{
position = 1602;
width = 56;
}
);
};
};
},
{
glyphname = Eth;
lastChange = "2016-08-02 09:50:01 +0000";
layers = (
{
layerId = "6D1B020D-7C4E-4885-9208-B35BA480FE8F";
paths = (
{
closed = 1;
nodes = (
"484 0 LINE SMOOTH",
"804 0 OFFCURVE",
"920 208 OFFCURVE",
"950 494 CURVE SMOOTH",
"1022 1182 LINE SMOOTH",
"1050 1448 OFFCURVE",
"978 1658 OFFCURVE",
"648 1658 CURVE SMOOTH",
"284 1658 LINE",
"206 911 LINE",
"72 911 LINE",
"64 836 LINE",
"198 836 LINE",
"110 0 LINE"
);
},
{
closed = 1;
nodes = (
"311 836 LINE",
"502 836 LINE",
"510 911 LINE",
"318 911 LINE",
"387 1569 LINE",
"638 1569 LINE SMOOTH",
"893 1569 OFFCURVE",
"934 1416 OFFCURVE",
"909 1173 CURVE SMOOTH",
"839 506 LINE SMOOTH",
"815 280 OFFCURVE",
"755 88 OFFCURVE",
"488 88 CURVE SMOOTH",
"232 88 LINE"
);
}
);
width = 1149;
},
{
layerId = "BF03A18F-065F-4249-8E16-486B9CB494A0";
paths = (
{
closed = 1;
nodes = (
"485 0 LINE SMOOTH",
"933 0 OFFCURVE",
"1074 152 OFFCURVE",
"1114 532 CURVE SMOOTH",
"1177 1130 LINE SMOOTH",
"1216 1508 OFFCURVE",
"1107 1658 OFFCURVE",
"658 1658 CURVE SMOOTH",
"224 1658 LINE",
"149 945 LINE",
"61 945 LINE",
"40 749 LINE",
"129 749 LINE",
"50 0 LINE"
);
},
{
closed = 1;
nodes = (
"528 749 LINE",
"602 749 LINE",
"623 945 LINE",
"548 945 LINE",
"594 1382 LINE",
"635 1382 LINE SMOOTH",
"778 1382 OFFCURVE",
"788 1335 OFFCURVE",
"775 1216 CURVE SMOOTH",
"695 448 LINE SMOOTH",
"681 327 OFFCURVE",
"664 276 OFFCURVE",
"519 276 CURVE SMOOTH",
"478 276 LINE"
);
}
);
width = 1174;
},
{
layerId = "43161617-4660-4075-B14A-1D8E25AEE542";
paths = (
{
closed = 1;
nodes = (
"460 0 LINE SMOOTH",
"806 0 OFFCURVE",
"949 191 OFFCURVE",
"986 539 CURVE SMOOTH",
"1050 1154 LINE SMOOTH",
"1085 1486 OFFCURVE",
"984 1658 OFFCURVE",
"617 1658 CURVE SMOOTH",
"256 1658 LINE",
"180 926 LINE",
"78 926 LINE",
"64 797 LINE",
"166 797 LINE",
"82 0 LINE"
);
},
{
closed = 1;
nodes = (
"390 797 LINE",
"518 797 LINE",
"532 926 LINE",
"404 926 LINE",
"463 1492 LINE",
"596 1492 LINE SMOOTH",
"835 1492 OFFCURVE",
"848 1382 OFFCURVE",
"822 1128 CURVE SMOOTH",
"764 581 LINE SMOOTH",
"736 316 OFFCURVE",
"715 161 OFFCURVE",
"461 161 CURVE SMOOTH",
"324 161 LINE"
);
}
);
width = 1066;
}
);
unicode = 00D0;
userData = {
com.fontlab.hintData = {
hhints = (
{
position = 0;
width = 56;
},
{
position = 1602;
width = 56;
}
);
};
};
},
{
glyphname = Dcroat;
lastChange = "2016-08-02 09:50:01 +0000";
layers = (
{
layerId = "6D1B020D-7C4E-4885-9208-B35BA480FE8F";
paths = (
{
closed = 1;
nodes = (
"485 0 LINE SMOOTH",
"805 0 OFFCURVE",
"922 208 OFFCURVE",
"952 494 CURVE SMOOTH",
"1024 1182 LINE SMOOTH",
"1051 1448 OFFCURVE",
"979 1658 OFFCURVE",
"650 1658 CURVE SMOOTH",
"285 1658 LINE",
"207 911 LINE",
"73 911 LINE",
"65 836 LINE",
"200 836 LINE",
"111 0 LINE"
);
},
{
closed = 1;
nodes = (
"312 836 LINE",
"503 836 LINE",
"511 911 LINE",
"319 911 LINE",
"388 1569 LINE",
"639 1569 LINE SMOOTH",
"894 1569 OFFCURVE",
"935 1416 OFFCURVE",
"910 1173 CURVE SMOOTH",
"840 506 LINE SMOOTH",
"816 280 OFFCURVE",
"757 88 OFFCURVE",
"489 88 CURVE SMOOTH",
"233 88 LINE"
);
}
);
width = 1060;
},
{
layerId = "BF03A18F-065F-4249-8E16-486B9CB494A0";
paths = (
{
closed = 1;
nodes = (
"516 0 LINE SMOOTH",
"964 0 OFFCURVE",
"1105 152 OFFCURVE",
"1144 532 CURVE SMOOTH",
"1207 1130 LINE SMOOTH",
"1247 1508 OFFCURVE",
"1138 1658 OFFCURVE",
"689 1658 CURVE SMOOTH",
"255 1658 LINE",
"179 935 LINE",
"72 935 LINE",
"53 759 LINE",
"160 759 LINE",
"81 0 LINE"
);
},
{
closed = 1;
nodes = (
"548 759 LINE",
"643 759 LINE",
"662 935 LINE",
"567 935 LINE",
"614 1382 LINE",
"675 1382 LINE SMOOTH",
"818 1382 OFFCURVE",
"827 1335 OFFCURVE",
"815 1216 CURVE SMOOTH",
"735 448 LINE SMOOTH",
"721 327 OFFCURVE",
"704 276 OFFCURVE",
"559 276 CURVE SMOOTH",
"498 276 LINE"
);
}
);
width = 1238;
},
{
layerId = "43161617-4660-4075-B14A-1D8E25AEE542";
paths = (
{
closed = 1;
nodes = (
"464 0 LINE SMOOTH",
"811 0 OFFCURVE",
"954 191 OFFCURVE",
"990 539 CURVE SMOOTH",
"1055 1154 LINE SMOOTH",
"1089 1486 OFFCURVE",
"988 1658 OFFCURVE",
"622 1658 CURVE SMOOTH",
"261 1658 LINE",
"184 926 LINE",
"82 926 LINE",
"68 797 LINE",
"171 797 LINE",
"87 0 LINE"
);
},
{
closed = 1;
nodes = (
"395 797 LINE",
"523 797 LINE",
"536 926 LINE",
"408 926 LINE",
"468 1492 LINE",
"600 1492 LINE SMOOTH",
"839 1492 OFFCURVE",
"852 1382 OFFCURVE",
"826 1128 CURVE SMOOTH",
"769 581 LINE SMOOTH",
"741 316 OFFCURVE",
"719 161 OFFCURVE",
"465 161 CURVE SMOOTH",
"328 161 LINE"
);
}
);
width = 1082;
}
);
unicode = 0110;
userData = {
com.fontlab.hintData = {
hhints = (
{
position = 0;
width = 56;
},
{
position = 1602;
width = 56;
}
);
};
};
},
{
glyphname = E;
lastChange = "2016-08-02 09:50:01 +0000";
layers = (
{
layerId = "6D1B020D-7C4E-4885-9208-B35BA480FE8F";
paths = (
{
closed = 1;
nodes = (
"688 0 LINE",
"698 88 LINE",
"231 88 LINE",
"308 817 LINE",
"687 817 LINE",
"695 904 LINE",
"316 904 LINE",
"386 1569 LINE",
"848 1569 LINE",
"857 1658 LINE",
"283 1658 LINE",
"109 0 LINE"
);
}
);
width = 804;
},
{
layerId = "BF03A18F-065F-4249-8E16-486B9CB494A0";
paths = (
{
closed = 1;
nodes = (
"845 0 LINE",
"874 267 LINE",
"498 267 LINE",
"547 736 LINE",
"825 736 LINE",
"854 1013 LINE",
"576 1013 LINE",
"615 1389 LINE",
"987 1389 LINE",
"1015 1658 LINE",
"244 1658 LINE",
"70 0 LINE"
);
}
);
width = 937;
},
{
layerId = "43161617-4660-4075-B14A-1D8E25AEE542";
paths = (
{
closed = 1;
nodes = (
"725 0 LINE",
"743 161 LINE",
"323 161 LINE",
"388 776 LINE",
"725 776 LINE",
"741 937 LINE",
"404 937 LINE",
"463 1492 LINE",
"877 1492 LINE",
"894 1658 LINE",
"256 1658 LINE",
"82 0 LINE"
);
}
);
width = 832;
}
);
unicode = 0045;
},
{
glyphname = F;
lastChange = "2016-08-02 09:50:01 +0000";
layers = (
{
layerId = "6D1B020D-7C4E-4885-9208-B35BA480FE8F";
paths = (
{
closed = 1;
nodes = (
"222 0 LINE",
"309 817 LINE",
"705 817 LINE",
"714 904 LINE",
"317 904 LINE",
"387 1570 LINE",
"847 1570 LINE",
"856 1658 LINE",
"284 1658 LINE",
"110 0 LINE"
);
}
);
width = 784;
},
{
layerId = "BF03A18F-065F-4249-8E16-486B9CB494A0";
paths = (
{
closed = 1;
nodes = (
"470 0 LINE",
"546 727 LINE",
"848 727 LINE",
"877 1004 LINE",
"575 1004 LINE",
"615 1390 LINE",
"954 1390 LINE",
"982 1658 LINE",
"244 1658 LINE",
"70 0 LINE"
);
}
);
width = 911;
},
{
layerId = "43161617-4660-4075-B14A-1D8E25AEE542";
paths = (
{
closed = 1;
nodes = (
"306 0 LINE",
"388 778 LINE",
"710 778 LINE",
"727 939 LINE",
"405 939 LINE",
"464 1497 LINE",
"876 1497 LINE",
"892 1658 LINE",
"256 1658 LINE",
"82 0 LINE"
);
}
);
width = 799;
}
);
unicode = 0046;
},
{
glyphname = G;
lastChange = "2016-08-02 09:50:01 +0000";
layers = (
{
layerId = "6D1B020D-7C4E-4885-9208-B35BA480FE8F";
paths = (
{
closed = 1;
nodes = (
"646 -23 OFFCURVE",
"742 57 OFFCURVE",
"796 186 CURVE",
"793 0 LINE",
"866 0 LINE",
"949 790 LINE",
"580 790 LINE",
"571 704 LINE",
"834 704 LINE",
"809 460 LINE SMOOTH",
"783 218 OFFCURVE",
"708 70 OFFCURVE",
"489 70 CURVE SMOOTH",
"252 70 OFFCURVE",
"211 225 OFFCURVE",
"237 467 CURVE SMOOTH",
"313 1189 LINE SMOOTH",
"337 1422 OFFCURVE",
"404 1586 OFFCURVE",
"648 1586 CURVE SMOOTH",
"862 1586 OFFCURVE",
"909 1454 OFFCURVE",
"884 1211 CURVE SMOOTH",
"877 1146 LINE",
"982 1146 LINE",
"988 1204 LINE SMOOTH",
"1019 1495 OFFCURVE",
"944 1677 OFFCURVE",
"656 1677 CURVE SMOOTH",
"337 1677 OFFCURVE",
"231 1477 OFFCURVE",
"200 1185 CURVE SMOOTH",
"126 481 LINE SMOOTH",
"95 189 OFFCURVE",
"156 -23 OFFCURVE",
"472 -23 CURVE SMOOTH"
);
}
);
width = 1045;
},
{
layerId = "BF03A18F-065F-4249-8E16-486B9CB494A0";
paths = (
{
closed = 1;
nodes = (
"649 -26 OFFCURVE",
"733 39 OFFCURVE",
"783 124 CURVE",
"790 0 LINE",
"1057 0 LINE",
"1148 871 LINE",
"653 871 LINE",
"629 641 LINE",
"764 641 LINE",
"742 430 LINE SMOOTH",
"734 349 OFFCURVE",
"697 253 OFFCURVE",
"600 253 CURVE SMOOTH",
"504 253 OFFCURVE",
"493 348 OFFCURVE",
"502 428 CURVE SMOOTH",
"586 1232 LINE SMOOTH",
"594 1309 OFFCURVE",
"613 1406 OFFCURVE",
"711 1406 CURVE SMOOTH",
"809 1406 OFFCURVE",
"801 1313 OFFCURVE",
"793 1236 CURVE SMOOTH",
"777 1081 LINE",
"1169 1081 LINE",
"1182 1197 LINE SMOOTH",
"1211 1477 OFFCURVE",
"1117 1683 OFFCURVE",
"735 1683 CURVE SMOOTH",
"351 1683 OFFCURVE",
"200 1456 OFFCURVE",
"164 1107 CURVE SMOOTH",
"105 550 LINE SMOOTH",
"70 213 OFFCURVE",
"156 -26 OFFCURVE",
"507 -26 CURVE SMOOTH"
);
}
);
width = 1209;
},
{
layerId = "43161617-4660-4075-B14A-1D8E25AEE542";
paths = (
{
closed = 1;
nodes = (
"639 -21 OFFCURVE",
"734 67 OFFCURVE",
"790 191 CURVE",
"792 0 LINE",
"934 0 LINE",
"1020 820 LINE",
"604 820 LINE",
"586 661 LINE",
"800 661 LINE",
"787 537 LINE SMOOTH",
"761 287 OFFCURVE",
"702 158 OFFCURVE",
"518 158 CURVE SMOOTH",
"333 158 OFFCURVE",
"304 277 OFFCURVE",
"329 517 CURVE SMOOTH",
"395 1137 LINE SMOOTH",
"417 1345 OFFCURVE",
"448 1500 OFFCURVE",
"654 1500 CURVE SMOOTH",
"843 1500 OFFCURVE",
"859 1397 OFFCURVE",
"836 1182 CURVE SMOOTH",
"831 1129 LINE",
"1040 1129 LINE",
"1047 1190 LINE SMOOTH",
"1081 1517 OFFCURVE",
"979 1675 OFFCURVE",
"669 1675 CURVE SMOOTH",
"320 1675 OFFCURVE",
"206 1464 OFFCURVE",
"168 1104 CURVE SMOOTH",
"108 540 LINE SMOOTH",
"71 186 OFFCURVE",
"162 -21 OFFCURVE",
"474 -21 CURVE SMOOTH"
);
}
);
width = 1093;
}
);
unicode = 0047;
userData = {
com.fontlab.hintData = {
hhints = (
{
position = -24;
width = 56;
},
{
position = 1623;
width = 55;
}
);
vhints = (
{
position = 794;
width = 42;
}
);
};
};
},
{
glyphname = H;
lastChange = "2016-08-02 09:50:01 +0000";
layers = (
{
layerId = "6D1B020D-7C4E-4885-9208-B35BA480FE8F";
paths = (
{
closed = 1;
nodes = (
"222 0 LINE",
"309 826 LINE",
"889 826 LINE",
"802 0 LINE",
"914 0 LINE",
"1088 1658 LINE",
"976 1658 LINE",
"898 911 LINE",
"317 911 LINE",
"396 1658 LINE",
"283 1658 LINE",
"109 0 LINE"
);
}
);
width = 1109;
},
{
associatedMasterId = "6D1B020D-7C4E-4885-9208-B35BA480FE8F";
layerId = "484FBAF3-A96A-426E-95D2-5396C8C22022";
name = b;
width = 1093;
},
{
layerId = "BF03A18F-065F-4249-8E16-486B9CB494A0";
paths = (
{
closed = 1;
nodes = (
"470 0 LINE",
"545 714 LINE",
"763 714 LINE",
"688 0 LINE",
"1087 0 LINE",
"1261 1658 LINE",
"862 1658 LINE",
"793 999 LINE",
"575 999 LINE",
"644 1658 LINE",
"244 1658 LINE",
"70 0 LINE"
);
}
);
width = 1257;
},
{
layerId = "43161617-4660-4075-B14A-1D8E25AEE542";
paths = (
{
closed = 1;
nodes = (
"306 0 LINE",
"388 780 LINE",
"824 780 LINE",
"742 0 LINE",
"966 0 LINE",
"1140 1658 LINE",
"916 1658 LINE",
"841 940 LINE",
"405 940 LINE",
"480 1658 LINE",
"256 1658 LINE",
"82 0 LINE"
);
}
);
width = 1145;
}
);
unicode = 0048;
userData = {
com.typemytype.robofont.layerData = {
b = {
anchors = (
);
components = (
);
contours = (
);
lib = {
};
name = H;
unicodes = (
);
width = 1093;
};
};
};
},
{
glyphname = Hbar;
lastChange = "2016-08-02 09:50:01 +0000";
layers = (
{
layerId = "6D1B020D-7C4E-4885-9208-B35BA480FE8F";
paths = (
{
closed = 1;
nodes = (
"222 0 LINE",
"309 826 LINE",
"889 826 LINE",
"802 0 LINE",
"914 0 LINE",
"1052 1311 LINE",
"1129 1311 LINE",
"1136 1377 LINE",
"1059 1377 LINE",
"1088 1658 LINE",
"976 1658 LINE",
"947 1377 LINE",
"366 1377 LINE",
"396 1658 LINE",
"283 1658 LINE",
"254 1377 LINE",
"178 1377 LINE",
"171 1311 LINE",
"247 1311 LINE",
"109 0 LINE"
);
},
{
closed = 1;
nodes = (
"360 1311 LINE",
"940 1311 LINE",
"898 911 LINE",
"317 911 LINE"
);
}
);
width = 1109;
},
{
layerId = "BF03A18F-065F-4249-8E16-486B9CB494A0";
paths = (
{
closed = 1;
nodes = (
"414 0 LINE",
"490 714 LINE",
"687 714 LINE",
"611 0 LINE",
"1010 0 LINE",
"1142 1257 LINE",
"1219 1257 LINE",
"1230 1371 LINE",
"1154 1371 LINE",
"1184 1658 LINE",
"785 1658 LINE",
"755 1371 LINE",
"558 1371 LINE",
"588 1658 LINE",
"189 1658 LINE",
"159 1371 LINE",
"54 1371 LINE",
"43 1257 LINE",
"147 1257 LINE",
"15 0 LINE"
);
},
{
closed = 1;
nodes = (
"546 1257 LINE",
"743 1257 LINE",
"717 999 LINE",
"520 999 LINE"
);
}
);
width = 1097;
},
{
layerId = "43161617-4660-4075-B14A-1D8E25AEE542";
paths = (
{
closed = 1;
nodes = (
"306 0 LINE",
"388 780 LINE",
"824 780 LINE",
"742 0 LINE",
"966 0 LINE",
"1099 1270 LINE",
"1195 1270 LINE",
"1207 1386 LINE",
"1112 1386 LINE",
"1140 1658 LINE",
"916 1658 LINE",
"888 1386 LINE",
"452 1386 LINE",
"480 1658 LINE",
"256 1658 LINE",
"228 1386 LINE",
"133 1386 LINE",
"120 1270 LINE",
"215 1270 LINE",
"82 0 LINE"
);
},
{
closed = 1;
nodes = (
"439 1270 LINE",
"875 1270 LINE",
"841 940 LINE",
"405 940 LINE"
);
}
);
width = 1145;
}
);
unicode = 0126;
},
{
glyphname = I;
lastChange = "2016-08-02 09:50:01 +0000";
layers = (
{
layerId = "6D1B020D-7C4E-4885-9208-B35BA480FE8F";
paths = (
{
closed = 1;
nodes = (
"224 0 LINE",
"398 1658 LINE",
"287 1658 LINE",
"113 0 LINE"
);
}
);
width = 422;
},
{
layerId = "BF03A18F-065F-4249-8E16-486B9CB494A0";
paths = (
{
closed = 1;
nodes = (
"470 0 LINE",
"644 1658 LINE",
"246 1658 LINE",
"72 0 LINE"
);
}
);
width = 641;
},
{
layerId = "43161617-4660-4075-B14A-1D8E25AEE542";
paths = (
{
closed = 1;
nodes = (
"313 0 LINE",
"487 1658 LINE",
"268 1658 LINE",
"94 0 LINE"
);
}
);
width = 502;
}
);
unicode = 0049;
userData = {
com.fontlab.hintData = {
vhints = (
{
position = 48;
width = 412;
}
);
};
};
},
{
glyphname = J;
lastChange = "2016-08-02 09:50:01 +0000";
layers = (
{
layerId = "6D1B020D-7C4E-4885-9208-B35BA480FE8F";
paths = (
{
closed = 1;
nodes = (
"22 -92 LINE SMOOTH",
"301 -92 OFFCURVE",
"350 29 OFFCURVE",
"379 294 CURVE",
"521 1658 LINE",
"409 1658 LINE",
"267 308 LINE SMOOTH",
"240 43 OFFCURVE",
"217 -4 OFFCURVE",
"-27 -5 CURVE",
"-36 -92 LINE"
);
}
);
width = 543;
},
{
layerId = "BF03A18F-065F-4249-8E16-486B9CB494A0";
paths = (
{
closed = 1;
nodes = (
"168 -43 LINE SMOOTH",
"473 -43 OFFCURVE",
"570 95 OFFCURVE",
"605 364 CURVE",
"741 1658 LINE",
"342 1658 LINE",
"208 382 LINE SMOOTH",
"195 256 OFFCURVE",
"140 232 OFFCURVE",
"3 234 CURVE",
"-26 -43 LINE"
);
}
);
width = 738;
},
{
layerId = "43161617-4660-4075-B14A-1D8E25AEE542";
paths = (
{
closed = 1;
nodes = (
"68 -43 LINE SMOOTH",
"355 -43 OFFCURVE",
"440 87 OFFCURVE",
"471 369 CURVE",
"605 1658 LINE",
"381 1658 LINE",
"247 374 LINE SMOOTH",
"225 162 OFFCURVE",
"181 118 OFFCURVE",
"-22 118 CURVE",
"-38 -43 LINE"
);
}
);
width = 613;
}
);
unicode = 004A;
userData = {
com.fontlab.hintData = {
hhints = (
{
position = -114;
width = 56;
}
);
};
};
},
{
glyphname = K;
lastChange = "2016-08-02 09:50:01 +0000";
layers = (
{
layerId = "6D1B020D-7C4E-4885-9208-B35BA480FE8F";
paths = (
{
closed = 1;
nodes = (
"222 0 LINE",
"284 594 LINE",
"476 889 LINE",
"786 0 LINE",
"898 0 LINE",
"563 957 LINE",
"987 1658 LINE",
"877 1658 LINE",
"298 728 LINE",
"396 1658 LINE",
"283 1658 LINE",
"109 0 LINE"
);
}
);
width = 942;
},
{
layerId = "BF03A18F-065F-4249-8E16-486B9CB494A0";
paths = (
{
closed = 1;
nodes = (
"470 0 LINE",
"542 691 LINE",
"569 722 LINE",
"713 0 LINE",
"1124 0 LINE",
"911 905 LINE",
"1292 1658 LINE",
"900 1658 LINE",
"576 1008 LINE",
"644 1658 LINE",
"244 1658 LINE",
"70 0 LINE"
);
}
);
width = 1194;
},
{
layerId = "43161617-4660-4075-B14A-1D8E25AEE542";
paths = (
{
closed = 1;
nodes = (
"306 0 LINE",
"375 649 LINE",
"487 826 LINE",
"738 0 LINE",
"956 0 LINE",
"669 929 LINE",
"1075 1658 LINE",
"867 1658 LINE",
"398 868 LINE",
"480 1658 LINE",
"256 1658 LINE",
"82 0 LINE"
);
}
);
width = 1009;
}
);
unicode = 004B;
},
{
glyphname = L;
lastChange = "2016-08-02 09:50:01 +0000";
layers = (
{
layerId = "6D1B020D-7C4E-4885-9208-B35BA480FE8F";
paths = (
{
closed = 1;
nodes = (
"723 0 LINE",
"732 88 LINE",
"232 88 LINE",
"396 1658 LINE",
"284 1658 LINE",
"110 0 LINE"
);
}
);
width = 764;
},
{
layerId = "BF03A18F-065F-4249-8E16-486B9CB494A0";
paths = (
{
closed = 1;
nodes = (
"840 0 LINE",
"868 267 LINE",
"498 267 LINE",
"644 1658 LINE",
"244 1658 LINE",
"70 0 LINE"
);
}
);
width = 920;
},
{
layerId = "43161617-4660-4075-B14A-1D8E25AEE542";
paths = (
{
closed = 1;
nodes = (
"734 0 LINE",
"752 161 LINE",
"324 161 LINE",
"480 1658 LINE",
"256 1658 LINE",
"82 0 LINE"
);
}
);
width = 810;
}
);
unicode = 004C;
},
{
glyphname = Lslash;
lastChange = "2016-08-02 09:50:01 +0000";
layers = (
{
layerId = "6D1B020D-7C4E-4885-9208-B35BA480FE8F";
paths = (
{
closed = 1;
nodes = (
"723 0 LINE",
"732 88 LINE",
"232 88 LINE",
"317 895 LINE",
"579 1024 LINE",
"589 1115 LINE",
"326 986 LINE",
"396 1658 LINE",
"284 1658 LINE",
"207 926 LINE",
"53 850 LINE",
"44 759 LINE",
"197 835 LINE",
"110 0 LINE"
);
}
);
width = 764;
},
{
layerId = "BF03A18F-065F-4249-8E16-486B9CB494A0";
paths = (
{
closed = 1;
nodes = (
"860 0 LINE",
"888 267 LINE",
"518 267 LINE",
"585 907 LINE",
"794 999 LINE",
"816 1205 LINE",
"607 1113 LINE",
"664 1658 LINE",
"265 1658 LINE",
"189 931 LINE",
"65 876 LINE",
"43 669 LINE",
"167 724 LINE",
"91 0 LINE"
);
}
);
width = 949;
},
{
layerId = "43161617-4660-4075-B14A-1D8E25AEE542";
paths = (
{
closed = 1;
nodes = (
"734 0 LINE",
"752 161 LINE",
"324 161 LINE",
"401 901 LINE",
"631 1020 LINE",
"649 1192 LINE",
"419 1073 LINE",
"480 1658 LINE",
"256 1658 LINE",
"182 949 LINE",
"32 870 LINE",
"14 698 LINE",
"164 777 LINE",
"82 0 LINE"
);
}
);
width = 810;
}
);
unicode = 0141;
},
{
glyphname = M;
lastChange = "2016-08-02 09:50:01 +0000";
layers = (
{
layerId = "6D1B020D-7C4E-4885-9208-B35BA480FE8F";
paths = (
{
closed = 1;
nodes = (
"187 0 LINE",
"374 1388 LINE",
"562 0 LINE",
"644 0 LINE",
"1128 1391 LINE",
"1022 0 LINE",
"1119 0 LINE",
"1246 1658 LINE",
"1130 1658 LINE",
"619 162 LINE",
"423 1658 LINE",
"314 1658 LINE",
"90 0 LINE"
);
}
);
width = 1294;
},
{
layerId = "BF03A18F-065F-4249-8E16-486B9CB494A0";
paths = (
{
closed = 1;
nodes = (
"345 0 LINE",
"487 1089 LINE",
"558 0 LINE",
"812 0 LINE",
"1100 1079 LINE",
"1016 0 LINE",
"1296 0 LINE",
"1442 1658 LINE",
"1026 1658 LINE",
"762 785 LINE",
"697 1658 LINE",
"263 1658 LINE",
"62 0 LINE"
);
}
);
width = 1457;
},
{
layerId = "43161617-4660-4075-B14A-1D8E25AEE542";
paths = (
{
closed = 1;
nodes = (
"260 0 LINE",
"407 1216 LINE",
"562 0 LINE",
"689 0 LINE",
"1102 1217 LINE",
"993 0 LINE",
"1174 0 LINE",
"1316 1658 LINE",
"1098 1658 LINE",
"656 304 LINE",
"502 1658 LINE",
"283 1658 LINE",
"77 0 LINE"
);
}
);
width = 1348;
}
);
unicode = 004D;
userData = {
com.fontlab.hintData = {
vhints = (
{
position = 36;
width = 290;
},
{
position = 63;
width = 291;
},
{
position = 962;
width = 291;
},
{
position = 994;
width = 286;
}
);
};
};
},
{
glyphname = N;
lastChange = "2016-08-02 09:50:01 +0000";
layers = (
{
layerId = "6D1B020D-7C4E-4885-9208-B35BA480FE8F";
paths = (
{
closed = 1;
nodes = (
"209 0 LINE",
"357 1403 LINE",
"772 0 LINE",
"860 0 LINE",
"1034 1658 LINE",
"936 1658 LINE",
"788 258 LINE",
"374 1658 LINE",
"284 1658 LINE",
"110 0 LINE"
);
}
);
width = 1055;
},
{
layerId = "BF03A18F-065F-4249-8E16-486B9CB494A0";
paths = (
{
closed = 1;
nodes = (
"413 0 LINE",
"497 793 LINE",
"721 0 LINE",
"993 0 LINE",
"1167 1658 LINE",
"836 1658 LINE",
"760 933 LINE",
"527 1658 LINE",
"244 1658 LINE",
"70 0 LINE"
);
}
);
width = 1163;
},
{
layerId = "43161617-4660-4075-B14A-1D8E25AEE542";
paths = (
{
closed = 1;
nodes = (
"271 0 LINE",
"393 1150 LINE",
"755 0 LINE",
"900 0 LINE",
"1074 1658 LINE",
"886 1658 LINE",
"769 539 LINE",
"410 1658 LINE",
"256 1658 LINE",
"82 0 LINE"
);
}
);
width = 1079;
}
);
unicode = 004E;
},
{
glyphname = Eng;
lastChange = "2016-08-02 09:50:01 +0000";
layers = (
{
layerId = "6D1B020D-7C4E-4885-9208-B35BA480FE8F";
paths = (
{
closed = 1;
nodes = (
"575 -288 LINE SMOOTH",
"781 -288 OFFCURVE",
"841 -188 OFFCURVE",
"860 0 CURVE SMOOTH",
"1034 1658 LINE",
"939 1658 LINE",
"792 258 LINE",
"374 1658 LINE",
"284 1658 LINE",
"110 0 LINE",
"206 0 LINE",
"353 1403 LINE",
"765 25 LINE",
"759 -29 LINE SMOOTH",
"745 -165 OFFCURVE",
"703 -212 OFFCURVE",
"520 -210 CURVE",
"513 -288 LINE"
);
}
);
width = 1101;
},
{
layerId = "BF03A18F-065F-4249-8E16-486B9CB494A0";
paths = (
{
closed = 1;
nodes = (
"564 -440 LINE SMOOTH",
"880 -440 OFFCURVE",
"971 -288 OFFCURVE",
"1002 0 CURVE SMOOTH",
"1176 1658 LINE",
"847 1658 LINE",
"771 933 LINE",
"537 1658 LINE",
"254 1658 LINE",
"80 0 LINE",
"421 0 LINE",
"505 793 LINE",
"710 173 LINE",
"687 -42 LINE SMOOTH",
"674 -166 OFFCURVE",
"597 -211 OFFCURVE",
"419 -208 CURVE",
"395 -440 LINE"
);
}
);
width = 1182;
},
{
layerId = "43161617-4660-4075-B14A-1D8E25AEE542";
paths = (
{
closed = 1;
nodes = (
"539 -370 LINE SMOOTH",
"799 -370 OFFCURVE",
"874 -242 OFFCURVE",
"900 0 CURVE SMOOTH",
"1074 1658 LINE",
"898 1658 LINE",
"780 539 LINE",
"410 1658 LINE",
"256 1658 LINE",
"82 0 LINE",
"260 0 LINE",
"381 1150 LINE",
"730 83 LINE",
"723 16 LINE SMOOTH",
"704 -159 OFFCURVE",
"683 -218 OFFCURVE",
"477 -217 CURVE",
"461 -370 LINE"
);
}
);
width = 1088;
}
);
unicode = 014A;
userData = {
com.fontlab.hintData = {
hhints = (
{
position = -252;
width = 45;
}
);
};
};
},
{
glyphname = O;
lastChange = "2016-08-02 09:50:01 +0000";
layers = (
{
layerId = "6D1B020D-7C4E-4885-9208-B35BA480FE8F";
paths = (
{
closed = 1;
nodes = (
"805 -22 OFFCURVE",
"914 186 OFFCURVE",
"944 469 CURVE SMOOTH",
"1021 1196 LINE SMOOTH",
"1050 1477 OFFCURVE",
"975 1677 OFFCURVE",
"661 1677 CURVE SMOOTH",
"347 1677 OFFCURVE",
"231 1478 OFFCURVE",
"202 1196 CURVE SMOOTH",
"125 472 LINE SMOOTH",
"96 188 OFFCURVE",
"158 -22 OFFCURVE",
"483 -22 CURVE SMOOTH"
);
},
{
closed = 1;
nodes = (
"254 70 OFFCURVE",
"212 222 OFFCURVE",
"236 447 CURVE SMOOTH",
"316 1212 LINE SMOOTH",
"340 1438 OFFCURVE",
"414 1586 OFFCURVE",
"652 1586 CURVE SMOOTH",
"891 1586 OFFCURVE",
"933 1437 OFFCURVE",
"909 1212 CURVE SMOOTH",
"829 447 LINE SMOOTH",
"806 222 OFFCURVE",
"730 70 OFFCURVE",
"492 70 CURVE SMOOTH"
);
}
);
width = 1056;
},
{
layerId = "BF03A18F-065F-4249-8E16-486B9CB494A0";
paths = (
{
closed = 1;
nodes = (
"939 -25 OFFCURVE",
"1091 177 OFFCURVE",
"1128 523 CURVE SMOOTH",
"1192 1135 LINE SMOOTH",
"1229 1481 OFFCURVE",
"1119 1683 OFFCURVE",
"736 1683 CURVE SMOOTH",
"353 1683 OFFCURVE",
"206 1482 OFFCURVE",
"169 1135 CURVE SMOOTH",
"105 523 LINE SMOOTH",
"68 177 OFFCURVE",
"173 -25 OFFCURVE",
"556 -25 CURVE SMOOTH"
);
},
{
closed = 1;
nodes = (
"489 252 OFFCURVE",
"496 347 OFFCURVE",
"504 422 CURVE SMOOTH",
"590 1237 LINE SMOOTH",
"597 1312 OFFCURVE",
"610 1406 OFFCURVE",
"707 1406 CURVE SMOOTH",
"804 1406 OFFCURVE",
"800 1312 OFFCURVE",
"792 1237 CURVE SMOOTH",
"707 422 LINE SMOOTH",
"699 347 OFFCURVE",
"683 252 OFFCURVE",
"586 252 CURVE SMOOTH"
);
}
);
width = 1222;
},
{
layerId = "43161617-4660-4075-B14A-1D8E25AEE542";
paths = (
{
closed = 1;
nodes = (
"834 -18 OFFCURVE",
"972 192 OFFCURVE",
"1006 516 CURVE SMOOTH",
"1074 1151 LINE SMOOTH",
"1108 1474 OFFCURVE",
"1011 1675 OFFCURVE",
"678 1675 CURVE SMOOTH",
"344 1675 OFFCURVE",
"207 1477 OFFCURVE",
"173 1151 CURVE SMOOTH",
"106 517 LINE SMOOTH",
"72 190 OFFCURVE",
"164 -18 OFFCURVE",
"500 -18 CURVE SMOOTH"
);
},
{
closed = 1;
nodes = (
"329 158 OFFCURVE",
"307 281 OFFCURVE",
"327 468 CURVE SMOOTH",
"403 1197 LINE SMOOTH",
"423 1384 OFFCURVE",
"471 1500 OFFCURVE",
"660 1500 CURVE SMOOTH",
"850 1500 OFFCURVE",
"872 1383 OFFCURVE",
"852 1197 CURVE SMOOTH",
"776 468 LINE SMOOTH",
"756 281 OFFCURVE",
"708 158 OFFCURVE",
"519 158 CURVE SMOOTH"
);
}
);
width = 1101;
}
);
unicode = 004F;
userData = {
com.fontlab.hintData = {
hhints = (
{
position = -24;
width = 56;
},
{
position = 1623;
width = 55;
}
);
};
};
},
{
glyphname = Oslash;
lastChange = "2016-08-02 09:50:01 +0000";
layers = (
{
components = (
{
name = O;
}
);
layerId = "6D1B020D-7C4E-4885-9208-B35BA480FE8F";
paths = (
{
closed = 1;
nodes = (
"982 1821 LINE",
"931 1835 LINE",
"139 -179 LINE",
"189 -194 LINE"
);
}
);
width = 1071;
},
{
components = (
{
name = O;
transform = "{1, 0, 0, 1, 143, 0}";
}
);
layerId = "BF03A18F-065F-4249-8E16-486B9CB494A0";
paths = (
{
closed = 1;
nodes = (
"1146 1779 LINE",
"1071 1813 LINE",
"76 -158 LINE",
"151 -193 LINE"
);
}
);
width = 1186;
},
{
components = (
{
name = O;
}
);
layerId = "43161617-4660-4075-B14A-1D8E25AEE542";
paths = (
{
closed = 1;
nodes = (
"941 1785 LINE",
"864 1805 LINE",
"141 -129 LINE",
"216 -153 LINE"
);
}
);
width = 1104;
}
);
unicode = 00D8;
userData = {
com.fontlab.hintData = {
hhints = (
{
position = -24;
width = 56;
},
{
position = 1623;
width = 55;
}
);
};
};
},
{
glyphname = OE;
lastChange = "2016-08-02 09:50:01 +0000";
layers = (
{
layerId = "6D1B020D-7C4E-4885-9208-B35BA480FE8F";
paths = (
{
closed = 1;
nodes = (
"1166 0 LINE",
"1176 92 LINE",
"771 92 LINE",
"848 824 LINE",
"1185 824 LINE",
"1193 911 LINE",
"856 911 LINE",
"926 1566 LINE",
"1329 1566 LINE",
"1339 1658 LINE",
"672 1658 LINE",
"355 1658 OFFCURVE",
"229 1463 OFFCURVE",
"200 1182 CURVE SMOOTH",
"125 468 LINE SMOOTH",
"96 200 OFFCURVE",
"170 0 OFFCURVE",
"503 0 CURVE SMOOTH"
);
},
{
closed = 1;
nodes = (
"262 94 OFFCURVE",
"213 240 OFFCURVE",
"237 468 CURVE SMOOTH",
"311 1176 LINE SMOOTH",
"337 1414 OFFCURVE",
"411 1567 OFFCURVE",
"668 1567 CURVE SMOOTH",
"815 1567 LINE",
"660 94 LINE",
"515 94 LINE"
);
}
);
width = 1270;
},
{
layerId = "BF03A18F-065F-4249-8E16-486B9CB494A0";
paths = (
{
closed = 1;
nodes = (
"1385 0 LINE",
"1413 267 LINE",
"1082 267 LINE",
"1130 717 LINE",
"1366 717 LINE",
"1395 995 LINE",
"1159 995 LINE",
"1200 1383 LINE",
"1530 1383 LINE",
"1558 1651 LINE",
"730 1651 LINE",
"344 1650 OFFCURVE",
"195 1384 OFFCURVE",
"160 1051 CURVE SMOOTH",
"111 585 LINE SMOOTH",
"74 236 OFFCURVE",
"178 0 OFFCURVE",
"558 0 CURVE SMOOTH"
);
},
{
closed = 1;
nodes = (
"483 271 OFFCURVE",
"491 403 OFFCURVE",
"500 491 CURVE SMOOTH",
"569 1143 LINE SMOOTH",
"578 1230 OFFCURVE",
"598 1369 OFFCURVE",
"702 1369 CURVE SMOOTH",
"800 1369 LINE",
"684 272 LINE",
"587 272 LINE"
);
}
);
width = 1487;
},
{
layerId = "43161617-4660-4075-B14A-1D8E25AEE542";
paths = (
{
closed = 1;
nodes = (
"1286 0 LINE",
"1303 162 LINE",
"896 162 LINE",
"961 778 LINE",
"1290 778 LINE",
"1306 939 LINE",
"977 939 LINE",
"1035 1491 LINE",
"1439 1491 LINE",
"1456 1658 LINE",
"696 1658 LINE",
"350 1658 OFFCURVE",
"206 1469 OFFCURVE",
"170 1123 CURVE SMOOTH",
"105 503 LINE SMOOTH",
"69 170 OFFCURVE",
"171 0 OFFCURVE",
"538 0 CURVE SMOOTH"
);
},
{
closed = 1;
nodes = (
"321 167 OFFCURVE",
"306 276 OFFCURVE",
"333 526 CURVE SMOOTH",
"391 1082 LINE SMOOTH",
"419 1349 OFFCURVE",
"444 1497 OFFCURVE",
"696 1497 CURVE SMOOTH",
"813 1497 LINE",
"672 167 LINE",
"560 167 LINE"
);
}
);
width = 1391;
}
);
unicode = 0152;
userData = {
com.fontlab.hintData = {
hhints = (
{
position = 0;
width = 62;
},
{
position = 1598;
width = 60;
}
);
};
};
},
{
glyphname = P;
lastChange = "2016-08-02 09:50:01 +0000";
layers = (
{
layerId = "6D1B020D-7C4E-4885-9208-B35BA480FE8F";
paths = (
{
closed = 1;
nodes = (
"222 0 LINE",
"306 792 LINE",
"585 792 LINE SMOOTH",
"881 792 OFFCURVE",
"992 1010 OFFCURVE",
"1015 1230 CURVE SMOOTH",
"1041 1477 OFFCURVE",
"972 1658 OFFCURVE",
"674 1658 CURVE SMOOTH",
"284 1658 LINE",
"110 0 LINE"
);
},
{
closed = 1;
nodes = (
"388 1572 LINE",
"645 1572 LINE SMOOTH",
"858 1572 OFFCURVE",
"929 1497 OFFCURVE",
"901 1230 CURVE SMOOTH",
"874 972 OFFCURVE",
"770 879 OFFCURVE",
"570 879 CURVE SMOOTH",
"315 879 LINE"
);
}
);
width = 994;
},
{
layerId = "BF03A18F-065F-4249-8E16-486B9CB494A0";
paths = (
{
closed = 1;
nodes = (
"470 0 LINE",
"542 689 LINE",
"681 689 LINE SMOOTH",
"949 689 OFFCURVE",
"1186 760 OFFCURVE",
"1230 1172 CURVE SMOOTH",
"1263 1485 OFFCURVE",
"1134 1658 OFFCURVE",
"836 1658 CURVE SMOOTH",
"244 1658 LINE",
"70 0 LINE"
);
},
{
closed = 1;
nodes = (
"614 1379 LINE",
"738 1379 LINE SMOOTH",
"866 1379 OFFCURVE",
"867 1279 OFFCURVE",
"857 1180 CURVE SMOOTH",
"842 1042 OFFCURVE",
"820 965 OFFCURVE",
"698 965 CURVE SMOOTH",
"571 965 LINE"
);
}
);
width = 1205;
},
{
layerId = "43161617-4660-4075-B14A-1D8E25AEE542";
paths = (
{
closed = 1;
nodes = (
"306 0 LINE",
"388 773 LINE",
"575 773 LINE SMOOTH",
"848 773 OFFCURVE",
"1000 940 OFFCURVE",
"1028 1202 CURVE SMOOTH",
"1058 1488 OFFCURVE",
"963 1658 OFFCURVE",
"667 1658 CURVE SMOOTH",
"256 1658 LINE",
"82 0 LINE"
);
},
{
closed = 1;
nodes = (
"464 1497 LINE",
"582 1497 LINE SMOOTH",
"813 1497 OFFCURVE",
"840 1438 OFFCURVE",
"814 1201 CURVE SMOOTH",
"793 992 OFFCURVE",
"719 934 OFFCURVE",
"519 934 CURVE SMOOTH",
"405 934 LINE"
);
}
);
width = 984;
}
);
unicode = 0050;
userData = {
com.fontlab.hintData = {
hhints = (
{
position = 800;
width = 55;
},
{
position = 1604;
width = 54;
}
);
};
};
},
{
glyphname = Thorn;
lastChange = "2016-08-02 09:50:01 +0000";
layers = (
{
layerId = "6D1B020D-7C4E-4885-9208-B35BA480FE8F";
paths = (
{
closed = 1;
nodes = (
"222 0 LINE",
"276 513 LINE",
"576 513 LINE SMOOTH",
"903 513 OFFCURVE",
"1005 776 OFFCURVE",
"1028 993 CURVE SMOOTH",
"1054 1233 OFFCURVE",
"978 1446 OFFCURVE",
"685 1446 CURVE SMOOTH",
"374 1446 LINE",
"396 1658 LINE",
"284 1658 LINE",
"110 0 LINE"
);
},
{
closed = 1;
nodes = (
"364 1349 LINE",
"657 1349 LINE SMOOTH",
"836 1349 OFFCURVE",
"940 1250 OFFCURVE",
"912 989 CURVE SMOOTH",
"885 723 OFFCURVE",
"775 610 OFFCURVE",
"570 610 CURVE SMOOTH",
"287 610 LINE"
);
}
);
width = 1034;
},
{
layerId = "BF03A18F-065F-4249-8E16-486B9CB494A0";
paths = (
{
closed = 1;
nodes = (
"449 0 LINE",
"499 478 LINE",
"625 479 LINE SMOOTH",
"983 482 OFFCURVE",
"1160 568 OFFCURVE",
"1204 980 CURVE SMOOTH",
"1239 1320 OFFCURVE",
"1081 1436 OFFCURVE",
"739 1436 CURVE SMOOTH",
"600 1436 LINE",
"623 1658 LINE",
"224 1658 LINE",
"50 0 LINE"
);
},
{
closed = 1;
nodes = (
"571 1155 LINE",
"687 1155 LINE SMOOTH",
"816 1155 OFFCURVE",
"854 1090 OFFCURVE",
"840 959 CURVE SMOOTH",
"825 816 OFFCURVE",
"772 758 OFFCURVE",
"639 758 CURVE SMOOTH",
"529 758 LINE"
);
}
);
width = 1179;
},
{
layerId = "43161617-4660-4075-B14A-1D8E25AEE542";
paths = (
{
closed = 1;
nodes = (
"306 0 LINE",
"357 480 LINE",
"564 480 LINE SMOOTH",
"862 480 OFFCURVE",
"1013 657 OFFCURVE",
"1045 962 CURVE SMOOTH",
"1076 1251 OFFCURVE",
"978 1441 OFFCURVE",
"701 1441 CURVE SMOOTH",
"458 1441 LINE",
"480 1658 LINE",
"256 1658 LINE",
"82 0 LINE"
);
},
{
closed = 1;
nodes = (
"439 1256 LINE",
"616 1256 LINE SMOOTH",
"789 1256 OFFCURVE",
"850 1179 OFFCURVE",
"828 963 CURVE SMOOTH",
"803 729 OFFCURVE",
"712 660 OFFCURVE",
"528 660 CURVE SMOOTH",
"376 660 LINE"
);
}
);
width = 1031;
}
);
unicode = 00DE;
userData = {
com.fontlab.hintData = {
hhints = (
{
position = 528;
width = 60;
},
{
position = 1389;
width = 59;
}
);
};
};
},
{
glyphname = Q;
lastChange = "2016-08-02 09:50:01 +0000";
layers = (
{
layerId = "6D1B020D-7C4E-4885-9208-B35BA480FE8F";
paths = (
{
closed = 1;
nodes = (
"862 -258 LINE",
"810 -212 OFFCURVE",
"684 -74 OFFCURVE",
"639 -3 CURVE",
"852 52 OFFCURVE",
"934 236 OFFCURVE",
"959 469 CURVE SMOOTH",
"1036 1196 LINE SMOOTH",
"1065 1477 OFFCURVE",
"983 1677 OFFCURVE",
"669 1677 CURVE SMOOTH",
"354 1677 OFFCURVE",
"231 1478 OFFCURVE",
"202 1196 CURVE SMOOTH",
"125 472 LINE SMOOTH",
"96 188 OFFCURVE",
"166 -22 OFFCURVE",
"490 -22 CURVE SMOOTH",
"512 -22 OFFCURVE",
"531 -21 OFFCURVE",
"550 -20 CURVE",
"620 -133 OFFCURVE",
"732 -263 OFFCURVE",
"798 -318 CURVE"
);
},
{
closed = 1;
nodes = (
"261 70 OFFCURVE",
"212 222 OFFCURVE",
"236 447 CURVE SMOOTH",
"316 1212 LINE SMOOTH",
"340 1438 OFFCURVE",
"421 1586 OFFCURVE",
"660 1586 CURVE SMOOTH",
"898 1586 OFFCURVE",
"948 1437 OFFCURVE",
"924 1212 CURVE SMOOTH",
"844 447 LINE SMOOTH",
"820 222 OFFCURVE",
"738 70 OFFCURVE",
"500 70 CURVE SMOOTH"
);
}
);
width = 1072;
},
{
associatedMasterId = "6D1B020D-7C4E-4885-9208-B35BA480FE8F";
layerId = "DEB91395-C8F1-45AF-93FF-A048D9D4D129";
name = b;
width = 1058;
},
{
layerId = "BF03A18F-065F-4249-8E16-486B9CB494A0";
paths = (
{
closed = 1;
nodes = (
"1053 -152 LINE",
"999 -113 OFFCURVE",
"912 -28 OFFCURVE",
"864 39 CURVE",
"1027 124 OFFCURVE",
"1104 292 OFFCURVE",
"1128 523 CURVE SMOOTH",
"1192 1135 LINE SMOOTH",
"1229 1481 OFFCURVE",
"1119 1683 OFFCURVE",
"736 1683 CURVE SMOOTH",
"353 1683 OFFCURVE",
"206 1482 OFFCURVE",
"169 1135 CURVE SMOOTH",
"105 523 LINE SMOOTH",
"68 177 OFFCURVE",
"173 -25 OFFCURVE",
"556 -25 CURVE SMOOTH",
"568 -25 OFFCURVE",
"580 -25 OFFCURVE",
"590 -24 CURVE",
"665 -161 OFFCURVE",
"817 -307 OFFCURVE",
"899 -342 CURVE"
);
},
{
closed = 1;
nodes = (
"489 252 OFFCURVE",
"496 347 OFFCURVE",
"504 422 CURVE SMOOTH",
"590 1237 LINE SMOOTH",
"597 1312 OFFCURVE",
"610 1406 OFFCURVE",
"707 1406 CURVE SMOOTH",
"804 1406 OFFCURVE",
"800 1312 OFFCURVE",
"792 1237 CURVE SMOOTH",
"707 422 LINE SMOOTH",
"699 347 OFFCURVE",
"683 252 OFFCURVE",
"586 252 CURVE SMOOTH"
);
}
);
width = 1222;
},
{
layerId = "43161617-4660-4075-B14A-1D8E25AEE542";
paths = (
{
closed = 1;
nodes = (
"929 -242 LINE",
"881 -202 OFFCURVE",
"764 -74 OFFCURVE",
"712 19 CURVE",
"898 92 OFFCURVE",
"984 272 OFFCURVE",
"1009 516 CURVE SMOOTH",
"1076 1151 LINE SMOOTH",
"1110 1474 OFFCURVE",
"1012 1675 OFFCURVE",
"679 1675 CURVE SMOOTH",
"345 1675 OFFCURVE",
"207 1477 OFFCURVE",
"173 1151 CURVE SMOOTH",
"106 517 LINE SMOOTH",
"72 190 OFFCURVE",
"165 -18 OFFCURVE",
"501 -18 CURVE SMOOTH",
"515 -18 OFFCURVE",
"529 -18 OFFCURVE",
"542 -17 CURVE",
"605 -129 OFFCURVE",
"721 -274 OFFCURVE",
"806 -338 CURVE"
);
},
{
closed = 1;
nodes = (
"331 158 OFFCURVE",
"307 281 OFFCURVE",
"327 468 CURVE SMOOTH",
"403 1197 LINE SMOOTH",
"423 1384 OFFCURVE",
"472 1500 OFFCURVE",
"662 1500 CURVE SMOOTH",
"851 1500 OFFCURVE",
"875 1383 OFFCURVE",
"855 1197 CURVE SMOOTH",
"779 468 LINE SMOOTH",
"759 281 OFFCURVE",
"710 158 OFFCURVE",
"520 158 CURVE SMOOTH"
);
}
);
width = 1104;
}
);
unicode = 0051;
userData = {
com.fontlab.hintData = {
hhints = (
{
position = -41;
width = 20;
},
{
position = -24;
width = 56;
},
{
position = 1623;
width = 55;
}
);
};
com.typemytype.robofont.layerData = {
b = {
anchors = (
);
components = (
);
contours = (
);
lib = {
};
name = Q;
unicodes = (
);
width = 1058;
};
};
};
},
{
glyphname = R;
lastChange = "2016-08-02 09:50:01 +0000";
layers = (
{
layerId = "6D1B020D-7C4E-4885-9208-B35BA480FE8F";
paths = (
{
closed = 1;
nodes = (
"222 0 LINE",
"310 836 LINE",
"618 836 LINE",
"789 0 LINE",
"900 0 LINE",
"722 857 LINE",
"927 889 OFFCURVE",
"989 1063 OFFCURVE",
"1009 1250 CURVE SMOOTH",
"1033 1478 OFFCURVE",
"980 1658 OFFCURVE",
"687 1658 CURVE SMOOTH",
"284 1658 LINE",
"110 0 LINE"
);
},
{
closed = 1;
nodes = (
"387 1570 LINE",
"671 1570 LINE SMOOTH",
"879 1570 OFFCURVE",
"921 1460 OFFCURVE",
"900 1250 CURVE",
"878 1046 OFFCURVE",
"817 921 OFFCURVE",
"604 921 CURVE SMOOTH",
"319 921 LINE"
);
}
);
width = 1041;
},
{
layerId = "BF03A18F-065F-4249-8E16-486B9CB494A0";
paths = (
{
closed = 1;
nodes = (
"470 0 LINE",
"547 734 LINE",
"634 734 LINE",
"756 0 LINE",
"1158 0 LINE",
"986 794 LINE",
"1162 879 OFFCURVE",
"1232 1014 OFFCURVE",
"1253 1220 CURVE SMOOTH",
"1291 1577 OFFCURVE",
"1065 1658 OFFCURVE",
"732 1658 CURVE SMOOTH",
"244 1658 LINE",
"70 0 LINE"
);
},
{
closed = 1;
nodes = (
"616 1394 LINE",
"740 1394 LINE SMOOTH",
"863 1394 OFFCURVE",
"893 1309 OFFCURVE",
"879 1178 CURVE",
"866 1049 OFFCURVE",
"819 955 OFFCURVE",
"673 955 CURVE SMOOTH",
"570 955 LINE"
);
}
);
width = 1248;
},
{
layerId = "43161617-4660-4075-B14A-1D8E25AEE542";
paths = (
{
closed = 1;
nodes = (
"306 0 LINE",
"389 782 LINE",
"576 782 LINE",
"714 0 LINE",
"931 0 LINE",
"780 833 LINE",
"934 880 OFFCURVE",
"1008 1027 OFFCURVE",
"1029 1221 CURVE SMOOTH",
"1061 1531 OFFCURVE",
"923 1658 OFFCURVE",
"595 1658 CURVE SMOOTH",
"256 1658 LINE",
"82 0 LINE"
);
},
{
closed = 1;
nodes = (
"464 1497 LINE",
"577 1497 LINE SMOOTH",
"788 1497 OFFCURVE",
"833 1417 OFFCURVE",
"813 1221 CURVE",
"790 1007 OFFCURVE",
"703 942 OFFCURVE",
"505 942 CURVE SMOOTH",
"406 942 LINE"
);
}
);
width = 1061;
}
);
unicode = 0052;
userData = {
com.fontlab.hintData = {
hhints = (
{
position = 860;
width = 52;
},
{
position = 1602;
width = 56;
}
);
};
};
},
{
glyphname = S;
lastChange = "2016-08-02 09:50:01 +0000";
layers = (
{
layerId = "6D1B020D-7C4E-4885-9208-B35BA480FE8F";
paths = (
{
closed = 1;
nodes = (
"658 -21 OFFCURVE",
"825 95 OFFCURVE",
"851 344 CURVE SMOOTH",
"869 521 OFFCURVE",
"771 668 OFFCURVE",
"653 799 CURVE SMOOTH",
"384 1094 LINE SMOOTH",
"303 1186 OFFCURVE",
"280 1261 OFFCURVE",
"289 1345 CURVE SMOOTH",
"307 1514 OFFCURVE",
"427 1585 OFFCURVE",
"580 1587 CURVE SMOOTH",
"778 1591 OFFCURVE",
"836 1472 OFFCURVE",
"831 1239 CURVE",
"928 1261 LINE",
"941 1575 OFFCURVE",
"813 1678 OFFCURVE",
"585 1677 CURVE SMOOTH",
"369 1676 OFFCURVE",
"210 1557 OFFCURVE",
"186 1337 CURVE SMOOTH",
"175 1229 OFFCURVE",
"206 1124 OFFCURVE",
"298 1022 CURVE SMOOTH",
"570 720 LINE SMOOTH",
"691 585 OFFCURVE",
"761 483 OFFCURVE",
"746 338 CURVE SMOOTH",
"726 148 OFFCURVE",
"616 71 OFFCURVE",
"452 71 CURVE SMOOTH",
"236 71 OFFCURVE",
"192 221 OFFCURVE",
"187 440 CURVE",
"85 409 LINE",
"79 147 OFFCURVE",
"179 -21 OFFCURVE",
"441 -21 CURVE SMOOTH"
);
}
);
width = 926;
},
{
layerId = "BF03A18F-065F-4249-8E16-486B9CB494A0";
paths = (
{
closed = 1;
nodes = (
"788 -25 OFFCURVE",
"978 164 OFFCURVE",
"1003 397 CURVE SMOOTH",
"1028 631 OFFCURVE",
"926 773 OFFCURVE",
"794 902 CURVE SMOOTH",
"700 994 LINE SMOOTH",
"627 1066 OFFCURVE",
"543 1137 OFFCURVE",
"557 1277 CURVE SMOOTH",
"562 1320 OFFCURVE",
"591 1394 OFFCURVE",
"650 1394 CURVE SMOOTH",
"726 1395 OFFCURVE",
"719 1309 OFFCURVE",
"704 1166 CURVE",
"1055 1202 LINE",
"1071 1372 OFFCURVE",
"1071 1684 OFFCURVE",
"693 1683 CURVE SMOOTH",
"396 1683 OFFCURVE",
"193 1525 OFFCURVE",
"164 1237 CURVE SMOOTH",
"140 1012 OFFCURVE",
"238 898 OFFCURVE",
"355 788 CURVE SMOOTH",
"456 693 LINE SMOOTH",
"561 594 OFFCURVE",
"620 515 OFFCURVE",
"606 378 CURVE SMOOTH",
"601 339 OFFCURVE",
"589 276 OFFCURVE",
"523 276 CURVE SMOOTH",
"453 276 OFFCURVE",
"409 333 OFFCURVE",
"432 556 CURVE",
"87 511 LINE",
"56 120 OFFCURVE",
"195 -25 OFFCURVE",
"515 -25 CURVE SMOOTH"
);
}
);
width = 1065;
},
{
layerId = "43161617-4660-4075-B14A-1D8E25AEE542";
paths = (
{
closed = 1;
nodes = (
"699 -18 OFFCURVE",
"878 128 OFFCURVE",
"904 375 CURVE SMOOTH",
"925 580 OFFCURVE",
"827 725 OFFCURVE",
"714 839 CURVE SMOOTH",
"459 1088 LINE SMOOTH",
"390 1159 OFFCURVE",
"364 1216 OFFCURVE",
"373 1315 CURVE SMOOTH",
"386 1439 OFFCURVE",
"463 1493 OFFCURVE",
"582 1500 CURVE SMOOTH",
"756 1511 OFFCURVE",
"781 1362 OFFCURVE",
"774 1194 CURVE",
"969 1246 LINE",
"974 1538 OFFCURVE",
"866 1678 OFFCURVE",
"599 1675 CURVE SMOOTH",
"362 1672 OFFCURVE",
"196 1535 OFFCURVE",
"171 1294 CURVE SMOOTH",
"153 1131 OFFCURVE",
"196 1028 OFFCURVE",
"293 930 CURVE SMOOTH",
"546 680 LINE SMOOTH",
"640 583 OFFCURVE",
"710 506 OFFCURVE",
"694 357 CURVE SMOOTH",
"681 226 OFFCURVE",
"608 158 OFFCURVE",
"486 158 CURVE SMOOTH",
"306 158 OFFCURVE",
"277 335 OFFCURVE",
"284 515 CURVE",
"79 461 LINE",
"66 176 OFFCURVE",
"180 -18 OFFCURVE",
"467 -18 CURVE SMOOTH"
);
}
);
width = 966;
}
);
unicode = 0053;
userData = {
com.fontlab.hintData = {
hhints = (
{
position = -23;
width = 56;
},
{
position = 1625;
width = 53;
}
);
vhints = (
{
position = 88;
width = 57;
},
{
position = 856;
width = 54;
}
);
};
};
},
{
glyphname = T;
lastChange = "2016-08-02 09:50:01 +0000";
layers = (
{
layerId = "6D1B020D-7C4E-4885-9208-B35BA480FE8F";
paths = (
{
closed = 1;
nodes = (
"407 0 LINE",
"571 1569 LINE",
"915 1569 LINE",
"925 1658 LINE",
"118 1658 LINE",
"108 1569 LINE",
"459 1569 LINE",
"294 0 LINE"
);
}
);
width = 779;
},
{
layerId = "BF03A18F-065F-4249-8E16-486B9CB494A0";
paths = (
{
closed = 1;
nodes = (
"619 0 LINE",
"762 1363 LINE",
"1006 1363 LINE",
"1037 1658 LINE",
"150 1658 LINE",
"119 1363 LINE",
"363 1363 LINE",
"220 0 LINE"
);
}
);
width = 938;
},
{
layerId = "43161617-4660-4075-B14A-1D8E25AEE542";
paths = (
{
closed = 1;
nodes = (
"477 0 LINE",
"634 1492 LINE",
"930 1492 LINE",
"947 1658 LINE",
"122 1658 LINE",
"105 1492 LINE",
"410 1492 LINE",
"254 0 LINE"
);
}
);
width = 817;
}
);
unicode = 0054;
},
{
glyphname = Tbar;
lastChange = "2016-08-02 09:50:01 +0000";
layers = (
{
components = (
{
name = T;
}
);
layerId = "6D1B020D-7C4E-4885-9208-B35BA480FE8F";
paths = (
{
closed = 1;
nodes = (
"721 854 LINE",
"728 929 LINE",
"129 929 LINE",
"121 854 LINE"
);
}
);
width = 779;
},
{
components = (
{
name = T;
transform = "{1, 0, 0, 1, -38, 0}";
}
);
layerId = "BF03A18F-065F-4249-8E16-486B9CB494A0";
paths = (
{
closed = 1;
nodes = (
"878 745 LINE",
"897 933 LINE",
"141 933 LINE",
"121 745 LINE"
);
}
);
width = 938;
},
{
components = (
{
name = T;
}
);
layerId = "43161617-4660-4075-B14A-1D8E25AEE542";
paths = (
{
closed = 1;
nodes = (
"725 805 LINE",
"739 932 LINE",
"91 932 LINE",
"77 805 LINE"
);
}
);
width = 817;
}
);
unicode = 0166;
},
{
glyphname = U;
lastChange = "2016-08-02 09:50:01 +0000";
layers = (
{
layerId = "6D1B020D-7C4E-4885-9208-B35BA480FE8F";
paths = (
{
closed = 1;
nodes = (
"811 -22 OFFCURVE",
"932 155 OFFCURVE",
"957 389 CURVE SMOOTH",
"1090 1658 LINE",
"981 1658 LINE",
"847 387 LINE SMOOTH",
"828 206 OFFCURVE",
"738 70 OFFCURVE",
"511 70 CURVE SMOOTH",
"272 70 OFFCURVE",
"222 204 OFFCURVE",
"241 387 CURVE SMOOTH",
"375 1658 LINE",
"266 1658 LINE",
"133 389 LINE SMOOTH",
"108 155 OFFCURVE",
"177 -22 OFFCURVE",
"501 -22 CURVE SMOOTH"
);
}
);
width = 1092;
},
{
layerId = "BF03A18F-065F-4249-8E16-486B9CB494A0";
paths = (
{
closed = 1;
nodes = (
"945 -25 OFFCURVE",
"1082 156 OFFCURVE",
"1118 504 CURVE SMOOTH",
"1239 1658 LINE",
"841 1658 LINE",
"714 439 LINE SMOOTH",
"705 360 OFFCURVE",
"688 260 OFFCURVE",
"590 260 CURVE SMOOTH",
"492 260 OFFCURVE",
"495 360 OFFCURVE",
"503 439 CURVE SMOOTH",
"631 1658 LINE",
"234 1658 LINE",
"113 504 LINE SMOOTH",
"77 156 OFFCURVE",
"174 -25 OFFCURVE",
"559 -25 CURVE SMOOTH"
);
}
);
width = 1225;
},
{
layerId = "43161617-4660-4075-B14A-1D8E25AEE542";
paths = (
{
closed = 1;
nodes = (
"863 -18 OFFCURVE",
"968 208 OFFCURVE",
"1004 548 CURVE SMOOTH",
"1121 1658 LINE",
"908 1658 LINE",
"790 538 LINE SMOOTH",
"768 326 OFFCURVE",
"721 158 OFFCURVE",
"525 158 CURVE SMOOTH",
"326 158 OFFCURVE",
"314 326 OFFCURVE",
"337 538 CURVE SMOOTH",
"454 1658 LINE",
"242 1658 LINE",
"125 548 LINE SMOOTH",
"89 208 OFFCURVE",
"146 -18 OFFCURVE",
"506 -18 CURVE SMOOTH"
);
}
);
width = 1112;
}
);
unicode = 0055;
userData = {
com.fontlab.hintData = {
hhints = (
{
position = -24;
width = 56;
}
);
};
};
},
{
glyphname = V;
lastChange = "2016-08-02 09:50:01 +0000";
layers = (
{
layerId = "6D1B020D-7C4E-4885-9208-B35BA480FE8F";
paths = (
{
closed = 1;
nodes = (
"513 0 LINE",
"1065 1658 LINE",
"957 1658 LINE",
"480 195 LINE",
"291 1658 LINE",
"182 1658 LINE",
"407 0 LINE"
);
}
);
width = 984;
},
{
layerId = "BF03A18F-065F-4249-8E16-486B9CB494A0";
paths = (
{
closed = 1;
nodes = (
"703 0 LINE",
"1164 1658 LINE",
"803 1658 LINE",
"542 558 LINE",
"500 1658 LINE",
"164 1658 LINE",
"272 0 LINE"
);
}
);
width = 1077;
},
{
layerId = "43161617-4660-4075-B14A-1D8E25AEE542";
paths = (
{
closed = 1;
nodes = (
"567 0 LINE",
"1109 1658 LINE",
"904 1658 LINE",
"521 422 LINE",
"383 1658 LINE",
"174 1658 LINE",
"371 0 LINE"
);
}
);
width = 1032;
}
);
unicode = 0056;
},
{
glyphname = W;
lastChange = "2016-08-02 09:50:01 +0000";
layers = (
{
layerId = "6D1B020D-7C4E-4885-9208-B35BA480FE8F";
paths = (
{
closed = 1;
nodes = (
"412 0 LINE",
"842 1453 LINE",
"971 0 LINE",
"1065 0 LINE",
"1509 1658 LINE",
"1411 1658 LINE",
"1038 219 LINE",
"913 1621 LINE",
"805 1621 LINE",
"391 220 LINE",
"299 1658 LINE",
"200 1657 LINE",
"316 0 LINE"
);
}
);
width = 1446;
},
{
layerId = "BF03A18F-065F-4249-8E16-486B9CB494A0";
paths = (
{
closed = 1;
nodes = (
"542 0 LINE",
"751 946 LINE",
"771 0 LINE",
"1127 0 LINE",
"1484 1658 LINE",
"1148 1658 LINE",
"973 756 LINE",
"957 1658 LINE",
"695 1658 LINE",
"499 748 LINE",
"515 1658 LINE",
"176 1658 LINE",
"183 0 LINE"
);
}
);
width = 1413;
},
{
layerId = "43161617-4660-4075-B14A-1D8E25AEE542";
paths = (
{
closed = 1;
nodes = (
"467 0 LINE",
"834 1242 LINE",
"938 0 LINE",
"1101 0 LINE",
"1542 1658 LINE",
"1358 1658 LINE",
"1055 446 LINE",
"953 1651 LINE",
"794 1651 LINE",
"441 450 LINE",
"387 1658 LINE",
"198 1658 LINE",
"296 0 LINE"
);
}
);
width = 1490;
}
);
unicode = 0057;
},
{
glyphname = X;
lastChange = "2016-08-02 09:50:01 +0000";
layers = (
{
layerId = "6D1B020D-7C4E-4885-9208-B35BA480FE8F";
paths = (
{
closed = 1;
nodes = (
"99 0 LINE",
"483 746 LINE",
"746 0 LINE",
"853 0 LINE",
"556 843 LINE",
"1021 1659 LINE",
"909 1659 LINE",
"518 951 LINE",
"267 1659 LINE",
"164 1659 LINE",
"444 862 LINE",
"-12 0 LINE"
);
}
);
width = 926;
},
{
layerId = "BF03A18F-065F-4249-8E16-486B9CB494A0";
paths = (
{
closed = 1;
nodes = (
"285 0 LINE",
"500 463 LINE",
"636 0 LINE",
"1010 0 LINE",
"782 785 LINE",
"1150 1658 LINE",
"821 1658 LINE",
"651 1242 LINE",
"530 1658 LINE",
"150 1658 LINE",
"373 900 LINE",
"-40 0 LINE"
);
}
);
width = 1066;
},
{
layerId = "43161617-4660-4075-B14A-1D8E25AEE542";
paths = (
{
closed = 1;
nodes = (
"187 0 LINE",
"492 632 LINE",
"699 0 LINE",
"908 0 LINE",
"631 849 LINE",
"1066 1658 LINE",
"857 1658 LINE",
"560 1065 LINE",
"365 1658 LINE",
"158 1658 LINE",
"416 868 LINE",
"-22 0 LINE"
);
}
);
width = 984;
}
);
unicode = 0058;
},
{
glyphname = Y;
lastChange = "2016-08-02 09:50:01 +0000";
layers = (
{
layerId = "6D1B020D-7C4E-4885-9208-B35BA480FE8F";
paths = (
{
closed = 1;
nodes = (
"492 0 LINE",
"548 530 LINE",
"1036 1658 LINE",
"922 1658 LINE",
"508 663 LINE",
"287 1658 LINE",
"173 1658 LINE",
"436 530 LINE",
"381 0 LINE"
);
}
);
width = 946;
},
{
layerId = "BF03A18F-065F-4249-8E16-486B9CB494A0";
paths = (
{
closed = 1;
nodes = (
"652 0 LINE",
"726 701 LINE",
"1126 1658 LINE",
"765 1658 LINE",
"602 1200 LINE",
"515 1658 LINE",
"139 1658 LINE",
"343 701 LINE",
"269 0 LINE"
);
}
);
width = 1013;
},
{
layerId = "43161617-4660-4075-B14A-1D8E25AEE542";
paths = (
{
closed = 1;
nodes = (
"551 0 LINE",
"612 582 LINE",
"1083 1658 LINE",
"871 1658 LINE",
"533 847 LINE",
"360 1658 LINE",
"151 1658 LINE",
"398 582 LINE",
"337 0 LINE"
);
}
);
width = 983;
}
);
unicode = 0059;
},
{
glyphname = Z;
lastChange = "2016-08-02 09:50:01 +0000";
layers = (
{
layerId = "6D1B020D-7C4E-4885-9208-B35BA480FE8F";
paths = (
{
closed = 1;
nodes = (
"740 0 LINE",
"749 88 LINE",
"144 88 LINE",
"905 1589 LINE",
"912 1658 LINE",
"249 1658 LINE",
"239 1570 LINE",
"783 1570 LINE",
"31 88 LINE",
"21 0 LINE"
);
}
);
width = 822;
},
{
layerId = "BF03A18F-065F-4249-8E16-486B9CB494A0";
paths = (
{
closed = 1;
nodes = (
"790 0 LINE",
"818 267 LINE",
"425 267 LINE",
"935 1428 LINE",
"959 1658 LINE",
"200 1658 LINE",
"172 1390 LINE",
"542 1390 LINE",
"37 234 LINE",
"13 0 LINE"
);
}
);
width = 895;
},
{
layerId = "43161617-4660-4075-B14A-1D8E25AEE542";
paths = (
{
closed = 1;
nodes = (
"761 0 LINE",
"778 161 LINE",
"258 161 LINE",
"924 1560 LINE",
"935 1658 LINE",
"234 1658 LINE",
"217 1497 LINE",
"680 1497 LINE",
"46 161 LINE",
"28 0 LINE"
);
}
);
width = 851;
}
);
unicode = 005A;
},
{
glyphname = a;
lastChange = "2016-08-02 09:50:01 +0000";
layers = (
{
layerId = "6D1B020D-7C4E-4885-9208-B35BA480FE8F";
paths = (
{
closed = 1;
nodes = (
"390 -19 OFFCURVE",
"491 59 OFFCURVE",
"539 157 CURVE",
"539 134 OFFCURVE",
"540 0 OFFCURVE",
"540 0 CURVE",
"633 0 LINE",
"632 22 OFFCURVE",
"645 174 OFFCURVE",
"648 206 CURVE SMOOTH",
"711 802 LINE SMOOTH",
"741 1084 OFFCURVE",
"685 1203 OFFCURVE",
"485 1203 CURVE SMOOTH",
"298 1203 OFFCURVE",
"184 1120 OFFCURVE",
"154 898 CURVE",
"154 894 OFFCURVE",
"151 870 OFFCURVE",
"151 866 CURVE",
"256 864 LINE",
"260 897 LINE SMOOTH",
"280 1085 OFFCURVE",
"378 1120 OFFCURVE",
"472 1120 CURVE SMOOTH",
"593 1120 OFFCURVE",
"629 1049 OFFCURVE",
"602 791 CURVE SMOOTH",
"593 706 LINE",
"169 517 OFFCURVE",
"82 442 OFFCURVE",
"60 240 CURVE SMOOTH",
"45 87 OFFCURVE",
"128 -19 OFFCURVE",
"271 -19 CURVE"
);
},
{
closed = 1;
nodes = (
"232 71 OFFCURVE",
"155 115 OFFCURVE",
"170 255 CURVE SMOOTH",
"189 438 OFFCURVE",
"278 476 OFFCURVE",
"584 627 CURVE",
"543 237 LINE",
"491 150 OFFCURVE",
"408 71 OFFCURVE",
"307 71 CURVE SMOOTH"
);
}
);
width = 777;
},
{
layerId = "BF03A18F-065F-4249-8E16-486B9CB494A0";
paths = (
{
closed = 1;
nodes = (
"425 -22 OFFCURVE",
"508 66 OFFCURVE",
"547 165 CURVE",
"547 158 OFFCURVE",
"557 0 OFFCURVE",
"557 0 CURVE",
"877 0 LINE",
"876 54 OFFCURVE",
"871 141 OFFCURVE",
"887 298 CURVE SMOOTH",
"946 854 LINE SMOOTH",
"967 1053 OFFCURVE",
"858 1206 OFFCURVE",
"617 1206 CURVE SMOOTH",
"348 1206 OFFCURVE",
"188 1085 OFFCURVE",
"139 818 CURVE",
"138 817 OFFCURVE",
"132 783 OFFCURVE",
"132 781 CURVE",
"464 768 LINE",
"484 861 LINE SMOOTH",
"491 901 OFFCURVE",
"506 937 OFFCURVE",
"553 937 CURVE SMOOTH",
"598 937 OFFCURVE",
"607 901 OFFCURVE",
"602 858 CURVE SMOOTH",
"589 732 LINE",
"413 662 OFFCURVE",
"81 591 OFFCURVE",
"47 270 CURVE SMOOTH",
"33 132 OFFCURVE",
"113 -18 OFFCURVE",
"303 -22 CURVE"
);
},
{
closed = 1;
nodes = (
"406 215 OFFCURVE",
"369 260 OFFCURVE",
"377 335 CURVE SMOOTH",
"386 411 OFFCURVE",
"458 532 OFFCURVE",
"573 585 CURVE",
"539 262 LINE",
"515 233 OFFCURVE",
"483 215 OFFCURVE",
"454 215 CURVE SMOOTH"
);
}
);
width = 1001;
},
{
layerId = "43161617-4660-4075-B14A-1D8E25AEE542";
paths = (
{
closed = 1;
nodes = (
"406 -17 OFFCURVE",
"493 79 OFFCURVE",
"533 174 CURVE",
"533 101 OFFCURVE",
"543 0 OFFCURVE",
"543 0 CURVE",
"736 0 LINE",
"734 71 OFFCURVE",
"735 175 OFFCURVE",
"746 279 CURVE SMOOTH",
"803 824 LINE SMOOTH",
"829 1070 OFFCURVE",
"755 1201 OFFCURVE",
"523 1201 CURVE SMOOTH",
"311 1201 OFFCURVE",
"175 1105 OFFCURVE",
"137 863 CURVE",
"135 850 OFFCURVE",
"133 834 OFFCURVE",
"131 820 CURVE",
"340 812 LINE",
"347 870 LINE SMOOTH",
"358 978 OFFCURVE",
"404 1041 OFFCURVE",
"493 1041 CURVE SMOOTH",
"596 1041 OFFCURVE",
"607 971 OFFCURVE",
"591 822 CURVE SMOOTH",
"582 737 LINE",
"308 628 OFFCURVE",
"93 545 OFFCURVE",
"62 257 CURVE SMOOTH",
"48 116 OFFCURVE",
"134 -17 OFFCURVE",
"272 -17 CURVE"
);
},
{
closed = 1;
nodes = (
"307 167 OFFCURVE",
"273 222 OFFCURVE",
"283 321 CURVE SMOOTH",
"298 471 OFFCURVE",
"429 533 OFFCURVE",
"569 607 CURVE",
"533 269 LINE",
"509 234 OFFCURVE",
"441 167 OFFCURVE",
"375 167 CURVE SMOOTH"
);
}
);
width = 866;
}
);
unicode = 0061;
userData = {
com.fontlab.hintData = {
hhints = (
{
position = -20;
width = 50;
},
{
position = 1154;
width = 50;
}
);
vhints = (
{
position = 159;
width = 61;
},
{
position = 538;
width = 50;
}
);
};
};
},
{
glyphname = ae;
lastChange = "2016-08-02 09:50:01 +0000";
layers = (
{
layerId = "6D1B020D-7C4E-4885-9208-B35BA480FE8F";
paths = (
{
closed = 1;
nodes = (
"378 -23 OFFCURVE",
"522 33 OFFCURVE",
"588 220 CURVE",
"592 38 OFFCURVE",
"701 -19 OFFCURVE",
"822 -19 CURVE SMOOTH",
"1044 -19 OFFCURVE",
"1124 119 OFFCURVE",
"1146 321 CURVE SMOOTH",
"1154 400 LINE",
"1046 400 LINE",
"1038 318 LINE SMOOTH",
"1013 91 OFFCURVE",
"915 67 OFFCURVE",
"831 67 CURVE SMOOTH",
"694 67 OFFCURVE",
"651 173 OFFCURVE",
"680 457 CURVE SMOOTH",
"697 614 LINE",
"934 692 LINE SMOOTH",
"1091 740 OFFCURVE",
"1187 810 OFFCURVE",
"1200 931 CURVE SMOOTH",
"1216 1086 OFFCURVE",
"1133 1203 OFFCURVE",
"954 1203 CURVE SMOOTH",
"847 1203 OFFCURVE",
"731 1156 OFFCURVE",
"684 1009 CURVE",
"680 1137 OFFCURVE",
"602 1203 OFFCURVE",
"485 1203 CURVE SMOOTH",
"297 1203 OFFCURVE",
"177 1102 OFFCURVE",
"154 891 CURVE",
"256 887 LINE",
"276 1072 OFFCURVE",
"375 1119 OFFCURVE",
"473 1119 CURVE SMOOTH",
"588 1119 OFFCURVE",
"633 1047 OFFCURVE",
"607 791 CURVE SMOOTH",
"593 662 LINE",
"409 600 LINE SMOOTH",
"124 502 OFFCURVE",
"78 383 OFFCURVE",
"63 240 CURVE",
"48 87 OFFCURVE",
"131 -16 OFFCURVE",
"274 -19 CURVE SMOOTH"
);
},
{
closed = 1;
nodes = (
"238 66 OFFCURVE",
"159 109 OFFCURVE",
"172 250 CURVE SMOOTH",
"182 369 OFFCURVE",
"207 443 OFFCURVE",
"429 529 CURVE SMOOTH",
"437 533 OFFCURVE",
"578 587 OFFCURVE",
"585 589 CURVE",
"570 444 LINE SMOOTH",
"539 149 OFFCURVE",
"415 66 OFFCURVE",
"309 66 CURVE SMOOTH"
);
},
{
closed = 1;
nodes = (
"715 786 LINE SMOOTH",
"742 1045 OFFCURVE",
"813 1116 OFFCURVE",
"944 1116 CURVE SMOOTH",
"1074 1116 OFFCURVE",
"1109 1028 OFFCURVE",
"1100 939 CURVE SMOOTH",
"1091 849 OFFCURVE",
"1052 802 OFFCURVE",
"922 760 CURVE SMOOTH",
"705 687 LINE"
);
}
);
width = 1227;
},
{
layerId = "BF03A18F-065F-4249-8E16-486B9CB494A0";
paths = (
{
closed = 1;
nodes = (
"441 -27 OFFCURVE",
"583 30 OFFCURVE",
"644 142 CURVE",
"661 27 OFFCURVE",
"802 -26 OFFCURVE",
"902 -26 CURVE SMOOTH",
"1121 -25 OFFCURVE",
"1257 95 OFFCURVE",
"1279 307 CURVE SMOOTH",
"1291 414 LINE",
"962 414 LINE",
"954 347 LINE SMOOTH",
"947 276 OFFCURVE",
"946 227 OFFCURVE",
"896 227 CURVE SMOOTH",
"849 227 OFFCURVE",
"850 276 OFFCURVE",
"858 361 CURVE SMOOTH",
"884 601 LINE",
"916 606 OFFCURVE",
"960 614 OFFCURVE",
"992 623 CURVE SMOOTH",
"1168 663 OFFCURVE",
"1340 741 OFFCURVE",
"1361 939 CURVE SMOOTH",
"1375 1077 OFFCURVE",
"1278 1241 OFFCURVE",
"1038 1241 CURVE SMOOTH",
"910 1241 OFFCURVE",
"794 1173 OFFCURVE",
"751 1082 CURVE",
"738 1172 OFFCURVE",
"649 1242 OFFCURVE",
"520 1242 CURVE SMOOTH",
"254 1242 OFFCURVE",
"114 1076 OFFCURVE",
"90 790 CURVE",
"438 790 LINE",
"451 915 OFFCURVE",
"484 933 OFFCURVE",
"519 933 CURVE SMOOTH",
"553 933 OFFCURVE",
"578 916 OFFCURVE",
"571 843 CURVE SMOOTH",
"554 697 LINE",
"512 689 OFFCURVE",
"449 679 OFFCURVE",
"397 667 CURVE SMOOTH",
"233 627 OFFCURVE",
"60 542 OFFCURVE",
"33 281 CURVE",
"11 75 OFFCURVE",
"151 -25 OFFCURVE",
"324 -26 CURVE SMOOTH"
);
},
{
closed = 1;
nodes = (
"355 214 OFFCURVE",
"344 284 OFFCURVE",
"348 318 CURVE SMOOTH",
"352 356 OFFCURVE",
"382 460 OFFCURVE",
"479 519 CURVE SMOOTH",
"497 530 OFFCURVE",
"518 539 OFFCURVE",
"540 546 CURVE",
"518 326 LINE SMOOTH",
"509 233 OFFCURVE",
"468 214 OFFCURVE",
"419 214 CURVE SMOOTH"
);
},
{
closed = 1;
nodes = (
"914 895 LINE SMOOTH",
"922 969 OFFCURVE",
"967 1015 OFFCURVE",
"1009 1015 CURVE SMOOTH",
"1045 1015 OFFCURVE",
"1069 983 OFFCURVE",
"1062 915 CURVE SMOOTH",
"1056 858 OFFCURVE",
"1036 823 OFFCURVE",
"1004 800 CURVE SMOOTH",
"979 778 OFFCURVE",
"938 764 OFFCURVE",
"899 759 CURVE"
);
}
);
width = 1373;
},
{
layerId = "43161617-4660-4075-B14A-1D8E25AEE542";
paths = (
{
closed = 1;
nodes = (
"428 -29 OFFCURVE",
"544 76 OFFCURVE",
"618 224 CURVE",
"622 76 OFFCURVE",
"713 -17 OFFCURVE",
"857 -17 CURVE SMOOTH",
"1091 -17 OFFCURVE",
"1205 125 OFFCURVE",
"1230 359 CURVE SMOOTH",
"1236 411 LINE",
"1024 411 LINE",
"1018 359 LINE SMOOTH",
"1005 236 OFFCURVE",
"969 151 OFFCURVE",
"876 151 CURVE SMOOTH",
"741 151 OFFCURVE",
"765 353 OFFCURVE",
"782 519 CURVE SMOOTH",
"789 580 LINE",
"942 613 LINE SMOOTH",
"1094 644 OFFCURVE",
"1256 682 OFFCURVE",
"1273 847 CURVE SMOOTH",
"1295 1062 OFFCURVE",
"1203 1201 OFFCURVE",
"986 1201 CURVE SMOOTH",
"872 1201 OFFCURVE",
"781 1140 OFFCURVE",
"731 1050 CURVE",
"715 1147 OFFCURVE",
"630 1201 OFFCURVE",
"514 1201 CURVE SMOOTH",
"297 1201 OFFCURVE",
"158 1061 OFFCURVE",
"132 841 CURVE",
"343 840 LINE",
"356 959 OFFCURVE",
"399 1037 OFFCURVE",
"497 1037 CURVE SMOOTH",
"599 1037 OFFCURVE",
"615 955 OFFCURVE",
"601 822 CURVE SMOOTH",
"585 668 LINE",
"419 624 LINE SMOOTH",
"217 569 OFFCURVE",
"89 467 OFFCURVE",
"66 257 CURVE",
"52 116 OFFCURVE",
"137 -8 OFFCURVE",
"274 -17 CURVE SMOOTH"
);
},
{
closed = 1;
nodes = (
"318 149 OFFCURVE",
"273 204 OFFCURVE",
"283 303 CURVE SMOOTH",
"294 410 OFFCURVE",
"359 468 OFFCURVE",
"471 512 CURVE SMOOTH",
"496 522 OFFCURVE",
"547 540 OFFCURVE",
"572 546 CURVE",
"560 433 LINE SMOOTH",
"540 240 OFFCURVE",
"455 149 OFFCURVE",
"377 149 CURVE SMOOTH"
);
},
{
closed = 1;
nodes = (
"813 812 LINE SMOOTH",
"827 945 OFFCURVE",
"869 1028 OFFCURVE",
"968 1028 CURVE SMOOTH",
"1064 1028 OFFCURVE",
"1089 954 OFFCURVE",
"1080 867 CURVE SMOOTH",
"1070 767 OFFCURVE",
"1018 744 OFFCURVE",
"922 724 CURVE SMOOTH",
"801 697 LINE"
);
}
);
width = 1330;
}
);
unicode = 00E6;
userData = {
com.fontlab.hintData = {
hhints = (
{
position = -20;
width = 50;
},
{
position = 1154;
width = 50;
}
);
vhints = (
{
position = 163;
width = 56;
}
);
};
};
},
{
glyphname = b;
lastChange = "2016-08-02 09:50:01 +0000";
layers = (
{
layerId = "6D1B020D-7C4E-4885-9208-B35BA480FE8F";
paths = (
{
closed = 1;
nodes = (
"611 -19 OFFCURVE",
"694 156 OFFCURVE",
"728 487 CURVE SMOOTH",
"752 714 LINE SMOOTH",
"783 1011 OFFCURVE",
"755 1203 OFFCURVE",
"537 1203 CURVE SMOOTH",
"427 1203 OFFCURVE",
"347 1141 OFFCURVE",
"297 1084 CURVE",
"357 1658 LINE",
"248 1658 LINE",
"74 0 LINE",
"183 0 LINE",
"194 98 LINE",
"230 45 OFFCURVE",
"295 -19 OFFCURVE",
"398 -19 CURVE SMOOTH"
);
},
{
closed = 1;
nodes = (
"308 66 OFFCURVE",
"242 116 OFFCURVE",
"201 173 CURVE",
"289 1008 LINE",
"336 1054 OFFCURVE",
"416 1118 OFFCURVE",
"505 1118 CURVE SMOOTH",
"658 1118 OFFCURVE",
"673 997 OFFCURVE",
"643 715 CURVE SMOOTH",
"620 484 LINE SMOOTH",
"589 195 OFFCURVE",
"541 66 OFFCURVE",
"394 66 CURVE SMOOTH"
);
}
);
width = 814;
},
{
layerId = "BF03A18F-065F-4249-8E16-486B9CB494A0";
paths = (
{
closed = 1;
nodes = (
"830 -22 OFFCURVE",
"940 104 OFFCURVE",
"963 316 CURVE SMOOTH",
"1022 880 LINE SMOOTH",
"1043 1082 OFFCURVE",
"969 1199 OFFCURVE",
"808 1206 CURVE SMOOTH",
"728 1209 OFFCURVE",
"628 1175 OFFCURVE",
"530 1098 CURVE",
"588 1658 LINE",
"227 1658 LINE",
"53 0 LINE",
"414 0 LINE",
"423 90 LINE",
"500 20 OFFCURVE",
"591 -22 OFFCURVE",
"677 -22 CURVE SMOOTH"
);
},
{
closed = 1;
nodes = (
"490 205 OFFCURVE",
"462 215 OFFCURVE",
"438 230 CURVE",
"515 962 LINE",
"544 982 OFFCURVE",
"575 995 OFFCURVE",
"596 997 CURVE SMOOTH",
"646 1004 OFFCURVE",
"668 960 OFFCURVE",
"663 912 CURVE SMOOTH",
"598 294 LINE SMOOTH",
"593 244 OFFCURVE",
"563 203 OFFCURVE",
"513 204 CURVE SMOOTH"
);
}
);
width = 1065;
},
{
layerId = "43161617-4660-4075-B14A-1D8E25AEE542";
paths = (
{
closed = 1;
nodes = (
"709 -17 OFFCURVE",
"794 213 OFFCURVE",
"821 470 CURVE SMOOTH",
"851 752 LINE SMOOTH",
"867 904 OFFCURVE",
"873 1201 OFFCURVE",
"629 1201 CURVE SMOOTH",
"527 1201 OFFCURVE",
"450 1149 OFFCURVE",
"393 1090 CURVE",
"452 1658 LINE",
"240 1658 LINE",
"66 0 LINE",
"278 0 LINE",
"287 88 LINE",
"331 33 OFFCURVE",
"393 -17 OFFCURVE",
"477 -17 CURVE SMOOTH"
);
},
{
closed = 1;
nodes = (
"387 150 OFFCURVE",
"337 174 OFFCURVE",
"299 205 CURVE",
"380 970 LINE",
"423 1003 OFFCURVE",
"478 1034 OFFCURVE",
"538 1034 CURVE SMOOTH",
"654 1034 OFFCURVE",
"655 909 OFFCURVE",
"639 752 CURVE SMOOTH",
"609 469 LINE SMOOTH",
"591 288 OFFCURVE",
"568 150 OFFCURVE",
"453 150 CURVE SMOOTH"
);
}
);
width = 910;
}
);
unicode = 0062;
userData = {
com.fontlab.hintData = {
hhints = (
{
position = -20;
width = 50;
},
{
position = 1154;
width = 50;
}
);
};
};
},
{
glyphname = c;
lastChange = "2016-08-02 09:50:01 +0000";
layers = (
{
layerId = "6D1B020D-7C4E-4885-9208-B35BA480FE8F";
paths = (
{
closed = 1;
nodes = (
"608 -19 OFFCURVE",
"657 162 OFFCURVE",
"682 399 CURVE SMOOTH",
"686 443 LINE",
"583 443 LINE",
"579 397 LINE",
"554 162 OFFCURVE",
"518 63 OFFCURVE",
"359 63 CURVE SMOOTH",
"203 63 OFFCURVE",
"178 171 OFFCURVE",
"205 429 CURVE SMOOTH",
"238 736 LINE SMOOTH",
"267 1016 OFFCURVE",
"308 1121 OFFCURVE",
"469 1121 CURVE SMOOTH",
"599 1121 OFFCURVE",
"648 1058 OFFCURVE",
"623 819 CURVE SMOOTH",
"618 772 LINE",
"721 772 LINE",
"726 820 LINE SMOOTH",
"748 1037 OFFCURVE",
"723 1203 OFFCURVE",
"477 1203 CURVE SMOOTH",
"246 1203 OFFCURVE",
"164 1071 OFFCURVE",
"128 723 CURVE SMOOTH",
"98 445 LINE SMOOTH",
"71 187 OFFCURVE",
"83 -19 OFFCURVE",
"349 -19 CURVE SMOOTH"
);
}
);
width = 768;
},
{
layerId = "BF03A18F-065F-4249-8E16-486B9CB494A0";
paths = (
{
closed = 1;
nodes = (
"700 -22 OFFCURVE",
"882 96 OFFCURVE",
"907 333 CURVE SMOOTH",
"923 492 LINE",
"571 492 LINE",
"554 321 LINE",
"545 242 OFFCURVE",
"515 225 OFFCURVE",
"477 225 CURVE SMOOTH",
"442 225 OFFCURVE",
"418 249 OFFCURVE",
"426 332 CURVE SMOOTH",
"481 853 LINE SMOOTH",
"490 936 OFFCURVE",
"519 961 OFFCURVE",
"554 961 CURVE SMOOTH",
"591 961 OFFCURVE",
"619 946 OFFCURVE",
"610 864 CURVE SMOOTH",
"595 714 LINE",
"947 714 LINE",
"961 853 LINE SMOOTH",
"987 1091 OFFCURVE",
"829 1206 OFFCURVE",
"580 1206 CURVE SMOOTH",
"329 1206 OFFCURVE",
"141 1069 OFFCURVE",
"116 828 CURVE SMOOTH",
"67 357 LINE SMOOTH",
"41 117 OFFCURVE",
"200 -22 OFFCURVE",
"451 -22 CURVE SMOOTH"
);
}
);
width = 988;
},
{
layerId = "43161617-4660-4075-B14A-1D8E25AEE542";
paths = (
{
closed = 1;
nodes = (
"635 -17 OFFCURVE",
"717 126 OFFCURVE",
"743 367 CURVE SMOOTH",
"751 446 LINE",
"559 446 LINE",
"549 354 LINE",
"535 225 OFFCURVE",
"514 140 OFFCURVE",
"402 140 CURVE SMOOTH",
"299 140 OFFCURVE",
"273 195 OFFCURVE",
"295 401 CURVE SMOOTH",
"334 771 LINE SMOOTH",
"355 975 OFFCURVE",
"383 1044 OFFCURVE",
"496 1044 CURVE SMOOTH",
"593 1044 OFFCURVE",
"616 987 OFFCURVE",
"599 828 CURVE SMOOTH",
"591 758 LINE",
"783 758 LINE",
"791 827 LINE SMOOTH",
"816 1070 OFFCURVE",
"766 1201 OFFCURVE",
"509 1201 CURVE SMOOTH",
"226 1201 OFFCURVE",
"149 1027 OFFCURVE",
"117 728 CURVE SMOOTH",
"88 453 LINE SMOOTH",
"59 171 OFFCURVE",
"91 -17 OFFCURVE",
"381 -17 CURVE SMOOTH"
);
}
);
width = 836;
}
);
unicode = 0063;
userData = {
com.fontlab.hintData = {
hhints = (
{
position = -20;
width = 50;
},
{
position = 1154;
width = 50;
}
);
};
};
},
{
glyphname = d;
lastChange = "2016-08-02 09:50:01 +0000";
layers = (
{
layerId = "6D1B020D-7C4E-4885-9208-B35BA480FE8F";
paths = (
{
closed = 1;
nodes = (
"425 -19 OFFCURVE",
"500 38 OFFCURVE",
"549 90 CURVE",
"540 0 LINE",
"648 0 LINE",
"822 1658 LINE",
"714 1658 LINE",
"654 1093 LINE",
"616 1146 OFFCURVE",
"550 1202 OFFCURVE",
"451 1203 CURVE SMOOTH",
"234 1203 OFFCURVE",
"159 1030 OFFCURVE",
"124 697 CURVE SMOOTH",
"103 486 LINE SMOOTH",
"65 126 OFFCURVE",
"124 -19 OFFCURVE",
"328 -19 CURVE SMOOTH"
);
},
{
closed = 1;
nodes = (
"203 66 OFFCURVE",
"180 190 OFFCURVE",
"210 477 CURVE SMOOTH",
"236 723 LINE SMOOTH",
"265 1000 OFFCURVE",
"308 1118 OFFCURVE",
"458 1118 CURVE SMOOTH",
"544 1118 OFFCURVE",
"608 1060 OFFCURVE",
"646 1014 CURVE",
"557 166 LINE",
"502 111 OFFCURVE",
"430 66 OFFCURVE",
"353 66 CURVE SMOOTH"
);
}
);
width = 808;
},
{
layerId = "BF03A18F-065F-4249-8E16-486B9CB494A0";
paths = (
{
closed = 1;
nodes = (
"384 -22 OFFCURVE",
"473 20 OFFCURVE",
"558 95 CURVE",
"548 0 LINE",
"909 0 LINE",
"1083 1658 LINE",
"722 1658 LINE",
"665 1111 LINE",
"601 1169 OFFCURVE",
"522 1206 OFFCURVE",
"434 1206 CURVE SMOOTH",
"265 1206 OFFCURVE",
"149 1072 OFFCURVE",
"128 866 CURVE SMOOTH",
"70 316 LINE SMOOTH",
"46 98 OFFCURVE",
"133 -22 OFFCURVE",
"303 -22 CURVE SMOOTH"
);
},
{
closed = 1;
nodes = (
"445 201 OFFCURVE",
"425 244 OFFCURVE",
"430 294 CURVE SMOOTH",
"492 888 LINE SMOOTH",
"499 946 OFFCURVE",
"527 988 OFFCURVE",
"579 988 CURVE SMOOTH",
"600 988 OFFCURVE",
"628 980 OFFCURVE",
"650 968 CURVE",
"572 228 LINE",
"542 211 OFFCURVE",
"512 201 OFFCURVE",
"492 201 CURVE SMOOTH"
);
}
);
width = 1062;
},
{
layerId = "43161617-4660-4075-B14A-1D8E25AEE542";
paths = (
{
closed = 1;
nodes = (
"412 -17 OFFCURVE",
"479 22 OFFCURVE",
"535 76 CURVE",
"527 0 LINE",
"739 0 LINE",
"913 1658 LINE",
"701 1658 LINE",
"644 1108 LINE",
"599 1158 OFFCURVE",
"537 1200 OFFCURVE",
"455 1201 CURVE SMOOTH",
"215 1201 OFFCURVE",
"142 969 OFFCURVE",
"114 695 CURVE SMOOTH",
"90 466 LINE SMOOTH",
"53 115 OFFCURVE",
"132 -18 OFFCURVE",
"334 -17 CURVE SMOOTH"
);
},
{
closed = 1;
nodes = (
"285 150 OFFCURVE",
"281 274 OFFCURVE",
"299 448 CURVE SMOOTH",
"334 777 LINE SMOOTH",
"349 921 OFFCURVE",
"387 1034 OFFCURVE",
"494 1034 CURVE SMOOTH",
"547 1034 OFFCURVE",
"593 1008 OFFCURVE",
"630 978 CURVE",
"548 198 LINE",
"499 168 OFFCURVE",
"448 150 OFFCURVE",
"405 150 CURVE SMOOTH"
);
}
);
width = 899;
}
);
unicode = 0064;
userData = {
com.fontlab.hintData = {
hhints = (
{
position = -20;
width = 50;
},
{
position = 1154;
width = 50;
}
);
};
};
},
{
glyphname = eth;
lastChange = "2016-08-02 09:50:01 +0000";
layers = (
{
layerId = "6D1B020D-7C4E-4885-9208-B35BA480FE8F";
paths = (
{
closed = 1;
nodes = (
"645 -22 OFFCURVE",
"731 161 OFFCURVE",
"768 508 CURVE SMOOTH",
"786 679 LINE SMOOTH",
"823 1031 OFFCURVE",
"772 1306 OFFCURVE",
"744 1391 CURVE",
"885 1427 LINE",
"893 1496 LINE",
"723 1452 LINE",
"656 1625 OFFCURVE",
"508 1684 OFFCURVE",
"308 1695 CURVE",
"294 1620 LINE",
"475 1603 OFFCURVE",
"586 1545 OFFCURVE",
"631 1423 CURVE",
"447 1375 LINE",
"440 1307 LINE",
"655 1364 LINE",
"682 1301 OFFCURVE",
"694 1177 OFFCURVE",
"698 1084 CURVE",
"640 1116 OFFCURVE",
"576 1139 OFFCURVE",
"502 1139 CURVE SMOOTH",
"303 1139 OFFCURVE",
"174 977 OFFCURVE",
"136 618 CURVE SMOOTH",
"119 457 LINE SMOOTH",
"87 162 OFFCURVE",
"154 -22 OFFCURVE",
"395 -22 CURVE SMOOTH"
);
},
{
closed = 1;
nodes = (
"253 66 OFFCURVE",
"198 211 OFFCURVE",
"232 527 CURVE SMOOTH",
"273 918 OFFCURVE",
"366 1052 OFFCURVE",
"517 1052 CURVE SMOOTH",
"583 1052 OFFCURVE",
"640 1025 OFFCURVE",
"693 1001 CURVE",
"695 983 OFFCURVE",
"681 687 OFFCURVE",
"670 580 CURVE SMOOTH",
"631 206 OFFCURVE",
"588 66 OFFCURVE",
"408 66 CURVE SMOOTH"
);
}
);
width = 880;
},
{
layerId = "BF03A18F-065F-4249-8E16-486B9CB494A0";
paths = (
{
closed = 1;
nodes = (
"720 -33 OFFCURVE",
"943 47 OFFCURVE",
"983 431 CURVE SMOOTH",
"1036 941 LINE SMOOTH",
"1074 1295 OFFCURVE",
"1003 1472 OFFCURVE",
"959 1546 CURVE",
"1117 1638 LINE",
"1080 1718 LINE",
"906 1614 LINE",
"832 1693 OFFCURVE",
"680 1739 OFFCURVE",
"456 1739 CURVE",
"415 1516 LINE",
"535 1516 OFFCURVE",
"615 1493 OFFCURVE",
"635 1460 CURVE",
"467 1365 LINE",
"507 1288 LINE",
"677 1386 LINE",
"697 1359 OFFCURVE",
"710 1282 OFFCURVE",
"700 1175 CURVE",
"662 1192 OFFCURVE",
"614 1203 OFFCURVE",
"557 1203 CURVE SMOOTH",
"378 1203 OFFCURVE",
"172 1065 OFFCURVE",
"146 821 CURVE SMOOTH",
"104 426 LINE SMOOTH",
"69 89 OFFCURVE",
"263 -33 OFFCURVE",
"492 -33 CURVE SMOOTH"
);
},
{
closed = 1;
nodes = (
"430 201 OFFCURVE",
"444 297 OFFCURVE",
"475 594 CURVE SMOOTH",
"508 901 OFFCURVE",
"531 978 OFFCURVE",
"621 978 CURVE SMOOTH",
"642 978 OFFCURVE",
"660 972 OFFCURVE",
"678 967 CURVE",
"611 332 LINE SMOOTH",
"603 250 OFFCURVE",
"578 201 OFFCURVE",
"517 201 CURVE SMOOTH"
);
}
);
width = 1088;
},
{
layerId = "43161617-4660-4075-B14A-1D8E25AEE542";
paths = (
{
closed = 1;
nodes = (
"695 -18 OFFCURVE",
"815 180 OFFCURVE",
"848 488 CURVE SMOOTH",
"878 767 LINE SMOOTH",
"902 1000 OFFCURVE",
"862 1271 OFFCURVE",
"816 1393 CURVE",
"1001 1442 LINE",
"1012 1551 LINE",
"771 1483 LINE",
"696 1617 OFFCURVE",
"556 1676 OFFCURVE",
"296 1678 CURVE",
"272 1539 LINE",
"465 1536 OFFCURVE",
"550 1498 OFFCURVE",
"599 1429 CURVE",
"410 1377 LINE",
"398 1267 LINE",
"648 1342 LINE",
"679 1283 OFFCURVE",
"692 1175 OFFCURVE",
"691 1067 CURVE",
"653 1103 OFFCURVE",
"593 1140 OFFCURVE",
"499 1140 CURVE SMOOTH",
"232 1140 OFFCURVE",
"153 903 OFFCURVE",
"121 599 CURVE SMOOTH",
"106 459 LINE SMOOTH",
"75 164 OFFCURVE",
"113 -18 OFFCURVE",
"412 -18 CURVE SMOOTH"
);
},
{
closed = 1;
nodes = (
"261 150 OFFCURVE",
"308 360 OFFCURVE",
"330 579 CURVE SMOOTH",
"358 845 OFFCURVE",
"410 967 OFFCURVE",
"534 967 CURVE SMOOTH",
"619 967 OFFCURVE",
"658 917 OFFCURVE",
"676 899 CURVE",
"676 895 OFFCURVE",
"636 477 OFFCURVE",
"634 457 CURVE SMOOTH",
"614 269 OFFCURVE",
"585 150 OFFCURVE",
"436 150 CURVE SMOOTH"
);
}
);
width = 959;
}
);
unicode = 00F0;
userData = {
com.fontlab.hintData = {
hhints = (
{
position = -24;
width = 54;
},
{
position = 1089;
width = 50;
},
{
position = 1655;
width = 47;
}
);
vhints = (
{
position = 658;
width = 55;
}
);
};
};
},
{
glyphname = dcroat;
lastChange = "2016-08-02 09:50:01 +0000";
layers = (
{
layerId = "6D1B020D-7C4E-4885-9208-B35BA480FE8F";
paths = (
{
closed = 1;
nodes = (
"425 -19 OFFCURVE",
"500 38 OFFCURVE",
"549 90 CURVE",
"540 0 LINE",
"648 0 LINE",
"797 1414 LINE",
"913 1414 LINE",
"920 1484 LINE",
"804 1484 LINE",
"822 1658 LINE",
"714 1658 LINE",
"696 1484 LINE",
"522 1484 LINE",
"515 1414 LINE",
"689 1414 LINE",
"654 1093 LINE",
"616 1146 OFFCURVE",
"550 1202 OFFCURVE",
"451 1203 CURVE SMOOTH",
"234 1203 OFFCURVE",
"159 1030 OFFCURVE",
"124 697 CURVE SMOOTH",
"103 486 LINE SMOOTH",
"65 126 OFFCURVE",
"124 -19 OFFCURVE",
"328 -19 CURVE SMOOTH"
);
},
{
closed = 1;
nodes = (
"203 66 OFFCURVE",
"180 190 OFFCURVE",
"210 477 CURVE SMOOTH",
"236 723 LINE SMOOTH",
"265 1000 OFFCURVE",
"308 1118 OFFCURVE",
"458 1118 CURVE SMOOTH",
"544 1118 OFFCURVE",
"608 1060 OFFCURVE",
"646 1014 CURVE",
"557 166 LINE",
"502 111 OFFCURVE",
"430 66 OFFCURVE",
"353 66 CURVE SMOOTH"
);
}
);
width = 839;
},
{
layerId = "BF03A18F-065F-4249-8E16-486B9CB494A0";
paths = (
{
closed = 1;
nodes = (
"377 -22 OFFCURVE",
"461 20 OFFCURVE",
"546 95 CURVE",
"536 0 LINE",
"897 0 LINE",
"1044 1394 LINE",
"1138 1394 LINE",
"1152 1532 LINE",
"1058 1532 LINE",
"1071 1658 LINE",
"710 1658 LINE",
"697 1532 LINE",
"413 1532 LINE",
"399 1394 LINE",
"683 1394 LINE",
"653 1111 LINE",
"589 1169 OFFCURVE",
"515 1206 OFFCURVE",
"427 1206 CURVE SMOOTH",
"258 1206 OFFCURVE",
"142 1072 OFFCURVE",
"120 866 CURVE SMOOTH",
"62 316 LINE SMOOTH",
"39 98 OFFCURVE",
"126 -22 OFFCURVE",
"296 -22 CURVE SMOOTH"
);
},
{
closed = 1;
nodes = (
"437 201 OFFCURVE",
"417 244 OFFCURVE",
"423 294 CURVE SMOOTH",
"485 888 LINE SMOOTH",
"491 946 OFFCURVE",
"520 988 OFFCURVE",
"572 988 CURVE SMOOTH",
"593 988 OFFCURVE",
"615 980 OFFCURVE",
"638 968 CURVE",
"560 228 LINE",
"530 211 OFFCURVE",
"504 201 OFFCURVE",
"485 201 CURVE SMOOTH"
);
}
);
width = 1046;
},
{
layerId = "43161617-4660-4075-B14A-1D8E25AEE542";
paths = (
{
closed = 1;
nodes = (
"412 -17 OFFCURVE",
"479 22 OFFCURVE",
"535 76 CURVE",
"527 0 LINE",
"739 0 LINE",
"885 1392 LINE",
"1006 1392 LINE",
"1018 1509 LINE",
"897 1509 LINE",
"913 1658 LINE",
"701 1658 LINE",
"685 1509 LINE",
"460 1509 LINE",
"448 1392 LINE",
"674 1392 LINE",
"644 1108 LINE",
"599 1158 OFFCURVE",
"537 1200 OFFCURVE",
"455 1201 CURVE SMOOTH",
"215 1201 OFFCURVE",
"142 969 OFFCURVE",
"114 695 CURVE SMOOTH",
"90 466 LINE SMOOTH",
"53 115 OFFCURVE",
"132 -18 OFFCURVE",
"334 -17 CURVE SMOOTH"
);
},
{
closed = 1;
nodes = (
"285 150 OFFCURVE",
"281 274 OFFCURVE",
"299 448 CURVE SMOOTH",
"334 777 LINE SMOOTH",
"349 921 OFFCURVE",
"387 1034 OFFCURVE",
"494 1034 CURVE SMOOTH",
"547 1034 OFFCURVE",
"593 1008 OFFCURVE",
"630 978 CURVE",
"548 198 LINE",
"499 168 OFFCURVE",
"448 150 OFFCURVE",
"405 150 CURVE SMOOTH"
);
}
);
width = 923;
}
);
unicode = 0111;
userData = {
com.fontlab.hintData = {
hhints = (
{
position = -20;
width = 50;
},
{
position = 1154;
width = 50;
}
);
};
};
},
{
glyphname = e;
lastChange = "2016-08-02 09:50:01 +0000";
layers = (
{
layerId = "6D1B020D-7C4E-4885-9208-B35BA480FE8F";
paths = (
{
closed = 1;
nodes = (
"574 -19 OFFCURVE",
"658 119 OFFCURVE",
"679 322 CURVE SMOOTH",
"688 400 LINE",
"581 400 LINE",
"572 312 LINE",
"548 84 OFFCURVE",
"445 63 OFFCURVE",
"359 63 CURVE SMOOTH",
"223 63 OFFCURVE",
"176 146 OFFCURVE",
"205 430 CURVE SMOOTH",
"225 619 LINE",
"709 619 LINE",
"723 732 LINE SMOOTH",
"759 1071 OFFCURVE",
"703 1203 OFFCURVE",
"482 1203 CURVE SMOOTH",
"295 1203 OFFCURVE",
"170 1125 OFFCURVE",
"130 754 CURVE SMOOTH",
"97 438 LINE SMOOTH",
"59 72 OFFCURVE",
"163 -19 OFFCURVE",
"351 -19 CURVE SMOOTH"
);
},
{
closed = 1;
nodes = (
"241 774 LINE SMOOTH",
"271 1055 OFFCURVE",
"339 1121 OFFCURVE",
"473 1121 CURVE SMOOTH",
"638 1121 OFFCURVE",
"642 987 OFFCURVE",
"620 776 CURVE SMOOTH",
"611 684 LINE",
"232 684 LINE"
);
}
);
width = 777;
},
{
layerId = "BF03A18F-065F-4249-8E16-486B9CB494A0";
paths = (
{
closed = 1;
nodes = (
"699 -22 OFFCURVE",
"872 97 OFFCURVE",
"897 334 CURVE SMOOTH",
"912 469 LINE",
"580 469 LINE",
"566 330 LINE",
"557 251 OFFCURVE",
"516 234 OFFCURVE",
"478 234 CURVE SMOOTH",
"440 234 OFFCURVE",
"414 265 OFFCURVE",
"422 344 CURVE SMOOTH",
"445 567 LINE",
"921 567 LINE",
"951 839 LINE SMOOTH",
"976 1083 OFFCURVE",
"834 1206 OFFCURVE",
"581 1206 CURVE SMOOTH",
"330 1206 OFFCURVE",
"141 1068 OFFCURVE",
"116 826 CURVE SMOOTH",
"67 358 LINE SMOOTH",
"41 117 OFFCURVE",
"200 -22 OFFCURVE",
"452 -22 CURVE SMOOTH"
);
},
{
closed = 1;
nodes = (
"475 841 LINE SMOOTH",
"484 924 OFFCURVE",
"518 950 OFFCURVE",
"553 950 CURVE SMOOTH",
"591 950 OFFCURVE",
"629 934 OFFCURVE",
"621 852 CURVE SMOOTH",
"608 732 LINE",
"463 732 LINE"
);
}
);
width = 986;
},
{
layerId = "43161617-4660-4075-B14A-1D8E25AEE542";
paths = (
{
closed = 1;
nodes = (
"624 -17 OFFCURVE",
"733 127 OFFCURVE",
"757 363 CURVE SMOOTH",
"763 411 LINE",
"556 411 LINE",
"548 338 LINE",
"535 214 OFFCURVE",
"501 140 OFFCURVE",
"401 140 CURVE SMOOTH",
"268 140 OFFCURVE",
"281 265 OFFCURVE",
"297 430 CURVE SMOOTH",
"314 590 LINE",
"782 590 LINE",
"793 687 LINE SMOOTH",
"827 1012 OFFCURVE",
"805 1201 OFFCURVE",
"513 1201 CURVE SMOOTH",
"246 1201 OFFCURVE",
"150 1046 OFFCURVE",
"117 729 CURVE SMOOTH",
"88 455 LINE SMOOTH",
"56 143 OFFCURVE",
"111 -17 OFFCURVE",
"386 -17 CURVE SMOOTH"
);
},
{
closed = 1;
nodes = (
"333 771 LINE SMOOTH",
"355 979 OFFCURVE",
"387 1044 OFFCURVE",
"495 1044 CURVE SMOOTH",
"606 1044 OFFCURVE",
"613 960 OFFCURVE",
"597 812 CURVE SMOOTH",
"587 705 LINE",
"327 705 LINE"
);
}
);
width = 856;
}
);
unicode = 0065;
userData = {
com.fontlab.hintData = {
hhints = (
{
position = -20;
width = 50;
},
{
position = 1154;
width = 50;
}
);
};
};
},
{
glyphname = f;
lastChange = "2016-08-02 09:50:01 +0000";
layers = (
{
layerId = "6D1B020D-7C4E-4885-9208-B35BA480FE8F";
paths = (
{
closed = 1;
nodes = (
"260 0 LINE",
"377 1107 LINE",
"575 1107 LINE",
"582 1184 LINE",
"384 1184 LINE",
"402 1346 LINE SMOOTH",
"415 1475 OFFCURVE",
"434 1527 OFFCURVE",
"527 1527 CURVE SMOOTH",
"553 1527 OFFCURVE",
"586 1520 OFFCURVE",
"612 1515 CURVE",
"621 1598 LINE",
"589 1607 OFFCURVE",
"548 1612 OFFCURVE",
"514 1612 CURVE SMOOTH",
"334 1612 OFFCURVE",
"309 1494 OFFCURVE",
"293 1344 CURVE",
"276 1184 LINE",
"116 1184 LINE",
"108 1107 LINE",
"268 1107 LINE",
"152 0 LINE"
);
}
);
width = 525;
},
{
layerId = "BF03A18F-065F-4249-8E16-486B9CB494A0";
paths = (
{
closed = 1;
nodes = (
"450 0 LINE",
"550 944 LINE",
"693 944 LINE",
"718 1184 LINE",
"574 1184 LINE",
"584 1278 LINE SMOOTH",
"591 1336 OFFCURVE",
"626 1354 OFFCURVE",
"668 1354 CURVE SMOOTH",
"692 1354 OFFCURVE",
"717 1348 OFFCURVE",
"735 1345 CURVE",
"763 1613 LINE",
"702 1620 OFFCURVE",
"650 1623 OFFCURVE",
"602 1623 CURVE SMOOTH",
"298 1623 OFFCURVE",
"245 1484 OFFCURVE",
"224 1278 CURVE",
"213 1184 LINE",
"107 1184 LINE",
"83 944 LINE",
"189 944 LINE",
"89 0 LINE"
);
}
);
width = 673;
},
{
layerId = "43161617-4660-4075-B14A-1D8E25AEE542";
paths = (
{
closed = 1;
nodes = (
"344 0 LINE",
"452 1026 LINE",
"634 1026 LINE",
"650 1184 LINE",
"468 1184 LINE",
"480 1287 LINE SMOOTH",
"490 1380 OFFCURVE",
"509 1441 OFFCURVE",
"595 1441 CURVE SMOOTH",
"619 1441 OFFCURVE",
"652 1433 OFFCURVE",
"675 1431 CURVE",
"692 1589 LINE",
"639 1596 OFFCURVE",
"607 1601 OFFCURVE",
"554 1601 CURVE SMOOTH",
"333 1601 OFFCURVE",
"287 1466 OFFCURVE",
"265 1252 CURVE",
"257 1184 LINE",
"114 1184 LINE",
"98 1026 LINE",
"241 1026 LINE",
"133 0 LINE"
);
}
);
width = 584;
}
);
unicode = 0066;
userData = {
com.fontlab.hintData = {
hhints = (
{
position = 1564;
width = 53;
}
);
};
};
},
{
glyphname = g;
lastChange = "2016-08-02 09:50:01 +0000";
layers = (
{
layerId = "6D1B020D-7C4E-4885-9208-B35BA480FE8F";
paths = (
{
closed = 1;
nodes = (
"531 -401 OFFCURVE",
"717 -325 OFFCURVE",
"736 -139 CURVE SMOOTH",
"752 14 OFFCURVE",
"643 83 OFFCURVE",
"455 124 CURVE SMOOTH",
"419 134 OFFCURVE",
"322 150 OFFCURVE",
"265 165 CURVE SMOOTH",
"208 177 OFFCURVE",
"170 191 OFFCURVE",
"171 206 CURVE SMOOTH",
"176 254 OFFCURVE",
"257 344 OFFCURVE",
"297 398 CURVE",
"324 386 OFFCURVE",
"375 376 OFFCURVE",
"420 376 CURVE SMOOTH",
"653 376 OFFCURVE",
"765 557 OFFCURVE",
"789 792 CURVE SMOOTH",
"795 842 OFFCURVE",
"788 941 OFFCURVE",
"773 993 CURVE",
"818 1044 OFFCURVE",
"903 1095 OFFCURVE",
"977 1113 CURVE",
"953 1195 LINE",
"923 1183 LINE",
"852 1156 OFFCURVE",
"782 1096 OFFCURVE",
"749 1045 CURVE",
"715 1124 OFFCURVE",
"650 1203 OFFCURVE",
"504 1203 CURVE SMOOTH",
"271 1203 OFFCURVE",
"152 990 OFFCURVE",
"132 795 CURVE SMOOTH",
"116 647 OFFCURVE",
"139 511 OFFCURVE",
"248 428 CURVE",
"184 363 OFFCURVE",
"83 253 OFFCURVE",
"75 173 CURVE SMOOTH",
"70 131 OFFCURVE",
"151 98 OFFCURVE",
"208 83 CURVE",
"101 30 OFFCURVE",
"-21 -72 OFFCURVE",
"-33 -192 CURVE SMOOTH",
"-47 -334 OFFCURVE",
"80 -401 OFFCURVE",
"329 -401 CURVE SMOOTH"
);
},
{
closed = 1;
nodes = (
"153 -313 OFFCURVE",
"53 -270 OFFCURVE",
"65 -166 CURVE SMOOTH",
"76 -54 OFFCURVE",
"203 25 OFFCURVE",
"277 65 CURVE",
"405 43 LINE SMOOTH",
"618 -3 OFFCURVE",
"655 -55 OFFCURVE",
"645 -142 CURVE SMOOTH",
"633 -263 OFFCURVE",
"499 -313 OFFCURVE",
"338 -313 CURVE SMOOTH"
);
},
{
closed = 1;
nodes = (
"226 456 OFFCURVE",
"219 668 OFFCURVE",
"232 795 CURVE",
"244 905 OFFCURVE",
"307 1123 OFFCURVE",
"497 1123 CURVE SMOOTH",
"686 1123 OFFCURVE",
"704 919 OFFCURVE",
"691 795 CURVE",
"677 664 OFFCURVE",
"631 456 OFFCURVE",
"428 456 CURVE SMOOTH"
);
}
);
width = 878;
},
{
layerId = "BF03A18F-065F-4249-8E16-486B9CB494A0";
paths = (
{
closed = 1;
nodes = (
"827 -353 OFFCURVE",
"940 -213 OFFCURVE",
"958 -41 CURVE SMOOTH",
"975 118 OFFCURVE",
"914 206 OFFCURVE",
"667 242 CURVE SMOOTH",
"558 259 OFFCURVE",
"456 271 OFFCURVE",
"394 282 CURVE SMOOTH",
"326 293 OFFCURVE",
"288 306 OFFCURVE",
"285 325 CURVE SMOOTH",
"283 348 OFFCURVE",
"303 377 OFFCURVE",
"331 408 CURVE",
"383 384 OFFCURVE",
"463 367 OFFCURVE",
"539 367 CURVE SMOOTH",
"813 367 OFFCURVE",
"960 523 OFFCURVE",
"986 770 CURVE SMOOTH",
"999 894 OFFCURVE",
"972 967 OFFCURVE",
"946 1006 CURVE",
"1012 1042 OFFCURVE",
"1118 1090 OFFCURVE",
"1153 1102 CURVE",
"1088 1268 LINE",
"1039 1245 LINE",
"978 1213 OFFCURVE",
"915 1160 OFFCURVE",
"864 1109 CURVE",
"813 1173 OFFCURVE",
"710 1206 OFFCURVE",
"597 1206 CURVE SMOOTH",
"333 1206 OFFCURVE",
"149 1073 OFFCURVE",
"117 766 CURVE SMOOTH",
"102 623 OFFCURVE",
"146 541 OFFCURVE",
"214 487 CURVE",
"117 417 OFFCURVE",
"29 346 OFFCURVE",
"40 244 CURVE SMOOTH",
"46 191 OFFCURVE",
"81 153 OFFCURVE",
"185 111 CURVE",
"104 54 OFFCURVE",
"2 -24 OFFCURVE",
"-9 -116 CURVE SMOOTH",
"-31 -336 OFFCURVE",
"302 -353 OFFCURVE",
"480 -353 CURVE SMOOTH"
);
},
{
closed = 1;
nodes = (
"379 -138 OFFCURVE",
"333 -109 OFFCURVE",
"339 -53 CURVE SMOOTH",
"343 -16 OFFCURVE",
"370 25 OFFCURVE",
"392 57 CURVE",
"563 33 LINE SMOOTH",
"654 20 OFFCURVE",
"688 -2 OFFCURVE",
"669 -73 CURVE SMOOTH",
"657 -121 OFFCURVE",
"607 -138 OFFCURVE",
"503 -138 CURVE SMOOTH"
);
},
{
closed = 1;
nodes = (
"468 577 OFFCURVE",
"468 649 OFFCURVE",
"483 786 CURVE",
"497 919 OFFCURVE",
"503 996 OFFCURVE",
"582 996 CURVE SMOOTH",
"661 996 OFFCURVE",
"658 938 OFFCURVE",
"643 786 CURVE",
"627 638 OFFCURVE",
"611 577 OFFCURVE",
"539 577 CURVE SMOOTH"
);
}
);
width = 1058;
},
{
layerId = "43161617-4660-4075-B14A-1D8E25AEE542";
paths = (
{
closed = 1;
nodes = (
"622 -369 OFFCURVE",
"748 -289 OFFCURVE",
"771 -75 CURVE SMOOTH",
"789 101 OFFCURVE",
"701 192 OFFCURVE",
"524 211 CURVE SMOOTH",
"517 213 OFFCURVE",
"353 227 OFFCURVE",
"342 230 CURVE SMOOTH",
"274 236 OFFCURVE",
"245 251 OFFCURVE",
"247 281 CURVE SMOOTH",
"251 313 OFFCURVE",
"283 352 OFFCURVE",
"301 378 CURVE",
"306 376 OFFCURVE",
"385 363 OFFCURVE",
"413 363 CURVE SMOOTH",
"660 363 OFFCURVE",
"758 533 OFFCURVE",
"783 773 CURVE SMOOTH",
"790 840 OFFCURVE",
"784 942 OFFCURVE",
"769 990 CURVE",
"794 1010 OFFCURVE",
"923 1056 OFFCURVE",
"978 1068 CURVE",
"940 1206 LINE",
"904 1191 LINE",
"821 1155 OFFCURVE",
"748 1090 OFFCURVE",
"732 1069 CURVE",
"700 1153 OFFCURVE",
"629 1201 OFFCURVE",
"500 1201 CURVE SMOOTH",
"281 1201 OFFCURVE",
"153 1051 OFFCURVE",
"125 780 CURVE SMOOTH",
"105 593 OFFCURVE",
"141 495 OFFCURVE",
"225 425 CURVE",
"137 353 OFFCURVE",
"79 296 OFFCURVE",
"70 209 CURVE SMOOTH",
"64 155 OFFCURVE",
"99 106 OFFCURVE",
"173 83 CURVE",
"79 36 OFFCURVE",
"-15 -53 OFFCURVE",
"-29 -183 CURVE SMOOTH",
"-46 -349 OFFCURVE",
"159 -369 OFFCURVE",
"387 -369 CURVE SMOOTH"
);
},
{
closed = 1;
nodes = (
"189 -201 OFFCURVE",
"154 -169 OFFCURVE",
"161 -100 CURVE SMOOTH",
"168 -25 OFFCURVE",
"240 38 OFFCURVE",
"271 59 CURVE",
"453 44 LINE SMOOTH",
"585 29 OFFCURVE",
"614 -9 OFFCURVE",
"607 -81 CURVE SMOOTH",
"598 -166 OFFCURVE",
"531 -201 OFFCURVE",
"403 -201 CURVE SMOOTH"
);
},
{
closed = 1;
nodes = (
"301 514 OFFCURVE",
"294 633 OFFCURVE",
"309 780 CURVE",
"327 948 OFFCURVE",
"361 1053 OFFCURVE",
"488 1053 CURVE SMOOTH",
"615 1053 OFFCURVE",
"621 943 OFFCURVE",
"604 780 CURVE",
"587 616 OFFCURVE",
"558 514 OFFCURVE",
"428 514 CURVE SMOOTH"
);
}
);
width = 890;
}
);
unicode = 0067;
userData = {
com.fontlab.hintData = {
hhints = (
{
position = -415;
width = 53;
},
{
position = 382;
width = 49;
},
{
position = 1154;
width = 50;
}
);
};
};
},
{
glyphname = gcommaaccent;
lastChange = "2016-08-02 09:50:01 +0000";
layers = (
{
layerId = "6D1B020D-7C4E-4885-9208-B35BA480FE8F";
paths = (
{
closed = 1;
nodes = (
"527 -407 OFFCURVE",
"726 -324 OFFCURVE",
"744 -150 CURVE SMOOTH",
"760 -6 OFFCURVE",
"649 57 OFFCURVE",
"448 107 CURVE SMOOTH",
"391 121 OFFCURVE",
"319 136 OFFCURVE",
"244 156 CURVE SMOOTH",
"190 170 OFFCURVE",
"147 184 OFFCURVE",
"148 193 CURVE SMOOTH",
"153 244 OFFCURVE",
"244 346 OFFCURVE",
"291 407 CURVE",
"330 389 OFFCURVE",
"373 380 OFFCURVE",
"430 380 CURVE SMOOTH",
"663 380 OFFCURVE",
"786 561 OFFCURVE",
"810 796 CURVE SMOOTH",
"816 850 OFFCURVE",
"806 945 OFFCURVE",
"790 997 CURVE",
"846 1057 OFFCURVE",
"916 1110 OFFCURVE",
"991 1129 CURVE",
"968 1201 LINE",
"937 1189 LINE",
"872 1164 OFFCURVE",
"805 1108 OFFCURVE",
"762 1045 CURVE",
"725 1120 OFFCURVE",
"657 1204 OFFCURVE",
"509 1204 CURVE SMOOTH",
"267 1204 OFFCURVE",
"142 977 OFFCURVE",
"123 797 CURVE SMOOTH",
"109 664 OFFCURVE",
"130 522 OFFCURVE",
"243 437 CURVE",
"184 374 OFFCURVE",
"68 249 OFFCURVE",
"62 169 CURVE SMOOTH",
"60 130 OFFCURVE",
"152 102 OFFCURVE",
"209 87 CURVE",
"100 31 OFFCURVE",
"-29 -73 OFFCURVE",
"-41 -185 CURVE SMOOTH",
"-55 -328 OFFCURVE",
"71 -407 OFFCURVE",
"318 -407 CURVE SMOOTH"
);
},
{
closed = 1;
nodes = (
"161 -332 OFFCURVE",
"44 -287 OFFCURVE",
"56 -176 CURVE SMOOTH",
"68 -60 OFFCURVE",
"203 20 OFFCURVE",
"286 66 CURVE",
"399 41 LINE SMOOTH",
"626 -12 OFFCURVE",
"665 -66 OFFCURVE",
"654 -156 CURVE SMOOTH",
"640 -281 OFFCURVE",
"492 -332 OFFCURVE",
"326 -332 CURVE SMOOTH"
);
},
{
closed = 1;
nodes = (
"221 451 OFFCURVE",
"216 679 OFFCURVE",
"228 800 CURVE",
"238 891 OFFCURVE",
"304 1133 OFFCURVE",
"503 1133 CURVE SMOOTH",
"701 1133 OFFCURVE",
"720 913 OFFCURVE",
"708 799 CURVE",
"696 679 OFFCURVE",
"647 451 OFFCURVE",
"434 451 CURVE SMOOTH"
);
},
{
closed = 1;
nodes = (
"707 1499 LINE",
"723 1652 LINE",
"649 1652 LINE",
"654 1696 OFFCURVE",
"679 1786 OFFCURVE",
"752 1843 CURVE",
"740 1872 LINE",
"647 1819 OFFCURVE",
"604 1751 OFFCURVE",
"591 1619 CURVE SMOOTH",
"578 1499 LINE"
);
}
);
width = 901;
},
{
layerId = "BF03A18F-065F-4249-8E16-486B9CB494A0";
paths = (
{
closed = 1;
nodes = (
"816 -355 OFFCURVE",
"933 -212 OFFCURVE",
"951 -44 CURVE SMOOTH",
"967 112 OFFCURVE",
"906 198 OFFCURVE",
"655 237 CURVE SMOOTH",
"540 255 OFFCURVE",
"445 267 OFFCURVE",
"378 279 CURVE SMOOTH",
"310 291 OFFCURVE",
"271 304 OFFCURVE",
"268 321 CURVE SMOOTH",
"266 345 OFFCURVE",
"289 377 OFFCURVE",
"320 411 CURVE",
"375 385 OFFCURVE",
"452 369 OFFCURVE",
"532 369 CURVE SMOOTH",
"806 369 OFFCURVE",
"957 525 OFFCURVE",
"983 771 CURVE SMOOTH",
"995 897 OFFCURVE",
"967 968 OFFCURVE",
"941 1007 CURVE",
"1011 1047 OFFCURVE",
"1112 1095 OFFCURVE",
"1147 1107 CURVE",
"1082 1270 LINE",
"1033 1246 LINE",
"974 1216 OFFCURVE",
"912 1163 OFFCURVE",
"858 1109 CURVE",
"806 1172 OFFCURVE",
"703 1206 OFFCURVE",
"589 1206 CURVE SMOOTH",
"321 1206 OFFCURVE",
"136 1070 OFFCURVE",
"104 766 CURVE SMOOTH",
"90 629 OFFCURVE",
"133 544 OFFCURVE",
"203 490 CURVE",
"107 421 OFFCURVE",
"15 344 OFFCURVE",
"27 242 CURVE SMOOTH",
"32 191 OFFCURVE",
"72 154 OFFCURVE",
"176 112 CURVE",
"94 55 OFFCURVE",
"-11 -24 OFFCURVE",
"-21 -113 CURVE SMOOTH",
"-44 -335 OFFCURVE",
"289 -355 OFFCURVE",
"467 -355 CURVE SMOOTH"
);
},
{
closed = 1;
nodes = (
"372 -144 OFFCURVE",
"321 -114 OFFCURVE",
"327 -56 CURVE SMOOTH",
"330 -18 OFFCURVE",
"359 24 OFFCURVE",
"385 57 CURVE",
"552 32 LINE SMOOTH",
"647 18 OFFCURVE",
"681 -5 OFFCURVE",
"662 -78 CURVE SMOOTH",
"650 -126 OFFCURVE",
"595 -144 OFFCURVE",
"489 -144 CURVE SMOOTH"
);
},
{
closed = 1;
nodes = (
"457 575 OFFCURVE",
"457 652 OFFCURVE",
"472 788 CURVE",
"485 915 OFFCURVE",
"492 998 OFFCURVE",
"574 998 CURVE SMOOTH",
"655 998 OFFCURVE",
"653 936 OFFCURVE",
"638 788 CURVE",
"623 643 OFFCURVE",
"606 575 OFFCURVE",
"531 575 CURVE SMOOTH"
);
},
{
closed = 1;
nodes = (
"825 1481 LINE",
"859 1813 LINE",
"671 1813 LINE",
"685 1939 OFFCURVE",
"769 1976 OFFCURVE",
"842 1994 CURVE",
"838 2101 LINE",
"649 2097 OFFCURVE",
"543 1977 OFFCURVE",
"519 1759 CURVE SMOOTH",
"490 1481 LINE"
);
}
);
width = 901;
},
{
layerId = "43161617-4660-4075-B14A-1D8E25AEE542";
paths = (
{
closed = 1;
nodes = (
"632 -388 OFFCURVE",
"801 -283 OFFCURVE",
"819 -112 CURVE SMOOTH",
"835 37 OFFCURVE",
"742 108 OFFCURVE",
"523 154 CURVE SMOOTH",
"445 169 OFFCURVE",
"364 184 OFFCURVE",
"292 201 CURVE SMOOTH",
"233 214 OFFCURVE",
"192 227 OFFCURVE",
"191 239 CURVE SMOOTH",
"193 280 OFFCURVE",
"260 357 OFFCURVE",
"301 408 CURVE",
"346 388 OFFCURVE",
"402 376 OFFCURVE",
"467 376 CURVE SMOOTH",
"715 376 OFFCURVE",
"848 548 OFFCURVE",
"872 787 CURVE SMOOTH",
"881 867 OFFCURVE",
"864 953 OFFCURVE",
"844 1000 CURVE",
"906 1053 OFFCURVE",
"986 1104 OFFCURVE",
"1048 1121 CURVE",
"1009 1226 LINE",
"972 1210 LINE",
"909 1183 OFFCURVE",
"843 1128 OFFCURVE",
"797 1068 CURVE",
"754 1139 OFFCURVE",
"674 1205 OFFCURVE",
"538 1205 CURVE SMOOTH",
"286 1205 OFFCURVE",
"140 1011 OFFCURVE",
"116 786 CURVE SMOOTH",
"102 652 OFFCURVE",
"131 530 OFFCURVE",
"228 457 CURVE",
"156 391 OFFCURVE",
"48 283 OFFCURVE",
"50 196 CURVE SMOOTH",
"50 152 OFFCURVE",
"123 121 OFFCURVE",
"197 96 CURVE",
"98 39 OFFCURVE",
"-23 -56 OFFCURVE",
"-34 -159 CURVE SMOOTH",
"-51 -330 OFFCURVE",
"150 -388 OFFCURVE",
"372 -388 CURVE SMOOTH"
);
},
{
closed = 1;
nodes = (
"237 -264 OFFCURVE",
"144 -225 OFFCURVE",
"154 -133 CURVE SMOOTH",
"163 -45 OFFCURVE",
"259 21 OFFCURVE",
"322 63 CURVE",
"454 38 LINE SMOOTH",
"634 -2 OFFCURVE",
"671 -44 OFFCURVE",
"657 -128 CURVE SMOOTH",
"644 -225 OFFCURVE",
"529 -264 OFFCURVE",
"385 -264 CURVE SMOOTH"
);
},
{
closed = 1;
nodes = (
"306 496 OFFCURVE",
"303 669 OFFCURVE",
"316 796 CURVE",
"327 899 OFFCURVE",
"372 1084 OFFCURVE",
"529 1084 CURVE SMOOTH",
"684 1084 OFFCURVE",
"696 921 OFFCURVE",
"683 795 CURVE",
"669 666 OFFCURVE",
"632 496 OFFCURVE",
"469 496 CURVE SMOOTH"
);
},
{
closed = 1;
nodes = (
"750 1493 LINE",
"773 1710 LINE",
"657 1710 LINE",
"665 1784 OFFCURVE",
"711 1854 OFFCURVE",
"784 1897 CURVE",
"776 1955 LINE",
"648 1919 OFFCURVE",
"582 1833 OFFCURVE",
"565 1670 CURVE SMOOTH",
"546 1493 LINE"
);
}
);
width = 901;
}
);
unicode = 0123;
userData = {
com.fontlab.hintData = {
hhints = (
{
position = -415;
width = 53;
},
{
position = 382;
width = 49;
},
{
position = 1154;
width = 50;
}
);
vhints = (
{
position = 592;
width = 97;
}
);
};
};
},
{
glyphname = h;
lastChange = "2016-08-02 09:50:01 +0000";
layers = (
{
layerId = "6D1B020D-7C4E-4885-9208-B35BA480FE8F";
paths = (
{
closed = 1;
nodes = (
"184 0 LINE",
"287 988 LINE",
"365 1064 OFFCURVE",
"456 1118 OFFCURVE",
"535 1118 CURVE SMOOTH",
"611 1118 OFFCURVE",
"654 1077 OFFCURVE",
"640 932 CURVE SMOOTH",
"541 0 LINE",
"651 0 LINE",
"750 944 LINE SMOOTH",
"770 1133 OFFCURVE",
"697 1203 OFFCURVE",
"592 1203 CURVE SMOOTH",
"483 1203 OFFCURVE",
"379 1145 OFFCURVE",
"295 1058 CURVE",
"358 1658 LINE",
"249 1658 LINE",
"75 0 LINE"
);
}
);
width = 802;
},
{
layerId = "BF03A18F-065F-4249-8E16-486B9CB494A0";
paths = (
{
closed = 1;
nodes = (
"414 0 LINE",
"510 918 LINE",
"551 942 OFFCURVE",
"585 952 OFFCURVE",
"610 953 CURVE SMOOTH",
"655 955 OFFCURVE",
"666 927 OFFCURVE",
"661 877 CURVE SMOOTH",
"569 0 LINE",
"930 0 LINE",
"1026 920 LINE SMOOTH",
"1044 1089 OFFCURVE",
"972 1206 OFFCURVE",
"827 1206 CURVE SMOOTH",
"725 1206 OFFCURVE",
"629 1174 OFFCURVE",
"528 1083 CURVE",
"588 1658 LINE",
"227 1658 LINE",
"53 0 LINE"
);
}
);
width = 1074;
},
{
layerId = "43161617-4660-4075-B14A-1D8E25AEE542";
paths = (
{
closed = 1;
nodes = (
"280 0 LINE",
"379 952 LINE",
"436 998 OFFCURVE",
"501 1034 OFFCURVE",
"554 1034 CURVE SMOOTH",
"630 1034 OFFCURVE",
"644 985 OFFCURVE",
"634 896 CURVE SMOOTH",
"540 0 LINE",
"752 0 LINE",
"853 957 LINE SMOOTH",
"866 1077 OFFCURVE",
"840 1201 OFFCURVE",
"701 1201 CURVE SMOOTH",
"583 1201 OFFCURVE",
"479 1138 OFFCURVE",
"391 1061 CURVE",
"454 1658 LINE",
"242 1658 LINE",
"68 0 LINE"
);
}
);
width = 905;
}
);
unicode = 0068;
userData = {
com.fontlab.hintData = {
hhints = (
{
position = 1154;
width = 50;
}
);
};
};
},
{
glyphname = hbar;
lastChange = "2016-08-02 09:50:01 +0000";
layers = (
{
layerId = "6D1B020D-7C4E-4885-9208-B35BA480FE8F";
paths = (
{
closed = 1;
nodes = (
"182 0 LINE",
"286 988 LINE",
"363 1064 OFFCURVE",
"454 1118 OFFCURVE",
"534 1118 CURVE SMOOTH",
"609 1118 OFFCURVE",
"653 1077 OFFCURVE",
"638 932 CURVE SMOOTH",
"540 0 LINE",
"649 0 LINE",
"749 944 LINE SMOOTH",
"769 1133 OFFCURVE",
"695 1203 OFFCURVE",
"590 1203 CURVE SMOOTH",
"482 1203 OFFCURVE",
"378 1145 OFFCURVE",
"293 1058 CURVE",
"333 1436 LINE",
"575 1436 LINE",
"583 1506 LINE",
"340 1506 LINE",
"356 1658 LINE",
"247 1658 LINE",
"232 1506 LINE",
"98 1506 LINE",
"90 1436 LINE",
"224 1436 LINE",
"73 0 LINE"
);
}
);
width = 801;
},
{
layerId = "BF03A18F-065F-4249-8E16-486B9CB494A0";
paths = (
{
closed = 1;
nodes = (
"416 0 LINE",
"512 918 LINE",
"552 942 OFFCURVE",
"586 952 OFFCURVE",
"611 953 CURVE SMOOTH",
"657 955 OFFCURVE",
"668 927 OFFCURVE",
"662 877 CURVE SMOOTH",
"570 0 LINE",
"931 0 LINE",
"1028 920 LINE SMOOTH",
"1046 1089 OFFCURVE",
"974 1206 OFFCURVE",
"829 1206 CURVE SMOOTH",
"727 1206 OFFCURVE",
"631 1174 OFFCURVE",
"530 1083 CURVE",
"559 1365 LINE",
"797 1365 LINE",
"813 1525 LINE",
"576 1525 LINE",
"590 1658 LINE",
"229 1658 LINE",
"215 1525 LINE",
"128 1525 LINE",
"111 1365 LINE",
"198 1365 LINE",
"55 0 LINE"
);
}
);
width = 1076;
},
{
layerId = "43161617-4660-4075-B14A-1D8E25AEE542";
paths = (
{
closed = 1;
nodes = (
"279 0 LINE",
"379 952 LINE",
"436 998 OFFCURVE",
"500 1034 OFFCURVE",
"553 1034 CURVE SMOOTH",
"630 1034 OFFCURVE",
"643 985 OFFCURVE",
"634 896 CURVE SMOOTH",
"540 0 LINE",
"752 0 LINE",
"853 957 LINE SMOOTH",
"865 1077 OFFCURVE",
"839 1201 OFFCURVE",
"701 1201 CURVE SMOOTH",
"582 1201 OFFCURVE",
"478 1138 OFFCURVE",
"391 1061 CURVE",
"428 1416 LINE",
"677 1416 LINE",
"690 1535 LINE",
"441 1535 LINE",
"453 1658 LINE",
"241 1658 LINE",
"229 1535 LINE",
"100 1535 LINE",
"87 1416 LINE",
"216 1416 LINE",
"67 0 LINE"
);
}
);
width = 905;
}
);
unicode = 0127;
userData = {
com.fontlab.hintData = {
hhints = (
{
position = 1154;
width = 50;
}
);
};
};
},
{
glyphname = i;
lastChange = "2016-08-02 09:50:01 +0000";
layers = (
{
layerId = "6D1B020D-7C4E-4885-9208-B35BA480FE8F";
paths = (
{
closed = 1;
nodes = (
"200 0 LINE",
"324 1184 LINE",
"216 1184 LINE",
"92 0 LINE"
);
},
{
closed = 1;
nodes = (
"342 1339 LINE",
"361 1528 LINE",
"252 1528 LINE",
"233 1339 LINE"
);
}
);
width = 388;
},
{
layerId = "BF03A18F-065F-4249-8E16-486B9CB494A0";
paths = (
{
closed = 1;
nodes = (
"413 0 LINE",
"537 1184 LINE",
"176 1184 LINE",
"52 0 LINE"
);
},
{
closed = 1;
nodes = (
"559 1389 LINE",
"584 1624 LINE",
"221 1624 LINE",
"196 1389 LINE"
);
}
);
width = 563;
},
{
layerId = "43161617-4660-4075-B14A-1D8E25AEE542";
paths = (
{
closed = 1;
nodes = (
"289 0 LINE",
"413 1184 LINE",
"201 1184 LINE",
"77 0 LINE"
);
},
{
closed = 1;
nodes = (
"433 1358 LINE",
"457 1585 LINE",
"244 1585 LINE",
"220 1358 LINE"
);
}
);
width = 463;
}
);
unicode = 0069;
},
{
glyphname = dotlessi;
lastChange = "2016-08-02 09:50:01 +0000";
layers = (
{
layerId = "6D1B020D-7C4E-4885-9208-B35BA480FE8F";
paths = (
{
closed = 1;
nodes = (
"199 0 LINE",
"323 1184 LINE",
"214 1184 LINE",
"90 0 LINE"
);
}
);
width = 372;
},
{
layerId = "BF03A18F-065F-4249-8E16-486B9CB494A0";
paths = (
{
closed = 1;
nodes = (
"431 0 LINE",
"555 1184 LINE",
"194 1184 LINE",
"70 0 LINE"
);
}
);
width = 601;
},
{
layerId = "43161617-4660-4075-B14A-1D8E25AEE542";
paths = (
{
closed = 1;
nodes = (
"289 0 LINE",
"413 1184 LINE",
"201 1184 LINE",
"77 0 LINE"
);
}
);
width = 454;
}
);
unicode = 0131;
},
{
glyphname = j;
lastChange = "2016-08-02 09:50:01 +0000";
layers = (
{
layerId = "6D1B020D-7C4E-4885-9208-B35BA480FE8F";
paths = (
{
closed = 1;
nodes = (
"106 -317 OFFCURVE",
"206 -248 OFFCURVE",
"225 -58 CURVE SMOOTH",
"356 1184 LINE",
"247 1184 LINE",
"117 -51 LINE SMOOTH",
"108 -138 OFFCURVE",
"92 -228 OFFCURVE",
"-51 -228 CURVE SMOOTH",
"-55 -228 OFFCURVE",
"-94 -227 OFFCURVE",
"-98 -226 CURVE",
"-107 -313 LINE",
"-99 -316 OFFCURVE",
"-57 -317 OFFCURVE",
"-47 -317 CURVE SMOOTH"
);
},
{
closed = 1;
nodes = (
"373 1339 LINE",
"393 1528 LINE",
"283 1528 LINE",
"264 1339 LINE"
);
}
);
width = 414;
},
{
layerId = "BF03A18F-065F-4249-8E16-486B9CB494A0";
paths = (
{
closed = 1;
nodes = (
"297 -385 OFFCURVE",
"413 -248 OFFCURVE",
"433 -60 CURVE SMOOTH",
"564 1184 LINE",
"203 1184 LINE",
"77 -16 LINE SMOOTH",
"70 -84 OFFCURVE",
"31 -105 OFFCURVE",
"-15 -105 CURVE SMOOTH",
"-34 -105 OFFCURVE",
"-54 -100 OFFCURVE",
"-73 -96 CURVE",
"-101 -356 LINE",
"-42 -372 OFFCURVE",
"21 -385 OFFCURVE",
"90 -385 CURVE SMOOTH"
);
},
{
closed = 1;
nodes = (
"586 1389 LINE",
"611 1624 LINE",
"248 1624 LINE",
"223 1389 LINE"
);
}
);
width = 589;
},
{
layerId = "43161617-4660-4075-B14A-1D8E25AEE542";
paths = (
{
closed = 1;
nodes = (
"167 -300 OFFCURVE",
"285 -201 OFFCURVE",
"305 -16 CURVE SMOOTH",
"431 1184 LINE",
"219 1184 LINE",
"95 6 LINE SMOOTH",
"86 -78 OFFCURVE",
"53 -139 OFFCURVE",
"-44 -139 CURVE SMOOTH",
"-58 -139 OFFCURVE",
"-88 -136 OFFCURVE",
"-100 -134 CURVE",
"-117 -287 LINE",
"-91 -297 OFFCURVE",
"-44 -300 OFFCURVE",
"-10 -300 CURVE SMOOTH"
);
},
{
closed = 1;
nodes = (
"451 1358 LINE",
"475 1585 LINE",
"261 1585 LINE",
"237 1358 LINE"
);
}
);
width = 468;
}
);
unicode = 006A;
userData = {
com.fontlab.hintData = {
hhints = (
{
position = -324;
width = 58;
}
);
};
};
},
{
glyphname = uni0237;
lastChange = "2016-08-02 09:50:01 +0000";
layers = (
{
layerId = "6D1B020D-7C4E-4885-9208-B35BA480FE8F";
paths = (
{
closed = 1;
nodes = (
"105 -325 OFFCURVE",
"205 -256 OFFCURVE",
"225 -66 CURVE SMOOTH",
"356 1184 LINE",
"247 1184 LINE",
"117 -58 LINE SMOOTH",
"108 -146 OFFCURVE",
"91 -235 OFFCURVE",
"-52 -235 CURVE SMOOTH",
"-56 -235 OFFCURVE",
"-95 -235 OFFCURVE",
"-99 -234 CURVE",
"-108 -321 LINE",
"-100 -324 OFFCURVE",
"-58 -325 OFFCURVE",
"-48 -325 CURVE SMOOTH"
);
}
);
width = 414;
},
{
layerId = "BF03A18F-065F-4249-8E16-486B9CB494A0";
paths = (
{
closed = 1;
nodes = (
"291 -388 OFFCURVE",
"408 -250 OFFCURVE",
"428 -63 CURVE SMOOTH",
"558 1184 LINE",
"197 1184 LINE",
"71 -18 LINE SMOOTH",
"64 -87 OFFCURVE",
"25 -108 OFFCURVE",
"-21 -108 CURVE SMOOTH",
"-40 -108 OFFCURVE",
"-60 -103 OFFCURVE",
"-79 -99 CURVE",
"-106 -358 LINE",
"-48 -375 OFFCURVE",
"15 -388 OFFCURVE",
"84 -388 CURVE SMOOTH"
);
}
);
width = 571;
},
{
layerId = "43161617-4660-4075-B14A-1D8E25AEE542";
paths = (
{
closed = 1;
nodes = (
"164 -326 OFFCURVE",
"283 -227 OFFCURVE",
"302 -42 CURVE SMOOTH",
"431 1184 LINE",
"219 1184 LINE",
"93 -20 LINE SMOOTH",
"84 -104 OFFCURVE",
"50 -165 OFFCURVE",
"-47 -165 CURVE SMOOTH",
"-62 -165 OFFCURVE",
"-91 -162 OFFCURVE",
"-103 -159 CURVE",
"-119 -313 LINE",
"-94 -323 OFFCURVE",
"-47 -326 OFFCURVE",
"-12 -326 CURVE SMOOTH"
);
}
);
width = 468;
}
);
unicode = 0237;
userData = {
com.fontlab.hintData = {
hhints = (
{
position = -324;
width = 58;
}
);
};
};
},
{
glyphname = k;
lastChange = "2016-08-02 09:50:01 +0000";
layers = (
{
layerId = "6D1B020D-7C4E-4885-9208-B35BA480FE8F";
paths = (
{
closed = 1;
nodes = (
"723 0 LINE",
"506 731 LINE",
"865 1184 LINE",
"747 1184 LINE",
"243 566 LINE",
"357 1659 LINE",
"249 1659 LINE",
"74 1 LINE",
"183 1 LINE",
"230 444 LINE",
"418 666 LINE",
"613 0 LINE"
);
}
);
width = 785;
},
{
layerId = "BF03A18F-065F-4249-8E16-486B9CB494A0";
paths = (
{
closed = 1;
nodes = (
"410 0 LINE",
"457 450 LINE",
"555 552 LINE",
"701 0 LINE",
"1102 0 LINE",
"854 694 LINE",
"1228 1184 LINE",
"817 1184 LINE",
"490 754 LINE",
"584 1658 LINE",
"227 1658 LINE",
"53 0 LINE"
);
}
);
width = 1163;
},
{
layerId = "43161617-4660-4075-B14A-1D8E25AEE542";
paths = (
{
closed = 1;
nodes = (
"819 0 LINE",
"623 720 LINE",
"952 1184 LINE",
"730 1183 LINE",
"348 665 LINE",
"453 1661 LINE",
"241 1661 LINE",
"66 3 LINE",
"278 3 LINE",
"326 454 LINE",
"448 611 LINE",
"607 0 LINE"
);
}
);
width = 872;
}
);
unicode = 006B;
},
{
glyphname = kgreenlandic;
lastChange = "2016-08-02 09:50:01 +0000";
layers = (
{
layerId = "6D1B020D-7C4E-4885-9208-B35BA480FE8F";
paths = (
{
closed = 1;
nodes = (
"197 0 LINE",
"243 440 LINE",
"413 648 LINE",
"621 0 LINE",
"732 0 LINE",
"497 721 LINE",
"850 1184 LINE",
"734 1184 LINE",
"256 565 LINE",
"321 1184 LINE",
"212 1184 LINE",
"88 0 LINE"
);
}
);
width = 841;
},
{
layerId = "BF03A18F-065F-4249-8E16-486B9CB494A0";
paths = (
{
closed = 1;
nodes = (
"408 0 LINE",
"459 483 LINE",
"505 539 LINE",
"632 0 LINE",
"1016 0 LINE",
"841 638 LINE",
"1133 1184 LINE",
"741 1184 LINE",
"482 697 LINE",
"532 1184 LINE",
"171 1184 LINE",
"47 0 LINE"
);
}
);
width = 1078;
},
{
layerId = "43161617-4660-4075-B14A-1D8E25AEE542";
paths = (
{
closed = 1;
nodes = (
"285 0 LINE",
"328 412 LINE",
"462 586 LINE",
"605 0 LINE",
"818 0 LINE",
"621 732 LINE",
"941 1184 LINE",
"727 1184 LINE",
"353 657 LINE",
"409 1184 LINE",
"197 1184 LINE",
"73 0 LINE"
);
}
);
width = 878;
}
);
unicode = 0138;
},
{
glyphname = l;
lastChange = "2016-08-02 09:50:01 +0000";
layers = (
{
layerId = "6D1B020D-7C4E-4885-9208-B35BA480FE8F";
paths = (
{
closed = 1;
nodes = (
"204 0 LINE",
"378 1658 LINE",
"269 1658 LINE",
"95 0 LINE"
);
}
);
width = 380;
},
{
layerId = "BF03A18F-065F-4249-8E16-486B9CB494A0";
paths = (
{
closed = 1;
nodes = (
"426 0 LINE",
"600 1658 LINE",
"238 1658 LINE",
"64 0 LINE"
);
}
);
width = 583;
},
{
layerId = "43161617-4660-4075-B14A-1D8E25AEE542";
paths = (
{
closed = 1;
nodes = (
"296 0 LINE",
"470 1658 LINE",
"257 1658 LINE",
"83 0 LINE"
);
}
);
width = 464;
}
);
unicode = 006C;
},
{
glyphname = lslash;
lastChange = "2016-08-02 09:50:01 +0000";
layers = (
{
layerId = "6D1B020D-7C4E-4885-9208-B35BA480FE8F";
paths = (
{
closed = 1;
nodes = (
"264 0 LINE",
"369 999 LINE",
"501 1068 LINE",
"511 1162 LINE",
"380 1093 LINE",
"438 1658 LINE",
"330 1658 LINE",
"265 1038 LINE",
"131 968 LINE",
"121 873 LINE",
"255 943 LINE",
"156 0 LINE"
);
}
);
width = 505;
},
{
layerId = "BF03A18F-065F-4249-8E16-486B9CB494A0";
paths = (
{
closed = 1;
nodes = (
"488 0 LINE",
"593 998 LINE",
"765 1068 LINE",
"785 1259 LINE",
"614 1190 LINE",
"662 1658 LINE",
"301 1658 LINE",
"236 1036 LINE",
"96 980 LINE",
"76 788 LINE",
"216 845 LINE",
"127 0 LINE"
);
}
);
width = 716;
},
{
layerId = "43161617-4660-4075-B14A-1D8E25AEE542";
paths = (
{
closed = 1;
nodes = (
"339 0 LINE",
"439 956 LINE",
"572 1017 LINE",
"589 1182 LINE",
"457 1121 LINE",
"513 1658 LINE",
"301 1658 LINE",
"234 1023 LINE",
"89 957 LINE",
"72 790 LINE",
"217 857 LINE",
"127 0 LINE"
);
}
);
width = 544;
}
);
unicode = 0142;
userData = {
com.fontlab.hintData = {
vhints = (
{
position = -6;
width = 673;
}
);
};
};
},
{
glyphname = m;
lastChange = "2016-08-02 09:50:01 +0000";
layers = (
{
layerId = "6D1B020D-7C4E-4885-9208-B35BA480FE8F";
paths = (
{
closed = 1;
nodes = (
"182 0 LINE",
"286 987 LINE",
"364 1064 OFFCURVE",
"454 1118 OFFCURVE",
"533 1118 CURVE SMOOTH",
"609 1118 OFFCURVE",
"652 1077 OFFCURVE",
"638 932 CURVE SMOOTH",
"540 0 LINE",
"649 0 LINE",
"748 938 LINE SMOOTH",
"749 954 OFFCURVE",
"750 972 OFFCURVE",
"750 985 CURVE",
"829 1063 OFFCURVE",
"920 1118 OFFCURVE",
"1000 1118 CURVE SMOOTH",
"1076 1118 OFFCURVE",
"1119 1077 OFFCURVE",
"1105 932 CURVE SMOOTH",
"1007 0 LINE",
"1116 0 LINE",
"1216 944 LINE SMOOTH",
"1235 1133 OFFCURVE",
"1162 1203 OFFCURVE",
"1057 1203 CURVE SMOOTH",
"944 1203 OFFCURVE",
"835 1140 OFFCURVE",
"749 1046 CURVE",
"737 1163 OFFCURVE",
"671 1203 OFFCURVE",
"590 1203 CURVE SMOOTH",
"482 1203 OFFCURVE",
"377 1145 OFFCURVE",
"294 1058 CURVE",
"306 1184 LINE",
"197 1184 LINE",
"73 0 LINE"
);
}
);
width = 1268;
},
{
layerId = "BF03A18F-065F-4249-8E16-486B9CB494A0";
paths = (
{
closed = 1;
nodes = (
"412 0 LINE",
"509 923 LINE",
"545 943 OFFCURVE",
"581 952 OFFCURVE",
"603 953 CURVE SMOOTH",
"648 955 OFFCURVE",
"663 927 OFFCURVE",
"657 877 CURVE SMOOTH",
"565 0 LINE",
"922 0 LINE",
"1018 918 LINE SMOOTH",
"1019 920 OFFCURVE",
"1019 923 OFFCURVE",
"1019 926 CURVE",
"1053 944 OFFCURVE",
"1090 952 OFFCURVE",
"1111 953 CURVE SMOOTH",
"1157 955 OFFCURVE",
"1169 927 OFFCURVE",
"1164 877 CURVE SMOOTH",
"1072 0 LINE",
"1431 0 LINE",
"1528 920 LINE SMOOTH",
"1546 1089 OFFCURVE",
"1474 1206 OFFCURVE",
"1329 1206 CURVE SMOOTH",
"1222 1206 OFFCURVE",
"1116 1171 OFFCURVE",
"1009 1068 CURVE",
"983 1153 OFFCURVE",
"918 1206 OFFCURVE",
"821 1206 CURVE SMOOTH",
"722 1206 OFFCURVE",
"624 1176 OFFCURVE",
"527 1092 CURVE",
"536 1184 LINE",
"177 1184 LINE",
"53 0 LINE"
);
}
);
width = 1576;
},
{
layerId = "43161617-4660-4075-B14A-1D8E25AEE542";
paths = (
{
closed = 1;
nodes = (
"274 0 LINE",
"375 958 LINE",
"430 1001 OFFCURVE",
"490 1034 OFFCURVE",
"540 1034 CURVE SMOOTH",
"617 1034 OFFCURVE",
"630 985 OFFCURVE",
"621 896 CURVE SMOOTH",
"527 0 LINE",
"739 0 LINE",
"838 936 LINE SMOOTH",
"838 939 OFFCURVE",
"839 953 OFFCURVE",
"839 956 CURVE",
"895 1000 OFFCURVE",
"956 1034 OFFCURVE",
"1007 1034 CURVE SMOOTH",
"1084 1034 OFFCURVE",
"1097 985 OFFCURVE",
"1088 896 CURVE SMOOTH",
"994 0 LINE",
"1206 0 LINE",
"1307 957 LINE SMOOTH",
"1319 1077 OFFCURVE",
"1293 1201 OFFCURVE",
"1155 1201 CURVE SMOOTH",
"1034 1201 OFFCURVE",
"928 1135 OFFCURVE",
"840 1056 CURVE",
"829 1139 OFFCURVE",
"786 1201 OFFCURVE",
"688 1201 CURVE SMOOTH",
"574 1201 OFFCURVE",
"472 1142 OFFCURVE",
"387 1068 CURVE",
"398 1184 LINE",
"187 1184 LINE",
"63 0 LINE"
);
}
);
width = 1359;
}
);
unicode = 006D;
userData = {
com.fontlab.hintData = {
hhints = (
{
position = 1154;
width = 50;
}
);
};
};
},
{
glyphname = n;
lastChange = "2016-08-02 09:50:01 +0000";
layers = (
{
layerId = "6D1B020D-7C4E-4885-9208-B35BA480FE8F";
paths = (
{
closed = 1;
nodes = (
"182 0 LINE",
"286 987 LINE",
"364 1064 OFFCURVE",
"454 1118 OFFCURVE",
"534 1118 CURVE SMOOTH",
"609 1118 OFFCURVE",
"653 1077 OFFCURVE",
"638 932 CURVE SMOOTH",
"540 0 LINE",
"650 0 LINE",
"749 944 LINE SMOOTH",
"769 1133 OFFCURVE",
"695 1203 OFFCURVE",
"590 1203 CURVE SMOOTH",
"482 1203 OFFCURVE",
"377 1145 OFFCURVE",
"293 1057 CURVE",
"306 1184 LINE",
"197 1184 LINE",
"73 0 LINE"
);
}
);
width = 801;
},
{
layerId = "BF03A18F-065F-4249-8E16-486B9CB494A0";
paths = (
{
closed = 1;
nodes = (
"414 0 LINE",
"510 919 LINE",
"550 942 OFFCURVE",
"584 952 OFFCURVE",
"608 953 CURVE SMOOTH",
"654 955 OFFCURVE",
"665 927 OFFCURVE",
"659 877 CURVE SMOOTH",
"567 0 LINE",
"929 0 LINE",
"1025 920 LINE SMOOTH",
"1043 1089 OFFCURVE",
"971 1206 OFFCURVE",
"826 1206 CURVE SMOOTH",
"724 1206 OFFCURVE",
"627 1156 OFFCURVE",
"526 1065 CURVE",
"538 1184 LINE",
"177 1184 LINE",
"53 0 LINE"
);
}
);
width = 1073;
},
{
layerId = "43161617-4660-4075-B14A-1D8E25AEE542";
paths = (
{
closed = 1;
nodes = (
"274 0 LINE",
"375 957 LINE",
"430 1000 OFFCURVE",
"490 1034 OFFCURVE",
"542 1034 CURVE SMOOTH",
"619 1034 OFFCURVE",
"632 985 OFFCURVE",
"623 896 CURVE SMOOTH",
"529 0 LINE",
"741 0 LINE",
"841 957 LINE SMOOTH",
"854 1077 OFFCURVE",
"828 1201 OFFCURVE",
"690 1201 CURVE SMOOTH",
"574 1201 OFFCURVE",
"473 1141 OFFCURVE",
"386 1067 CURVE",
"398 1184 LINE",
"187 1184 LINE",
"63 0 LINE"
);
}
);
width = 893;
}
);
unicode = 006E;
userData = {
com.fontlab.hintData = {
hhints = (
{
position = 1154;
width = 50;
}
);
};
};
},
{
glyphname = eng;
lastChange = "2016-08-02 09:50:01 +0000";
layers = (
{
layerId = "6D1B020D-7C4E-4885-9208-B35BA480FE8F";
paths = (
{
closed = 1;
nodes = (
"285 -319 LINE SMOOTH",
"458 -319 OFFCURVE",
"617 -255 OFFCURVE",
"643 -12 CURVE SMOOTH",
"743 944 LINE SMOOTH",
"763 1133 OFFCURVE",
"690 1203 OFFCURVE",
"584 1203 CURVE SMOOTH",
"476 1203 OFFCURVE",
"372 1145 OFFCURVE",
"288 1057 CURVE",
"300 1184 LINE",
"192 1184 LINE",
"68 0 LINE",
"176 0 LINE",
"280 987 LINE",
"358 1064 OFFCURVE",
"448 1118 OFFCURVE",
"528 1118 CURVE SMOOTH",
"603 1118 OFFCURVE",
"647 1077 OFFCURVE",
"633 932 CURVE SMOOTH",
"533 -10 LINE SMOOTH",
"519 -146 OFFCURVE",
"472 -231 OFFCURVE",
"268 -231 CURVE",
"259 -319 LINE"
);
}
);
width = 794;
},
{
layerId = "BF03A18F-065F-4249-8E16-486B9CB494A0";
paths = (
{
closed = 1;
nodes = (
"419 -404 LINE SMOOTH",
"770 -404 OFFCURVE",
"880 -300 OFFCURVE",
"910 -12 CURVE SMOOTH",
"1008 920 LINE SMOOTH",
"1026 1089 OFFCURVE",
"954 1206 OFFCURVE",
"809 1206 CURVE SMOOTH",
"706 1206 OFFCURVE",
"611 1174 OFFCURVE",
"510 1084 CURVE",
"520 1184 LINE",
"159 1184 LINE",
"35 0 LINE",
"396 0 LINE",
"493 919 LINE",
"532 942 OFFCURVE",
"566 952 OFFCURVE",
"591 953 CURVE SMOOTH",
"637 955 OFFCURVE",
"647 927 OFFCURVE",
"642 877 CURVE SMOOTH",
"549 -10 LINE SMOOTH",
"534 -151 OFFCURVE",
"493 -184 OFFCURVE",
"307 -184 CURVE",
"284 -404 LINE"
);
}
);
width = 1019;
},
{
layerId = "43161617-4660-4075-B14A-1D8E25AEE542";
paths = (
{
closed = 1;
nodes = (
"291 -373 LINE SMOOTH",
"520 -373 OFFCURVE",
"695 -255 OFFCURVE",
"721 -12 CURVE SMOOTH",
"823 957 LINE SMOOTH",
"835 1077 OFFCURVE",
"809 1201 OFFCURVE",
"671 1201 CURVE SMOOTH",
"556 1201 OFFCURVE",
"454 1141 OFFCURVE",
"367 1067 CURVE",
"380 1184 LINE",
"168 1184 LINE",
"44 0 LINE",
"256 0 LINE",
"356 957 LINE",
"411 1000 OFFCURVE",
"472 1034 OFFCURVE",
"523 1034 CURVE SMOOTH",
"600 1034 OFFCURVE",
"613 985 OFFCURVE",
"604 896 CURVE SMOOTH",
"509 -10 LINE SMOOTH",
"495 -146 OFFCURVE",
"449 -212 OFFCURVE",
"245 -212 CURVE",
"228 -373 LINE"
);
}
);
width = 794;
}
);
unicode = 014B;
userData = {
com.fontlab.hintData = {
hhints = (
{
position = -296;
width = 57;
},
{
position = 1154;
width = 50;
}
);
};
};
},
{
glyphname = o;
lastChange = "2016-08-02 09:50:01 +0000";
layers = (
{
layerId = "6D1B020D-7C4E-4885-9208-B35BA480FE8F";
paths = (
{
closed = 1;
nodes = (
"583 -19 OFFCURVE",
"661 135 OFFCURVE",
"693 432 CURVE SMOOTH",
"727 752 LINE SMOOTH",
"758 1048 OFFCURVE",
"712 1203 OFFCURVE",
"476 1203 CURVE SMOOTH",
"240 1203 OFFCURVE",
"162 1046 OFFCURVE",
"131 752 CURVE SMOOTH",
"97 432 LINE SMOOTH",
"65 135 OFFCURVE",
"111 -19 OFFCURVE",
"347 -19 CURVE SMOOTH"
);
},
{
closed = 1;
nodes = (
"184 63 OFFCURVE",
"181 200 OFFCURVE",
"205 428 CURVE SMOOTH",
"240 756 LINE SMOOTH",
"263 983 OFFCURVE",
"295 1121 OFFCURVE",
"467 1121 CURVE SMOOTH",
"639 1121 OFFCURVE",
"641 983 OFFCURVE",
"618 756 CURVE SMOOTH",
"584 428 LINE SMOOTH",
"560 200 OFFCURVE",
"528 63 OFFCURVE",
"356 63 CURVE SMOOTH"
);
}
);
width = 784;
},
{
layerId = "BF03A18F-065F-4249-8E16-486B9CB494A0";
paths = (
{
closed = 1;
nodes = (
"705 -22 OFFCURVE",
"901 99 OFFCURVE",
"928 355 CURVE SMOOTH",
"978 829 LINE SMOOTH",
"1005 1085 OFFCURVE",
"834 1206 OFFCURVE",
"584 1206 CURVE SMOOTH",
"335 1206 OFFCURVE",
"142 1084 OFFCURVE",
"116 829 CURVE SMOOTH",
"66 355 LINE SMOOTH",
"39 100 OFFCURVE",
"206 -22 OFFCURVE",
"455 -22 CURVE SMOOTH"
);
},
{
closed = 1;
nodes = (
"431 216 OFFCURVE",
"411 252 OFFCURVE",
"419 329 CURVE SMOOTH",
"474 855 LINE SMOOTH",
"482 932 OFFCURVE",
"510 968 OFFCURVE",
"560 968 CURVE SMOOTH",
"612 968 OFFCURVE",
"633 935 OFFCURVE",
"624 855 CURVE SMOOTH",
"569 329 LINE SMOOTH",
"561 249 OFFCURVE",
"533 216 OFFCURVE",
"481 216 CURVE SMOOTH"
);
}
);
width = 1019;
},
{
layerId = "43161617-4660-4075-B14A-1D8E25AEE542";
paths = (
{
closed = 1;
nodes = (
"641 -17 OFFCURVE",
"741 152 OFFCURVE",
"769 421 CURVE SMOOTH",
"805 762 LINE SMOOTH",
"833 1031 OFFCURVE",
"770 1201 OFFCURVE",
"508 1201 CURVE SMOOTH",
"247 1201 OFFCURVE",
"149 1031 OFFCURVE",
"120 762 CURVE SMOOTH",
"85 421 LINE SMOOTH",
"56 152 OFFCURVE",
"119 -17 OFFCURVE",
"380 -17 CURVE SMOOTH"
);
},
{
closed = 1;
nodes = (
"269 140 OFFCURVE",
"281 268 OFFCURVE",
"295 407 CURVE SMOOTH",
"334 775 LINE SMOOTH",
"348 914 OFFCURVE",
"364 1044 OFFCURVE",
"492 1044 CURVE SMOOTH",
"620 1044 OFFCURVE",
"608 914 OFFCURVE",
"594 775 CURVE SMOOTH",
"555 407 LINE SMOOTH",
"540 268 OFFCURVE",
"526 140 OFFCURVE",
"397 140 CURVE SMOOTH"
);
}
);
width = 863;
}
);
unicode = 006F;
userData = {
com.fontlab.hintData = {
hhints = (
{
position = -20;
width = 50;
},
{
position = 1154;
width = 50;
}
);
};
};
},
{
glyphname = oslash;
lastChange = "2016-08-02 09:50:01 +0000";
layers = (
{
components = (
{
name = o;
}
);
layerId = "6D1B020D-7C4E-4885-9208-B35BA480FE8F";
paths = (
{
closed = 1;
nodes = (
"766 1281 LINE",
"724 1298 LINE",
"51 -118 LINE",
"90 -134 LINE"
);
}
);
width = 784;
},
{
components = (
{
name = o;
transform = "{1, 0, 0, 1, 122, 0}";
}
);
layerId = "BF03A18F-065F-4249-8E16-486B9CB494A0";
paths = (
{
closed = 1;
nodes = (
"936 1347 LINE",
"861 1381 LINE",
"70 -145 LINE",
"144 -179 LINE"
);
}
);
width = 1004;
},
{
components = (
{
name = o;
}
);
layerId = "43161617-4660-4075-B14A-1D8E25AEE542";
paths = (
{
closed = 1;
nodes = (
"797 1339 LINE",
"726 1364 LINE",
"21 -170 LINE",
"82 -192 LINE"
);
}
);
width = 863;
}
);
unicode = 00F8;
userData = {
com.fontlab.hintData = {
hhints = (
{
position = -20;
width = 50;
},
{
position = 1154;
width = 50;
}
);
};
};
},
{
glyphname = oe;
lastChange = "2016-08-02 09:50:01 +0000";
layers = (
{
layerId = "6D1B020D-7C4E-4885-9208-B35BA480FE8F";
paths = (
{
closed = 1;
nodes = (
"491 -19 OFFCURVE",
"579 46 OFFCURVE",
"623 175 CURVE",
"646 30 OFFCURVE",
"738 -18 OFFCURVE",
"847 -19 CURVE SMOOTH",
"1069 -22 OFFCURVE",
"1156 109 OFFCURVE",
"1177 312 CURVE SMOOTH",
"1187 400 LINE",
"1079 400 LINE",
"1070 310 LINE SMOOTH",
"1045 78 OFFCURVE",
"939 67 OFFCURVE",
"856 68 CURVE SMOOTH",
"720 71 OFFCURVE",
"675 173 OFFCURVE",
"705 457 CURVE SMOOTH",
"722 621 LINE",
"1208 621 LINE",
"1223 735 LINE",
"1258 1074 OFFCURVE",
"1197 1203 OFFCURVE",
"981 1203 CURVE SMOOTH",
"871 1203 OFFCURVE",
"768 1165 OFFCURVE",
"711 1020 CURVE",
"693 1137 OFFCURVE",
"618 1203 OFFCURVE",
"485 1203 CURVE SMOOTH",
"249 1203 OFFCURVE",
"169 1047 OFFCURVE",
"139 753 CURVE",
"105 431 LINE SMOOTH",
"73 134 OFFCURVE",
"120 -19 OFFCURVE",
"356 -19 CURVE SMOOTH"
);
},
{
closed = 1;
nodes = (
"193 68 OFFCURVE",
"189 204 OFFCURVE",
"214 431 CURVE SMOOTH",
"248 753 LINE SMOOTH",
"271 980 OFFCURVE",
"303 1116 OFFCURVE",
"475 1116 CURVE SMOOTH",
"647 1116 OFFCURVE",
"651 980 OFFCURVE",
"627 753 CURVE SMOOTH",
"593 431 LINE SMOOTH",
"569 204 OFFCURVE",
"537 68 OFFCURVE",
"365 68 CURVE SMOOTH"
);
},
{
closed = 1;
nodes = (
"737 766 LINE SMOOTH",
"765 1029 OFFCURVE",
"833 1116 OFFCURVE",
"969 1116 CURVE SMOOTH",
"1138 1116 OFFCURVE",
"1138 962 OFFCURVE",
"1116 756 CURVE SMOOTH",
"1109 684 LINE",
"729 684 LINE"
);
}
);
width = 1284;
},
{
layerId = "BF03A18F-065F-4249-8E16-486B9CB494A0";
paths = (
{
closed = 1;
nodes = (
"1214 -30 OFFCURVE",
"1354 102 OFFCURVE",
"1375 305 CURVE SMOOTH",
"1394 478 LINE",
"1057 478 LINE",
"1039 304 LINE SMOOTH",
"1031 227 OFFCURVE",
"1014 185 OFFCURVE",
"972 185 CURVE SMOOTH",
"932 186 OFFCURVE",
"921 242 OFFCURVE",
"930 320 CURVE SMOOTH",
"955 563 LINE",
"1401 563 LINE",
"1431 847 LINE",
"1456 1075 OFFCURVE",
"1373 1240 OFFCURVE",
"1110 1240 CURVE SMOOTH",
"1013 1240 OFFCURVE",
"862 1192 OFFCURVE",
"809 1087 CURVE",
"783 1192 OFFCURVE",
"635 1240 OFFCURVE",
"532 1240 CURVE SMOOTH",
"320 1240 OFFCURVE",
"145 1136 OFFCURVE",
"120 898 CURVE",
"61 340 LINE SMOOTH",
"34 84 OFFCURVE",
"194 -27 OFFCURVE",
"372 -27 CURVE SMOOTH",
"538 -27 OFFCURVE",
"641 34 OFFCURVE",
"699 120 CURVE",
"729 26 OFFCURVE",
"837 -29 OFFCURVE",
"985 -29 CURVE SMOOTH"
);
},
{
closed = 1;
nodes = (
"423 185 OFFCURVE",
"406 242 OFFCURVE",
"415 330 CURVE SMOOTH",
"477 917 LINE SMOOTH",
"486 1006 OFFCURVE",
"521 1030 OFFCURVE",
"556 1030 CURVE SMOOTH",
"593 1030 OFFCURVE",
"621 1002 OFFCURVE",
"613 917 CURVE SMOOTH",
"551 329 LINE SMOOTH",
"538 205 OFFCURVE",
"498 185 OFFCURVE",
"462 185 CURVE SMOOTH"
);
},
{
closed = 1;
nodes = (
"995 943 LINE SMOOTH",
"1001 1005 OFFCURVE",
"1036 1030 OFFCURVE",
"1060 1030 CURVE SMOOTH",
"1086 1030 OFFCURVE",
"1116 999 OFFCURVE",
"1111 943 CURVE SMOOTH",
"1091 756 LINE",
"975 756 LINE"
);
}
);
width = 1456;
},
{
layerId = "43161617-4660-4075-B14A-1D8E25AEE542";
paths = (
{
closed = 1;
nodes = (
"533 -17 OFFCURVE",
"616 40 OFFCURVE",
"663 129 CURVE",
"694 37 OFFCURVE",
"767 -13 OFFCURVE",
"886 -17 CURVE SMOOTH",
"1123 -25 OFFCURVE",
"1241 92 OFFCURVE",
"1266 332 CURVE SMOOTH",
"1275 411 LINE",
"1064 411 LINE",
"1055 330 LINE SMOOTH",
"1040 193 OFFCURVE",
"994 152 OFFCURVE",
"905 157 CURVE SMOOTH",
"772 165 OFFCURVE",
"793 354 OFFCURVE",
"810 519 CURVE SMOOTH",
"818 597 LINE",
"1294 597 LINE",
"1306 699 LINE",
"1339 1022 OFFCURVE",
"1300 1201 OFFCURVE",
"1023 1201 CURVE SMOOTH",
"904 1201 OFFCURVE",
"810 1149 OFFCURVE",
"761 1057 CURVE",
"730 1143 OFFCURVE",
"661 1201 OFFCURVE",
"537 1201 CURVE SMOOTH",
"276 1201 OFFCURVE",
"175 1034 OFFCURVE",
"147 766 CURVE",
"111 417 LINE SMOOTH",
"82 149 OFFCURVE",
"148 -17 OFFCURVE",
"409 -17 CURVE SMOOTH"
);
},
{
closed = 1;
nodes = (
"299 157 OFFCURVE",
"308 279 OFFCURVE",
"323 417 CURVE SMOOTH",
"360 766 LINE SMOOTH",
"374 905 OFFCURVE",
"391 1028 OFFCURVE",
"519 1028 CURVE SMOOTH",
"647 1028 OFFCURVE",
"638 905 OFFCURVE",
"624 766 CURVE SMOOTH",
"587 417 LINE SMOOTH",
"572 279 OFFCURVE",
"556 157 OFFCURVE",
"427 157 CURVE SMOOTH"
);
},
{
closed = 1;
nodes = (
"834 746 LINE SMOOTH",
"849 892 OFFCURVE",
"881 1028 OFFCURVE",
"997 1028 CURVE SMOOTH",
"1120 1028 OFFCURVE",
"1112 880 OFFCURVE",
"1098 744 CURVE SMOOTH",
"1094 706 LINE",
"830 706 LINE"
);
}
);
width = 1394;
}
);
unicode = 0153;
userData = {
com.fontlab.hintData = {
hhints = (
{
position = -20;
width = 50;
},
{
position = 1154;
width = 50;
}
);
};
};
},
{
glyphname = p;
lastChange = "2016-08-02 09:50:01 +0000";
layers = (
{
layerId = "6D1B020D-7C4E-4885-9208-B35BA480FE8F";
paths = (
{
closed = 1;
nodes = (
"143 -390 LINE",
"194 98 LINE",
"231 45 OFFCURVE",
"295 -19 OFFCURVE",
"398 -19 CURVE SMOOTH",
"611 -19 OFFCURVE",
"694 156 OFFCURVE",
"729 487 CURVE SMOOTH",
"753 714 LINE SMOOTH",
"784 1011 OFFCURVE",
"756 1203 OFFCURVE",
"537 1203 CURVE SMOOTH",
"428 1203 OFFCURVE",
"347 1140 OFFCURVE",
"298 1083 CURVE",
"308 1184 LINE",
"199 1184 LINE",
"34 -390 LINE"
);
},
{
closed = 1;
nodes = (
"309 66 OFFCURVE",
"243 116 OFFCURVE",
"202 173 CURVE",
"290 1008 LINE",
"336 1054 OFFCURVE",
"417 1118 OFFCURVE",
"506 1118 CURVE SMOOTH",
"659 1118 OFFCURVE",
"674 997 OFFCURVE",
"644 715 CURVE SMOOTH",
"620 484 LINE SMOOTH",
"589 195 OFFCURVE",
"542 66 OFFCURVE",
"394 66 CURVE SMOOTH"
);
}
);
width = 819;
},
{
layerId = "BF03A18F-065F-4249-8E16-486B9CB494A0";
paths = (
{
closed = 1;
nodes = (
"373 -390 LINE",
"423 90 LINE",
"500 19 OFFCURVE",
"589 -22 OFFCURVE",
"675 -22 CURVE SMOOTH",
"827 -22 OFFCURVE",
"938 104 OFFCURVE",
"961 316 CURVE SMOOTH",
"1020 880 LINE SMOOTH",
"1041 1082 OFFCURVE",
"967 1199 OFFCURVE",
"806 1206 CURVE SMOOTH",
"726 1209 OFFCURVE",
"627 1175 OFFCURVE",
"530 1099 CURVE",
"538 1184 LINE",
"177 1184 LINE",
"12 -390 LINE"
);
},
{
closed = 1;
nodes = (
"486 205 OFFCURVE",
"462 215 OFFCURVE",
"438 230 CURVE",
"515 963 LINE",
"544 982 OFFCURVE",
"570 995 OFFCURVE",
"591 997 CURVE SMOOTH",
"641 1004 OFFCURVE",
"666 960 OFFCURVE",
"661 912 CURVE SMOOTH",
"596 294 LINE SMOOTH",
"591 244 OFFCURVE",
"558 203 OFFCURVE",
"508 204 CURVE SMOOTH"
);
}
);
width = 1063;
},
{
layerId = "43161617-4660-4075-B14A-1D8E25AEE542";
paths = (
{
closed = 1;
nodes = (
"234 -390 LINE",
"284 89 LINE",
"328 34 OFFCURVE",
"390 -17 OFFCURVE",
"475 -17 CURVE SMOOTH",
"707 -17 OFFCURVE",
"792 213 OFFCURVE",
"819 470 CURVE SMOOTH",
"849 752 LINE SMOOTH",
"864 904 OFFCURVE",
"871 1201 OFFCURVE",
"626 1201 CURVE SMOOTH",
"524 1201 OFFCURVE",
"447 1148 OFFCURVE",
"390 1089 CURVE",
"399 1184 LINE",
"187 1184 LINE",
"22 -390 LINE"
);
},
{
closed = 1;
nodes = (
"384 150 OFFCURVE",
"334 175 OFFCURVE",
"296 206 CURVE",
"377 970 LINE",
"420 1002 OFFCURVE",
"476 1034 OFFCURVE",
"536 1034 CURVE SMOOTH",
"652 1034 OFFCURVE",
"653 909 OFFCURVE",
"637 752 CURVE SMOOTH",
"607 469 LINE SMOOTH",
"588 288 OFFCURVE",
"566 150 OFFCURVE",
"451 150 CURVE SMOOTH"
);
}
);
width = 908;
}
);
unicode = 0070;
userData = {
com.fontlab.hintData = {
hhints = (
{
position = -20;
width = 50;
},
{
position = 1154;
width = 50;
}
);
};
};
},
{
glyphname = thorn;
lastChange = "2016-08-02 09:50:01 +0000";
layers = (
{
layerId = "6D1B020D-7C4E-4885-9208-B35BA480FE8F";
paths = (
{
closed = 1;
nodes = (
"143 -390 LINE",
"195 98 LINE",
"232 45 OFFCURVE",
"296 -19 OFFCURVE",
"399 -19 CURVE SMOOTH",
"612 -19 OFFCURVE",
"695 156 OFFCURVE",
"730 487 CURVE SMOOTH",
"753 714 LINE SMOOTH",
"784 1011 OFFCURVE",
"756 1203 OFFCURVE",
"538 1203 CURVE SMOOTH",
"428 1203 OFFCURVE",
"348 1140 OFFCURVE",
"298 1083 CURVE",
"358 1658 LINE",
"249 1658 LINE",
"34 -390 LINE"
);
},
{
closed = 1;
nodes = (
"309 66 OFFCURVE",
"243 116 OFFCURVE",
"202 173 CURVE",
"290 1008 LINE",
"337 1054 OFFCURVE",
"417 1118 OFFCURVE",
"507 1118 CURVE SMOOTH",
"659 1118 OFFCURVE",
"674 997 OFFCURVE",
"644 715 CURVE SMOOTH",
"621 484 LINE SMOOTH",
"590 195 OFFCURVE",
"543 66 OFFCURVE",
"395 66 CURVE SMOOTH"
);
}
);
width = 815;
},
{
layerId = "BF03A18F-065F-4249-8E16-486B9CB494A0";
paths = (
{
closed = 1;
nodes = (
"360 -390 LINE",
"410 90 LINE",
"487 19 OFFCURVE",
"573 -22 OFFCURVE",
"660 -22 CURVE SMOOTH",
"812 -22 OFFCURVE",
"923 104 OFFCURVE",
"945 316 CURVE SMOOTH",
"1005 880 LINE SMOOTH",
"1026 1082 OFFCURVE",
"952 1199 OFFCURVE",
"791 1206 CURVE SMOOTH",
"711 1209 OFFCURVE",
"614 1175 OFFCURVE",
"517 1099 CURVE",
"575 1658 LINE",
"214 1658 LINE",
"-1 -390 LINE"
);
},
{
closed = 1;
nodes = (
"473 205 OFFCURVE",
"449 215 OFFCURVE",
"425 230 CURVE",
"502 963 LINE",
"531 982 OFFCURVE",
"557 995 OFFCURVE",
"578 997 CURVE SMOOTH",
"628 1004 OFFCURVE",
"651 960 OFFCURVE",
"645 912 CURVE SMOOTH",
"580 294 LINE SMOOTH",
"575 244 OFFCURVE",
"545 203 OFFCURVE",
"495 204 CURVE SMOOTH"
);
}
);
width = 1035;
},
{
layerId = "43161617-4660-4075-B14A-1D8E25AEE542";
paths = (
{
closed = 1;
nodes = (
"235 -390 LINE",
"286 89 LINE",
"330 34 OFFCURVE",
"392 -17 OFFCURVE",
"477 -17 CURVE SMOOTH",
"708 -17 OFFCURVE",
"794 213 OFFCURVE",
"821 470 CURVE SMOOTH",
"850 752 LINE SMOOTH",
"866 904 OFFCURVE",
"873 1201 OFFCURVE",
"628 1201 CURVE SMOOTH",
"526 1201 OFFCURVE",
"448 1148 OFFCURVE",
"391 1089 CURVE",
"450 1658 LINE",
"239 1658 LINE",
"24 -390 LINE"
);
},
{
closed = 1;
nodes = (
"386 150 OFFCURVE",
"335 175 OFFCURVE",
"298 206 CURVE",
"378 970 LINE",
"421 1002 OFFCURVE",
"478 1034 OFFCURVE",
"538 1034 CURVE SMOOTH",
"653 1034 OFFCURVE",
"655 909 OFFCURVE",
"638 752 CURVE SMOOTH",
"609 469 LINE SMOOTH",
"590 288 OFFCURVE",
"567 150 OFFCURVE",
"453 150 CURVE SMOOTH"
);
}
);
width = 909;
}
);
unicode = 00FE;
userData = {
com.fontlab.hintData = {
hhints = (
{
position = -20;
width = 50;
},
{
position = 1154;
width = 50;
}
);
};
};
},
{
glyphname = q;
lastChange = "2016-08-02 09:50:01 +0000";
layers = (
{
layerId = "6D1B020D-7C4E-4885-9208-B35BA480FE8F";
paths = (
{
closed = 1;
nodes = (
"613 -390 LINE",
"778 1184 LINE",
"669 1184 LINE",
"660 1093 LINE",
"621 1145 OFFCURVE",
"556 1202 OFFCURVE",
"456 1203 CURVE SMOOTH",
"239 1203 OFFCURVE",
"164 1030 OFFCURVE",
"129 697 CURVE SMOOTH",
"108 486 LINE SMOOTH",
"70 126 OFFCURVE",
"129 -19 OFFCURVE",
"333 -19 CURVE SMOOTH",
"431 -19 OFFCURVE",
"506 39 OFFCURVE",
"555 91 CURVE",
"504 -390 LINE"
);
},
{
closed = 1;
nodes = (
"208 66 OFFCURVE",
"185 190 OFFCURVE",
"215 477 CURVE SMOOTH",
"241 723 LINE SMOOTH",
"270 1000 OFFCURVE",
"313 1118 OFFCURVE",
"463 1118 CURVE SMOOTH",
"549 1118 OFFCURVE",
"613 1059 OFFCURVE",
"652 1014 CURVE",
"563 167 LINE",
"509 112 OFFCURVE",
"435 66 OFFCURVE",
"358 66 CURVE SMOOTH"
);
}
);
width = 812;
},
{
layerId = "BF03A18F-065F-4249-8E16-486B9CB494A0";
paths = (
{
closed = 1;
nodes = (
"873 -390 LINE",
"1038 1184 LINE",
"677 1184 LINE",
"669 1104 LINE",
"603 1167 OFFCURVE",
"524 1206 OFFCURVE",
"432 1206 CURVE SMOOTH",
"264 1206 OFFCURVE",
"147 1072 OFFCURVE",
"126 866 CURVE SMOOTH",
"68 316 LINE SMOOTH",
"45 98 OFFCURVE",
"131 -22 OFFCURVE",
"301 -22 CURVE SMOOTH",
"385 -22 OFFCURVE",
"476 24 OFFCURVE",
"563 102 CURVE",
"512 -390 LINE"
);
},
{
closed = 1;
nodes = (
"446 201 OFFCURVE",
"423 244 OFFCURVE",
"429 294 CURVE SMOOTH",
"491 888 LINE SMOOTH",
"497 946 OFFCURVE",
"528 988 OFFCURVE",
"580 988 CURVE SMOOTH",
"604 988 OFFCURVE",
"629 979 OFFCURVE",
"654 964 CURVE",
"577 233 LINE",
"544 213 OFFCURVE",
"514 201 OFFCURVE",
"494 201 CURVE SMOOTH"
);
}
);
width = 1064;
},
{
layerId = "43161617-4660-4075-B14A-1D8E25AEE542";
paths = (
{
closed = 1;
nodes = (
"701 -390 LINE",
"866 1184 LINE",
"654 1184 LINE",
"646 1108 LINE",
"602 1158 OFFCURVE",
"540 1200 OFFCURVE",
"458 1201 CURVE SMOOTH",
"218 1201 OFFCURVE",
"145 969 OFFCURVE",
"116 695 CURVE SMOOTH",
"93 466 LINE SMOOTH",
"55 115 OFFCURVE",
"135 -18 OFFCURVE",
"337 -17 CURVE SMOOTH",
"415 -17 OFFCURVE",
"482 22 OFFCURVE",
"538 76 CURVE",
"489 -390 LINE"
);
},
{
closed = 1;
nodes = (
"288 150 OFFCURVE",
"284 274 OFFCURVE",
"302 448 CURVE SMOOTH",
"337 777 LINE SMOOTH",
"352 921 OFFCURVE",
"389 1034 OFFCURVE",
"496 1034 CURVE SMOOTH",
"550 1034 OFFCURVE",
"596 1008 OFFCURVE",
"632 978 CURVE",
"551 198 LINE",
"502 168 OFFCURVE",
"450 150 OFFCURVE",
"407 150 CURVE SMOOTH"
);
}
);
width = 901;
}
);
unicode = 0071;
userData = {
com.fontlab.hintData = {
hhints = (
{
position = -20;
width = 50;
},
{
position = 1154;
width = 50;
}
);
};
};
},
{
glyphname = r;
lastChange = "2016-08-02 09:50:01 +0000";
layers = (
{
layerId = "6D1B020D-7C4E-4885-9208-B35BA480FE8F";
paths = (
{
closed = 1;
nodes = (
"198 0 LINE",
"296 935 LINE",
"364 1034 OFFCURVE",
"455 1088 OFFCURVE",
"568 1088 CURVE SMOOTH",
"580 1088 OFFCURVE",
"603 1085 OFFCURVE",
"611 1082 CURVE",
"623 1195 LINE",
"619 1195 OFFCURVE",
"606 1196 OFFCURVE",
"603 1196 CURVE SMOOTH",
"512 1196 OFFCURVE",
"387 1142 OFFCURVE",
"306 1024 CURVE",
"322 1184 LINE",
"213 1184 LINE",
"89 0 LINE"
);
}
);
width = 580;
},
{
layerId = "BF03A18F-065F-4249-8E16-486B9CB494A0";
paths = (
{
closed = 1;
nodes = (
"418 0 LINE",
"495 733 LINE",
"570 827 OFFCURVE",
"652 879 OFFCURVE",
"757 886 CURVE SMOOTH",
"768 886 OFFCURVE",
"781 886 OFFCURVE",
"791 884 CURVE",
"823 1189 LINE",
"806 1195 OFFCURVE",
"790 1198 OFFCURVE",
"774 1198 CURVE SMOOTH",
"686 1198 OFFCURVE",
"600 1114 OFFCURVE",
"521 980 CURVE",
"542 1184 LINE",
"181 1184 LINE",
"57 0 LINE"
);
}
);
width = 785;
},
{
layerId = "43161617-4660-4075-B14A-1D8E25AEE542";
paths = (
{
closed = 1;
nodes = (
"281 0 LINE",
"372 870 LINE",
"438 960 OFFCURVE",
"496 985 OFFCURVE",
"567 985 CURVE SMOOTH",
"607 985 OFFCURVE",
"651 975 OFFCURVE",
"679 963 CURVE",
"704 1197 LINE",
"689 1198 OFFCURVE",
"680 1199 OFFCURVE",
"669 1199 CURVE SMOOTH",
"581 1199 OFFCURVE",
"488 1159 OFFCURVE",
"388 1016 CURVE",
"405 1184 LINE",
"193 1184 LINE",
"69 0 LINE"
);
}
);
width = 653;
}
);
unicode = 0072;
userData = {
com.fontlab.hintData = {
hhints = (
{
position = 1133;
width = 61;
}
);
};
};
},
{
glyphname = s;
lastChange = "2016-08-02 09:50:01 +0000";
layers = (
{
layerId = "6D1B020D-7C4E-4885-9208-B35BA480FE8F";
paths = (
{
closed = 1;
nodes = (
"516 -19 OFFCURVE",
"640 81 OFFCURVE",
"658 253 CURVE SMOOTH",
"673 424 OFFCURVE",
"577 520 OFFCURVE",
"480 612 CURVE",
"352 737 LINE",
"264 820 OFFCURVE",
"245 874 OFFCURVE",
"254 962 CURVE SMOOTH",
"265 1066 OFFCURVE",
"342 1121 OFFCURVE",
"445 1121 CURVE SMOOTH",
"553 1121 OFFCURVE",
"614 1052 OFFCURVE",
"601 868 CURVE",
"684 892 LINE",
"697 1082 OFFCURVE",
"624 1203 OFFCURVE",
"449 1203 CURVE SMOOTH",
"287 1203 OFFCURVE",
"172 1112 OFFCURVE",
"153 950 CURVE SMOOTH",
"140 831 OFFCURVE",
"184 749 OFFCURVE",
"292 649 CURVE SMOOTH",
"418 533 LINE SMOOTH",
"528 431 OFFCURVE",
"569 340 OFFCURVE",
"561 255 CURVE SMOOTH",
"549 133 OFFCURVE",
"471 63 OFFCURVE",
"353 63 CURVE SMOOTH",
"219 63 OFFCURVE",
"150 148 OFFCURVE",
"155 346 CURVE",
"61 319 LINE",
"54 111 OFFCURVE",
"153 -19 OFFCURVE",
"340 -19 CURVE SMOOTH"
);
}
);
width = 730;
},
{
layerId = "BF03A18F-065F-4249-8E16-486B9CB494A0";
paths = (
{
closed = 1;
nodes = (
"614 -22 OFFCURVE",
"820 96 OFFCURVE",
"842 305 CURVE SMOOTH",
"858 457 OFFCURVE",
"748 553 OFFCURVE",
"652 645 CURVE",
"604 690 LINE",
"521 768 OFFCURVE",
"425 843 OFFCURVE",
"435 900 CURVE SMOOTH",
"440 928 OFFCURVE",
"467 959 OFFCURVE",
"516 955 CURVE SMOOTH",
"578 951 OFFCURVE",
"627 858 OFFCURVE",
"644 791 CURVE",
"888 904 LINE",
"846 1102 OFFCURVE",
"717 1206 OFFCURVE",
"520 1206 CURVE SMOOTH",
"323 1206 OFFCURVE",
"127 1065 OFFCURVE",
"106 870 CURVE SMOOTH",
"91 742 OFFCURVE",
"191 609 OFFCURVE",
"287 521 CURVE SMOOTH",
"340 472 LINE SMOOTH",
"410 406 OFFCURVE",
"503 335 OFFCURVE",
"499 287 CURVE SMOOTH",
"496 248 OFFCURVE",
"466 222 OFFCURVE",
"434 219 CURVE SMOOTH",
"367 210 OFFCURVE",
"306 283 OFFCURVE",
"267 379 CURVE",
"14 266 LINE",
"92 54 OFFCURVE",
"217 -22 OFFCURVE",
"418 -22 CURVE SMOOTH"
);
}
);
width = 891;
},
{
layerId = "43161617-4660-4075-B14A-1D8E25AEE542";
paths = (
{
closed = 1;
nodes = (
"528 -17 OFFCURVE",
"671 83 OFFCURVE",
"692 284 CURVE SMOOTH",
"707 437 OFFCURVE",
"634 529 OFFCURVE",
"555 606 CURVE",
"369 794 LINE",
"327 834 OFFCURVE",
"315 875 OFFCURVE",
"319 921 CURVE SMOOTH",
"325 989 OFFCURVE",
"378 1044 OFFCURVE",
"454 1044 CURVE SMOOTH",
"547 1044 OFFCURVE",
"577 963 OFFCURVE",
"579 836 CURVE",
"728 889 LINE",
"732 1062 OFFCURVE",
"648 1201 OFFCURVE",
"462 1201 CURVE SMOOTH",
"279 1201 OFFCURVE",
"153 1096 OFFCURVE",
"129 911 CURVE SMOOTH",
"111 775 OFFCURVE",
"169 694 OFFCURVE",
"246 621 CURVE SMOOTH",
"426 452 LINE SMOOTH",
"487 395 OFFCURVE",
"511 334 OFFCURVE",
"507 279 CURVE SMOOTH",
"503 199 OFFCURVE",
"442 140 OFFCURVE",
"360 140 CURVE SMOOTH",
"262 140 OFFCURVE",
"220 215 OFFCURVE",
"219 370 CURVE",
"37 317 LINE",
"32 117 OFFCURVE",
"140 -17 OFFCURVE",
"334 -17 CURVE SMOOTH"
);
}
);
width = 762;
}
);
unicode = 0073;
userData = {
com.fontlab.hintData = {
hhints = (
{
position = -20;
width = 50;
},
{
position = 1154;
width = 50;
}
);
vhints = (
{
position = 71;
width = 56;
},
{
position = 610;
width = 55;
}
);
};
};
},
{
glyphname = germandbls;
lastChange = "2016-08-02 09:50:01 +0000";
layers = (
{
layerId = "6D1B020D-7C4E-4885-9208-B35BA480FE8F";
paths = (
{
closed = 1;
nodes = (
"758 -22 OFFCURVE",
"880 248 OFFCURVE",
"905 492 CURVE",
"926 689 OFFCURVE",
"879 885 OFFCURVE",
"667 933 CURVE",
"807 976 OFFCURVE",
"884 1102 OFFCURVE",
"905 1299 CURVE SMOOTH",
"934 1568 OFFCURVE",
"812 1698 OFFCURVE",
"603 1698 CURVE SMOOTH",
"385 1698 OFFCURVE",
"257 1602 OFFCURVE",
"220 1250 CURVE SMOOTH",
"89 0 LINE",
"197 0 LINE",
"329 1252 LINE",
"361 1556 OFFCURVE",
"452 1612 OFFCURVE",
"599 1612 CURVE SMOOTH",
"762 1612 OFFCURVE",
"821 1503 OFFCURVE",
"799 1299 CURVE SMOOTH",
"780 1123 OFFCURVE",
"711 972 OFFCURVE",
"530 972 CURVE",
"515 881 LINE",
"767 881 OFFCURVE",
"819 684 OFFCURVE",
"799 486 CURVE SMOOTH",
"779 294 OFFCURVE",
"689 69 OFFCURVE",
"314 69 CURVE",
"304 -22 LINE"
);
}
);
width = 992;
},
{
layerId = "BF03A18F-065F-4249-8E16-486B9CB494A0";
paths = (
{
closed = 1;
nodes = (
"819 -34 OFFCURVE",
"1049 97 OFFCURVE",
"1087 460 CURVE",
"1108 654 OFFCURVE",
"994 818 OFFCURVE",
"782 882 CURVE",
"974 953 OFFCURVE",
"1055 1081 OFFCURVE",
"1070 1233 CURVE SMOOTH",
"1100 1515 OFFCURVE",
"981 1685 OFFCURVE",
"657 1685 CURVE SMOOTH",
"324 1685 OFFCURVE",
"189 1443 OFFCURVE",
"166 1219 CURVE SMOOTH",
"38 0 LINE",
"399 0 LINE",
"527 1219 LINE",
"537 1349 OFFCURVE",
"575 1440 OFFCURVE",
"661 1440 CURVE SMOOTH",
"731 1440 OFFCURVE",
"786 1376 OFFCURVE",
"770 1226 CURVE SMOOTH",
"752 1056 OFFCURVE",
"691 983 OFFCURVE",
"607 983 CURVE",
"581 708 LINE",
"665 708 OFFCURVE",
"736 625 OFFCURVE",
"733 511 CURVE SMOOTH",
"728 301 OFFCURVE",
"633 238 OFFCURVE",
"511 238 CURVE",
"482 -34 LINE"
);
}
);
width = 1124;
},
{
layerId = "43161617-4660-4075-B14A-1D8E25AEE542";
paths = (
{
closed = 1;
nodes = (
"749 -18 OFFCURVE",
"907 168 OFFCURVE",
"939 477 CURVE",
"960 682 OFFCURVE",
"884 836 OFFCURVE",
"716 880 CURVE",
"856 948 OFFCURVE",
"936 1059 OFFCURVE",
"957 1254 CURVE SMOOTH",
"986 1528 OFFCURVE",
"866 1679 OFFCURVE",
"600 1679 CURVE SMOOTH",
"366 1679 OFFCURVE",
"231 1518 OFFCURVE",
"204 1252 CURVE SMOOTH",
"72 0 LINE",
"284 0 LINE",
"416 1256 LINE",
"432 1416 OFFCURVE",
"478 1505 OFFCURVE",
"607 1505 CURVE SMOOTH",
"745 1505 OFFCURVE",
"765 1400 OFFCURVE",
"750 1254 CURVE SMOOTH",
"733 1102 OFFCURVE",
"675 952 OFFCURVE",
"524 952 CURVE",
"504 776 LINE",
"683 776 OFFCURVE",
"745 650 OFFCURVE",
"728 476 CURVE SMOOTH",
"707 277 OFFCURVE",
"649 157 OFFCURVE",
"418 157 CURVE",
"399 -18 LINE"
);
}
);
width = 1051;
}
);
unicode = 00DF;
userData = {
com.fontlab.hintData = {
hhints = (
{
position = -24;
width = 55;
},
{
position = 926;
width = 55;
},
{
position = 1659;
width = 48;
}
);
};
};
},
{
glyphname = t;
lastChange = "2016-08-02 09:50:01 +0000";
layers = (
{
layerId = "6D1B020D-7C4E-4885-9208-B35BA480FE8F";
paths = (
{
closed = 1;
nodes = (
"366 -13 OFFCURVE",
"411 -8 OFFCURVE",
"444 1 CURVE",
"453 83 LINE",
"425 78 OFFCURVE",
"390 73 OFFCURVE",
"365 73 CURVE SMOOTH",
"277 73 OFFCURVE",
"266 118 OFFCURVE",
"279 247 CURVE SMOOTH",
"371 1112 LINE",
"572 1112 LINE",
"579 1184 LINE",
"378 1184 LINE",
"418 1562 LINE",
"310 1562 LINE",
"269 1184 LINE",
"115 1184 LINE",
"107 1112 LINE",
"262 1112 LINE",
"169 234 LINE SMOOTH",
"155 95 OFFCURVE",
"167 -13 OFFCURVE",
"332 -13 CURVE SMOOTH"
);
}
);
width = 538;
},
{
layerId = "BF03A18F-065F-4249-8E16-486B9CB494A0";
paths = (
{
closed = 1;
nodes = (
"517 -19 OFFCURVE",
"606 -1 OFFCURVE",
"645 5 CURVE",
"675 293 LINE",
"673 293 OFFCURVE",
"628 281 OFFCURVE",
"582 284 CURVE SMOOTH",
"526 286 OFFCURVE",
"480 311 OFFCURVE",
"486 373 CURVE SMOOTH",
"547 949 LINE",
"711 949 LINE",
"735 1184 LINE",
"571 1184 LINE",
"610 1548 LINE",
"244 1548 LINE",
"205 1184 LINE",
"94 1184 LINE",
"70 949 LINE",
"181 949 LINE",
"128 453 LINE SMOOTH",
"105 222 OFFCURVE",
"108 -1 OFFCURVE",
"391 -13 CURVE SMOOTH"
);
}
);
width = 746;
},
{
layerId = "43161617-4660-4075-B14A-1D8E25AEE542";
paths = (
{
closed = 1;
nodes = (
"426 -16 OFFCURVE",
"468 -12 OFFCURVE",
"523 -5 CURVE",
"540 153 LINE",
"512 148 OFFCURVE",
"478 147 OFFCURVE",
"457 147 CURVE SMOOTH",
"371 147 OFFCURVE",
"354 184 OFFCURVE",
"363 279 CURVE SMOOTH",
"444 1042 LINE",
"635 1042 LINE",
"649 1184 LINE",
"458 1184 LINE",
"495 1531 LINE",
"283 1531 LINE",
"246 1184 LINE",
"121 1184 LINE",
"106 1042 LINE",
"232 1042 LINE",
"150 264 LINE SMOOTH",
"133 86 OFFCURVE",
"187 -16 OFFCURVE",
"372 -16 CURVE SMOOTH"
);
}
);
width = 625;
}
);
unicode = 0074;
userData = {
com.fontlab.hintData = {
hhints = (
{
position = -12;
width = 53;
}
);
};
};
},
{
glyphname = tbar;
lastChange = "2016-08-02 09:50:01 +0000";
layers = (
{
components = (
{
name = t;
}
);
layerId = "6D1B020D-7C4E-4885-9208-B35BA480FE8F";
paths = (
{
closed = 1;
nodes = (
"514 742 LINE",
"520 809 LINE",
"103 809 LINE",
"96 742 LINE"
);
}
);
width = 500;
},
{
components = (
{
name = t;
transform = "{1, 0, 0, 1, -41, 0}";
}
);
layerId = "BF03A18F-065F-4249-8E16-486B9CB494A0";
paths = (
{
closed = 1;
nodes = (
"671 603 LINE",
"687 755 LINE",
"50 755 LINE",
"35 603 LINE"
);
}
);
width = 735;
},
{
components = (
{
name = t;
}
);
layerId = "43161617-4660-4075-B14A-1D8E25AEE542";
paths = (
{
closed = 1;
nodes = (
"612 700 LINE",
"623 809 LINE",
"90 809 LINE",
"79 700 LINE"
);
}
);
width = 500;
}
);
unicode = 0167;
userData = {
com.fontlab.hintData = {
hhints = (
{
position = -12;
width = 53;
}
);
};
};
},
{
glyphname = u;
lastChange = "2016-08-02 09:50:01 +0000";
layers = (
{
layerId = "6D1B020D-7C4E-4885-9208-B35BA480FE8F";
paths = (
{
closed = 1;
nodes = (
"360 -19 OFFCURVE",
"469 44 OFFCURVE",
"555 139 CURVE",
"540 0 LINE",
"649 0 LINE",
"773 1184 LINE",
"664 1184 LINE",
"562 209 LINE",
"482 125 OFFCURVE",
"387 66 OFFCURVE",
"304 66 CURVE SMOOTH",
"228 66 OFFCURVE",
"184 107 OFFCURVE",
"199 252 CURVE SMOOTH",
"297 1184 LINE",
"187 1184 LINE",
"89 240 LINE SMOOTH",
"69 51 OFFCURVE",
"142 -19 OFFCURVE",
"247 -19 CURVE SMOOTH"
);
}
);
width = 808;
},
{
layerId = "BF03A18F-065F-4249-8E16-486B9CB494A0";
paths = (
{
closed = 1;
nodes = (
"367 -22 OFFCURVE",
"463 25 OFFCURVE",
"559 107 CURVE",
"548 0 LINE",
"909 0 LINE",
"1033 1184 LINE",
"672 1184 LINE",
"574 246 LINE",
"540 227 OFFCURVE",
"510 219 OFFCURVE",
"488 218 CURVE SMOOTH",
"442 216 OFFCURVE",
"428 244 OFFCURVE",
"433 294 CURVE SMOOTH",
"526 1184 LINE",
"165 1184 LINE",
"69 264 LINE SMOOTH",
"51 95 OFFCURVE",
"123 -22 OFFCURVE",
"268 -22 CURVE SMOOTH"
);
}
);
width = 1062;
},
{
layerId = "43161617-4660-4075-B14A-1D8E25AEE542";
paths = (
{
closed = 1;
nodes = (
"345 -17 OFFCURVE",
"448 43 OFFCURVE",
"534 118 CURVE",
"521 0 LINE",
"733 0 LINE",
"857 1184 LINE",
"645 1184 LINE",
"545 228 LINE",
"490 184 OFFCURVE",
"430 150 OFFCURVE",
"379 150 CURVE SMOOTH",
"302 150 OFFCURVE",
"288 199 OFFCURVE",
"297 288 CURVE SMOOTH",
"391 1184 LINE",
"179 1184 LINE",
"79 227 LINE SMOOTH",
"67 107 OFFCURVE",
"92 -17 OFFCURVE",
"230 -17 CURVE SMOOTH"
);
}
);
width = 895;
}
);
unicode = 0075;
userData = {
com.fontlab.hintData = {
hhints = (
{
position = -20;
width = 50;
}
);
};
};
},
{
glyphname = v;
lastChange = "2016-08-02 09:50:01 +0000";
layers = (
{
layerId = "6D1B020D-7C4E-4885-9208-B35BA480FE8F";
paths = (
{
closed = 1;
nodes = (
"390 0 LINE",
"774 1184 LINE",
"668 1184 LINE",
"343 138 LINE",
"231 1184 LINE",
"120 1184 LINE",
"269 0 LINE"
);
}
);
width = 731;
},
{
layerId = "BF03A18F-065F-4249-8E16-486B9CB494A0";
paths = (
{
closed = 1;
nodes = (
"572 0 LINE",
"943 1184 LINE",
"600 1184 LINE",
"448 476 LINE",
"436 1184 LINE",
"93 1184 LINE",
"206 0 LINE"
);
}
);
width = 881;
},
{
layerId = "43161617-4660-4075-B14A-1D8E25AEE542";
paths = (
{
closed = 1;
nodes = (
"478 0 LINE",
"828 1184 LINE",
"622 1184 LINE",
"371 225 LINE",
"320 1184 LINE",
"107 1184 LINE",
"219 0 LINE"
);
}
);
width = 785;
}
);
unicode = 0076;
},
{
glyphname = w;
lastChange = "2016-08-02 09:50:01 +0000";
layers = (
{
layerId = "6D1B020D-7C4E-4885-9208-B35BA480FE8F";
paths = (
{
closed = 1;
nodes = (
"343 0 LINE",
"652 1039 LINE",
"748 0 LINE",
"861 0 LINE",
"1174 1184 LINE",
"1078 1184 LINE",
"814 129 LINE",
"717 1184 LINE",
"612 1184 LINE",
"298 124 LINE",
"245 1184 LINE",
"149 1184 LINE",
"220 0 LINE"
);
}
);
width = 1160;
},
{
layerId = "BF03A18F-065F-4249-8E16-486B9CB494A0";
paths = (
{
closed = 1;
nodes = (
"465 0 LINE",
"633 624 LINE",
"655 0 LINE",
"964 0 LINE",
"1263 1184 LINE",
"984 1184 LINE",
"824 540 LINE",
"830 1184 LINE",
"571 1184 LINE",
"427 559 LINE",
"416 1184 LINE",
"114 1184 LINE",
"160 0 LINE"
);
}
);
width = 1228;
},
{
layerId = "43161617-4660-4075-B14A-1D8E25AEE542";
paths = (
{
closed = 1;
nodes = (
"393 0 LINE",
"644 848 LINE",
"718 0 LINE",
"899 0 LINE",
"1218 1184 LINE",
"1044 1184 LINE",
"826 303 LINE",
"758 1184 LINE",
"595 1184 LINE",
"342 300 LINE",
"309 1184 LINE",
"134 1184 LINE",
"200 0 LINE"
);
}
);
width = 1201;
}
);
unicode = 0077;
userData = {
com.fontlab.hintData = {
vhints = (
{
position = 445;
width = 266;
}
);
};
};
},
{
glyphname = x;
lastChange = "2016-08-02 09:50:01 +0000";
layers = (
{
layerId = "6D1B020D-7C4E-4885-9208-B35BA480FE8F";
paths = (
{
closed = 1;
nodes = (
"106 0 LINE",
"394 504 LINE",
"582 0 LINE",
"685 0 LINE",
"464 606 LINE",
"805 1184 LINE",
"692 1184 LINE",
"425 714 LINE",
"252 1184 LINE",
"141 1184 LINE",
"352 617 LINE",
"-1 0 LINE"
);
}
);
width = 767;
},
{
layerId = "BF03A18F-065F-4249-8E16-486B9CB494A0";
paths = (
{
closed = 1;
nodes = (
"266 0 LINE",
"407 307 LINE",
"510 0 LINE",
"879 0 LINE",
"675 600 LINE",
"963 1184 LINE",
"696 1184 LINE",
"567 921 LINE",
"477 1184 LINE",
"111 1184 LINE",
"289 656 LINE",
"-28 0 LINE"
);
}
);
width = 933;
},
{
layerId = "43161617-4660-4075-B14A-1D8E25AEE542";
paths = (
{
closed = 1;
nodes = (
"172 0 LINE",
"380 408 LINE",
"527 0 LINE",
"729 0 LINE",
"516 596 LINE",
"848 1184 LINE",
"639 1184 LINE",
"442 803 LINE",
"306 1184 LINE",
"101 1184 LINE",
"303 622 LINE",
"-28 0 LINE"
);
}
);
width = 794;
}
);
unicode = 0078;
},
{
glyphname = y;
lastChange = "2016-08-02 09:50:01 +0000";
layers = (
{
layerId = "6D1B020D-7C4E-4885-9208-B35BA480FE8F";
paths = (
{
closed = 1;
nodes = (
"48 -295 LINE",
"240 -295 OFFCURVE",
"334 -236 OFFCURVE",
"381 -97 CURVE SMOOTH",
"804 1184 LINE",
"696 1184 LINE",
"358 103 LINE",
"238 1184 LINE",
"130 1184 LINE",
"267 120 LINE SMOOTH",
"274 64 OFFCURVE",
"284 -5 OFFCURVE",
"283 -44 CURVE",
"279 -149 OFFCURVE",
"245 -207 OFFCURVE",
"12 -207 CURVE",
"2 -295 LINE"
);
}
);
width = 767;
},
{
layerId = "BF03A18F-065F-4249-8E16-486B9CB494A0";
paths = (
{
closed = 1;
nodes = (
"113 -356 LINE",
"310 -359 OFFCURVE",
"513 -298 OFFCURVE",
"588 -65 CURVE SMOOTH",
"997 1184 LINE",
"661 1184 LINE",
"492 549 LINE",
"411 1184 LINE",
"75 1184 LINE",
"258 190 LINE SMOOTH",
"265 151 OFFCURVE",
"285 30 OFFCURVE",
"282 -3 CURVE",
"275 -99 OFFCURVE",
"204 -110 OFFCURVE",
"86 -110 CURVE",
"60 -356 LINE"
);
}
);
width = 945;
},
{
layerId = "43161617-4660-4075-B14A-1D8E25AEE542";
paths = (
{
closed = 1;
nodes = (
"40 -296 LINE",
"253 -296 OFFCURVE",
"381 -238 OFFCURVE",
"438 -67 CURVE SMOOTH",
"853 1184 LINE",
"638 1184 LINE",
"386 287 LINE",
"316 1184 LINE",
"101 1184 LINE",
"234 173 LINE SMOOTH",
"241 118 OFFCURVE",
"248 61 OFFCURVE",
"254 10 CURVE",
"266 -105 OFFCURVE",
"226 -135 OFFCURVE",
"29 -135 CURVE",
"12 -296 LINE"
);
}
);
width = 799;
}
);
unicode = 0079;
userData = {
com.fontlab.hintData = {
hhints = (
{
position = -294;
width = 56;
}
);
};
};
},
{
glyphname = z;
lastChange = "2016-08-02 09:50:01 +0000";
layers = (
{
layerId = "6D1B020D-7C4E-4885-9208-B35BA480FE8F";
paths = (
{
closed = 1;
nodes = (
"555 0 LINE",
"563 83 LINE",
"147 83 LINE",
"680 1113 LINE",
"687 1184 LINE",
"192 1184 LINE",
"184 1100 LINE",
"567 1100 LINE",
"32 79 LINE",
"24 0 LINE"
);
}
);
width = 666;
},
{
layerId = "BF03A18F-065F-4249-8E16-486B9CB494A0";
paths = (
{
closed = 1;
nodes = (
"722 0 LINE",
"749 264 LINE",
"423 264 LINE",
"814 960 LINE",
"837 1184 LINE",
"169 1184 LINE",
"141 921 LINE",
"438 921 LINE",
"47 232 LINE",
"22 0 LINE"
);
}
);
width = 825;
},
{
layerId = "43161617-4660-4075-B14A-1D8E25AEE542";
paths = (
{
closed = 1;
nodes = (
"603 0 LINE",
"620 160 LINE",
"261 160 LINE",
"723 1068 LINE",
"735 1184 LINE",
"178 1184 LINE",
"162 1025 LINE",
"492 1025 LINE",
"32 143 LINE",
"17 0 LINE"
);
}
);
width = 707;
}
);
unicode = 007A;
userData = {
com.fontlab.hintData = {
vhints = (
{
position = 6;
width = 676;
}
);
};
};
},
{
glyphname = uniFB01;
lastChange = "2016-08-02 09:50:01 +0000";
layers = (
{
layerId = "6D1B020D-7C4E-4885-9208-B35BA480FE8F";
paths = (
{
closed = 1;
nodes = (
"260 0 LINE",
"377 1107 LINE",
"699 1107 LINE",
"582 0 LINE",
"691 0 LINE",
"815 1184 LINE",
"384 1184 LINE",
"402 1346 LINE SMOOTH",
"416 1480 OFFCURVE",
"436 1526 OFFCURVE",
"528 1526 CURVE SMOOTH",
"553 1526 OFFCURVE",
"585 1521 OFFCURVE",
"612 1515 CURVE",
"621 1598 LINE",
"593 1606 OFFCURVE",
"550 1612 OFFCURVE",
"521 1612 CURVE SMOOTH",
"343 1612 OFFCURVE",
"309 1498 OFFCURVE",
"293 1344 CURVE",
"276 1184 LINE",
"116 1184 LINE",
"108 1107 LINE",
"268 1107 LINE",
"152 0 LINE"
);
},
{
closed = 1;
nodes = (
"832 1339 LINE",
"852 1528 LINE",
"749 1528 LINE",
"729 1339 LINE"
);
}
);
width = 879;
},
{
layerId = "BF03A18F-065F-4249-8E16-486B9CB494A0";
paths = (
{
closed = 1;
nodes = (
"444 0 LINE",
"544 944 LINE",
"752 944 LINE",
"652 0 LINE",
"1010 0 LINE",
"1134 1184 LINE",
"568 1184 LINE",
"579 1284 LINE SMOOTH",
"586 1355 OFFCURVE",
"620 1372 OFFCURVE",
"660 1372 CURVE SMOOTH",
"674 1372 OFFCURVE",
"687 1370 OFFCURVE",
"699 1368 CURVE",
"726 1613 LINE",
"671 1622 OFFCURVE",
"622 1625 OFFCURVE",
"578 1625 CURVE SMOOTH",
"324 1625 OFFCURVE",
"239 1483 OFFCURVE",
"218 1278 CURVE",
"207 1184 LINE",
"101 1184 LINE",
"77 944 LINE",
"183 944 LINE",
"83 0 LINE"
);
},
{
closed = 1;
nodes = (
"1155 1389 LINE",
"1180 1624 LINE",
"844 1624 LINE",
"819 1389 LINE"
);
}
);
width = 1159;
},
{
layerId = "43161617-4660-4075-B14A-1D8E25AEE542";
paths = (
{
closed = 1;
nodes = (
"344 0 LINE",
"452 1026 LINE",
"721 1026 LINE",
"613 0 LINE",
"825 0 LINE",
"949 1184 LINE",
"468 1184 LINE",
"480 1287 LINE SMOOTH",
"491 1396 OFFCURVE",
"513 1438 OFFCURVE",
"599 1438 CURVE SMOOTH",
"621 1438 OFFCURVE",
"647 1436 OFFCURVE",
"675 1431 CURVE",
"692 1589 LINE",
"651 1596 OFFCURVE",
"611 1599 OFFCURVE",
"576 1599 CURVE SMOOTH",
"363 1599 OFFCURVE",
"289 1481 OFFCURVE",
"265 1252 CURVE",
"257 1184 LINE",
"114 1184 LINE",
"98 1026 LINE",
"241 1026 LINE",
"133 0 LINE"
);
},
{
closed = 1;
nodes = (
"968 1358 LINE",
"992 1585 LINE",
"798 1585 LINE",
"774 1358 LINE"
);
}
);
width = 998;
}
);
unicode = FB01;
userData = {
com.fontlab.hintData = {
hhints = (
{
position = 1564;
width = 53;
}
);
};
};
},
{
glyphname = uniFB02;
lastChange = "2016-08-02 09:50:01 +0000";
layers = (
{
layerId = "6D1B020D-7C4E-4885-9208-B35BA480FE8F";
paths = (
{
closed = 1;
nodes = (
"260 0 LINE",
"377 1107 LINE",
"575 1107 LINE",
"582 1184 LINE",
"384 1184 LINE",
"384 1184 OFFCURVE",
"401 1336 OFFCURVE",
"401 1337 CURVE SMOOTH",
"413 1455 OFFCURVE",
"429 1547 OFFCURVE",
"633 1547 CURVE SMOOTH",
"675 1547 OFFCURVE",
"724 1543 OFFCURVE",
"784 1535 CURVE",
"623 0 LINE",
"732 0 LINE",
"900 1598 LINE",
"792 1620 OFFCURVE",
"704 1630 OFFCURVE",
"632 1630 CURVE SMOOTH",
"341 1630 OFFCURVE",
"307 1476 OFFCURVE",
"293 1344 CURVE",
"276 1184 LINE",
"116 1184 LINE",
"108 1107 LINE",
"268 1107 LINE",
"152 0 LINE"
);
}
);
width = 910;
},
{
layerId = "BF03A18F-065F-4249-8E16-486B9CB494A0";
paths = (
{
closed = 1;
nodes = (
"435 0 LINE",
"533 932 LINE",
"644 932 LINE",
"671 1184 LINE",
"559 1184 LINE",
"559 1184 OFFCURVE",
"569 1275 OFFCURVE",
"569 1275 CURVE SMOOTH",
"577 1353 OFFCURVE",
"595 1417 OFFCURVE",
"744 1417 CURVE SMOOTH",
"761 1417 OFFCURVE",
"781 1417 OFFCURVE",
"801 1415 CURVE",
"653 0 LINE",
"1014 0 LINE",
"1184 1613 LINE",
"1006 1643 OFFCURVE",
"860 1657 OFFCURVE",
"742 1657 CURVE SMOOTH",
"281 1657 OFFCURVE",
"226 1456 OFFCURVE",
"208 1278 CURVE",
"198 1184 LINE",
"92 1184 LINE",
"66 932 LINE",
"172 932 LINE",
"74 0 LINE"
);
}
);
width = 1148;
},
{
layerId = "43161617-4660-4075-B14A-1D8E25AEE542";
paths = (
{
closed = 1;
nodes = (
"344 0 LINE",
"452 1026 LINE",
"634 1026 LINE",
"650 1184 LINE",
"468 1184 LINE",
"468 1184 OFFCURVE",
"476 1254 OFFCURVE",
"476 1255 CURVE SMOOTH",
"490 1387 OFFCURVE",
"502 1481 OFFCURVE",
"694 1481 CURVE SMOOTH",
"729 1481 OFFCURVE",
"770 1478 OFFCURVE",
"819 1472 CURVE",
"664 0 LINE",
"877 0 LINE",
"1044 1589 LINE",
"896 1624 OFFCURVE",
"775 1639 OFFCURVE",
"679 1639 CURVE SMOOTH",
"313 1639 OFFCURVE",
"283 1423 OFFCURVE",
"265 1252 CURVE",
"257 1184 LINE",
"114 1184 LINE",
"98 1026 LINE",
"241 1026 LINE",
"133 0 LINE"
);
}
);
width = 1045;
}
);
unicode = FB02;
userData = {
com.fontlab.hintData = {
hhints = (
{
position = 1576;
width = 50;
}
);
};
};
},
{
glyphname = uniFB03;
lastChange = "2016-08-02 09:50:01 +0000";
layers = (
{
layerId = "6D1B020D-7C4E-4885-9208-B35BA480FE8F";
paths = (
{
closed = 1;
nodes = (
"260 0 LINE",
"377 1107 LINE",
"745 1107 LINE",
"629 0 LINE",
"737 0 LINE",
"854 1107 LINE",
"1216 1107 LINE",
"1100 0 LINE",
"1208 0 LINE",
"1332 1184 LINE",
"861 1184 LINE",
"879 1346 LINE SMOOTH",
"892 1475 OFFCURVE",
"911 1527 OFFCURVE",
"1004 1527 CURVE SMOOTH",
"1030 1527 OFFCURVE",
"1063 1520 OFFCURVE",
"1089 1515 CURVE",
"1098 1598 LINE",
"1066 1607 OFFCURVE",
"1025 1612 OFFCURVE",
"991 1612 CURVE SMOOTH",
"811 1612 OFFCURVE",
"786 1494 OFFCURVE",
"770 1344 CURVE",
"753 1184 LINE",
"384 1184 LINE",
"402 1346 LINE SMOOTH",
"415 1475 OFFCURVE",
"434 1527 OFFCURVE",
"527 1527 CURVE SMOOTH",
"553 1527 OFFCURVE",
"586 1520 OFFCURVE",
"612 1515 CURVE",
"621 1598 LINE",
"589 1607 OFFCURVE",
"548 1612 OFFCURVE",
"514 1612 CURVE SMOOTH",
"334 1612 OFFCURVE",
"309 1494 OFFCURVE",
"293 1344 CURVE",
"276 1184 LINE",
"116 1184 LINE",
"108 1107 LINE",
"268 1107 LINE",
"152 0 LINE"
);
},
{
closed = 1;
nodes = (
"1349 1339 LINE",
"1369 1528 LINE",
"1260 1528 LINE",
"1240 1339 LINE"
);
}
);
width = 1396;
},
{
layerId = "BF03A18F-065F-4249-8E16-486B9CB494A0";
paths = (
{
closed = 1;
nodes = (
"435 0 LINE",
"534 946 LINE",
"729 946 LINE",
"629 0 LINE",
"990 0 LINE",
"1090 946 LINE",
"1280 946 LINE",
"1181 0 LINE",
"1542 0 LINE",
"1666 1184 LINE",
"1114 1184 LINE",
"1124 1278 LINE SMOOTH",
"1131 1336 OFFCURVE",
"1159 1353 OFFCURVE",
"1194 1353 CURVE SMOOTH",
"1214 1353 OFFCURVE",
"1235 1348 OFFCURVE",
"1253 1345 CURVE",
"1281 1613 LINE",
"1219 1620 OFFCURVE",
"1190 1623 OFFCURVE",
"1142 1623 CURVE SMOOTH",
"838 1623 OFFCURVE",
"785 1484 OFFCURVE",
"764 1278 CURVE",
"753 1184 LINE",
"559 1184 LINE",
"569 1278 LINE SMOOTH",
"575 1336 OFFCURVE",
"601 1353 OFFCURVE",
"635 1353 CURVE SMOOTH",
"653 1353 OFFCURVE",
"673 1348 OFFCURVE",
"692 1345 CURVE",
"720 1613 LINE",
"658 1620 OFFCURVE",
"635 1623 OFFCURVE",
"586 1623 CURVE SMOOTH",
"282 1623 OFFCURVE",
"230 1484 OFFCURVE",
"208 1278 CURVE",
"198 1184 LINE",
"92 1184 LINE",
"67 946 LINE",
"173 946 LINE",
"74 0 LINE"
);
},
{
closed = 1;
nodes = (
"1688 1389 LINE",
"1713 1624 LINE",
"1386 1624 LINE",
"1361 1389 LINE"
);
}
);
width = 1679;
},
{
layerId = "43161617-4660-4075-B14A-1D8E25AEE542";
paths = (
{
closed = 1;
nodes = (
"344 0 LINE",
"452 1026 LINE",
"732 1026 LINE",
"624 0 LINE",
"835 0 LINE",
"943 1026 LINE",
"1222 1026 LINE",
"1115 0 LINE",
"1326 0 LINE",
"1450 1184 LINE",
"959 1184 LINE",
"971 1287 LINE SMOOTH",
"980 1380 OFFCURVE",
"999 1441 OFFCURVE",
"1086 1441 CURVE SMOOTH",
"1109 1441 OFFCURVE",
"1143 1433 OFFCURVE",
"1166 1431 CURVE",
"1183 1589 LINE",
"1129 1596 OFFCURVE",
"1098 1601 OFFCURVE",
"1045 1601 CURVE SMOOTH",
"824 1601 OFFCURVE",
"778 1466 OFFCURVE",
"755 1252 CURVE",
"748 1184 LINE",
"468 1184 LINE",
"480 1287 LINE SMOOTH",
"490 1380 OFFCURVE",
"509 1441 OFFCURVE",
"595 1441 CURVE SMOOTH",
"619 1441 OFFCURVE",
"652 1433 OFFCURVE",
"675 1431 CURVE",
"692 1589 LINE",
"639 1596 OFFCURVE",
"607 1601 OFFCURVE",
"554 1601 CURVE SMOOTH",
"333 1601 OFFCURVE",
"287 1466 OFFCURVE",
"265 1252 CURVE",
"257 1184 LINE",
"114 1184 LINE",
"98 1026 LINE",
"241 1026 LINE",
"133 0 LINE"
);
},
{
closed = 1;
nodes = (
"1470 1358 LINE",
"1494 1585 LINE",
"1281 1585 LINE",
"1257 1358 LINE"
);
}
);
width = 1500;
}
);
userData = {
com.fontlab.hintData = {
hhints = (
{
position = 1184;
width = 21;
},
{
position = 1552;
width = 50;
},
{
position = 1564;
width = 53;
}
);
};
};
},
{
glyphname = ordfeminine;
lastChange = "2016-08-02 09:50:01 +0000";
layers = (
{
layerId = "6D1B020D-7C4E-4885-9208-B35BA480FE8F";
paths = (
{
closed = 1;
nodes = (
"484 719 OFFCURVE",
"576 775 OFFCURVE",
"620 852 CURVE",
"616 733 LINE",
"698 733 LINE",
"762 1342 LINE SMOOTH",
"786 1576 OFFCURVE",
"743 1680 OFFCURVE",
"563 1680 CURVE SMOOTH",
"400 1680 OFFCURVE",
"303 1598 OFFCURVE",
"281 1424 CURVE",
"371 1422 LINE",
"387 1573 OFFCURVE",
"472 1607 OFFCURVE",
"555 1607 CURVE SMOOTH",
"656 1607 OFFCURVE",
"688 1546 OFFCURVE",
"667 1351 CURVE SMOOTH",
"659 1273 LINE",
"297 1132 OFFCURVE",
"216 1077 OFFCURVE",
"199 921 CURVE SMOOTH",
"186 798 OFFCURVE",
"261 719 OFFCURVE",
"386 719 CURVE"
);
},
{
closed = 1;
nodes = (
"353 794 OFFCURVE",
"284 826 OFFCURVE",
"295 931 CURVE SMOOTH",
"310 1070 OFFCURVE",
"385 1101 OFFCURVE",
"654 1218 CURVE",
"623 927 LINE",
"575 853 OFFCURVE",
"505 794 OFFCURVE",
"415 794 CURVE SMOOTH"
);
}
);
width = 803;
},
{
layerId = "BF03A18F-065F-4249-8E16-486B9CB494A0";
paths = (
{
closed = 1;
nodes = (
"504 638 OFFCURVE",
"583 710 OFFCURVE",
"621 795 CURVE",
"629 656 LINE",
"913 656 LINE",
"988 1376 LINE SMOOTH",
"1006 1550 OFFCURVE",
"905 1682 OFFCURVE",
"676 1682 CURVE SMOOTH",
"423 1682 OFFCURVE",
"253 1578 OFFCURVE",
"226 1319 CURVE",
"538 1309 LINE",
"562 1420 OFFCURVE",
"575 1452 OFFCURVE",
"619 1452 CURVE SMOOTH",
"659 1452 OFFCURVE",
"669 1419 OFFCURVE",
"665 1385 CURVE SMOOTH",
"653 1275 LINE",
"490 1216 OFFCURVE",
"177 1157 OFFCURVE",
"149 885 CURVE SMOOTH",
"136 767 OFFCURVE",
"213 642 OFFCURVE",
"392 638 CURVE"
);
},
{
closed = 1;
nodes = (
"486 840 OFFCURVE",
"452 877 OFFCURVE",
"459 940 CURVE SMOOTH",
"466 1003 OFFCURVE",
"532 1107 OFFCURVE",
"641 1151 CURVE",
"612 881 LINE",
"589 854 OFFCURVE",
"558 840 OFFCURVE",
"532 840 CURVE SMOOTH"
);
}
);
width = 1009;
},
{
layerId = "43161617-4660-4075-B14A-1D8E25AEE542";
paths = (
{
closed = 1;
nodes = (
"482 661 OFFCURVE",
"569 723 OFFCURVE",
"616 803 CURVE",
"604 674 LINE",
"774 674 LINE",
"839 1290 LINE SMOOTH",
"866 1541 OFFCURVE",
"827 1683 OFFCURVE",
"604 1683 CURVE SMOOTH",
"422 1683 OFFCURVE",
"308 1550 OFFCURVE",
"283 1350 CURVE",
"457 1350 LINE",
"468 1454 OFFCURVE",
"506 1530 OFFCURVE",
"586 1530 CURVE SMOOTH",
"661 1530 OFFCURVE",
"669 1453 OFFCURVE",
"659 1348 CURVE SMOOTH",
"648 1242 LINE",
"432 1168 OFFCURVE",
"225 1113 OFFCURVE",
"201 886 CURVE SMOOTH",
"187 756 OFFCURVE",
"264 661 OFFCURVE",
"385 661 CURVE"
);
},
{
closed = 1;
nodes = (
"419 823 OFFCURVE",
"387 861 OFFCURVE",
"395 930 CURVE SMOOTH",
"406 1043 OFFCURVE",
"513 1095 OFFCURVE",
"639 1158 CURVE",
"614 921 LINE",
"585 871 OFFCURVE",
"530 823 OFFCURVE",
"470 823 CURVE SMOOTH"
);
}
);
width = 901;
}
);
unicode = 00AA;
userData = {
com.fontlab.hintData = {
hhints = (
{
position = 744;
width = 38;
},
{
position = 1640;
width = 38;
}
);
vhints = (
{
position = 621;
width = 44;
}
);
};
};
},
{
glyphname = ordmasculine;
lastChange = "2016-08-02 09:50:01 +0000";
layers = (
{
layerId = "6D1B020D-7C4E-4885-9208-B35BA480FE8F";
paths = (
{
closed = 1;
nodes = (
"650 718 OFFCURVE",
"718 843 OFFCURVE",
"736 1018 CURVE SMOOTH",
"774 1381 LINE SMOOTH",
"793 1556 OFFCURVE",
"742 1680 OFFCURVE",
"535 1680 CURVE SMOOTH",
"325 1680 OFFCURVE",
"252 1559 OFFCURVE",
"233 1381 CURVE SMOOTH",
"195 1018 LINE SMOOTH",
"176 840 OFFCURVE",
"217 718 OFFCURVE",
"434 718 CURVE SMOOTH"
);
},
{
closed = 1;
nodes = (
"293 787 OFFCURVE",
"266 884 OFFCURVE",
"281 1020 CURVE SMOOTH",
"318 1379 LINE SMOOTH",
"333 1514 OFFCURVE",
"382 1611 OFFCURVE",
"527 1611 CURVE SMOOTH",
"673 1611 OFFCURVE",
"700 1514 OFFCURVE",
"686 1379 CURVE SMOOTH",
"649 1020 LINE SMOOTH",
"634 884 OFFCURVE",
"587 787 OFFCURVE",
"440 787 CURVE SMOOTH"
);
}
);
width = 803;
},
{
layerId = "BF03A18F-065F-4249-8E16-486B9CB494A0";
paths = (
{
closed = 1;
nodes = (
"725 638 OFFCURVE",
"895 737 OFFCURVE",
"917 946 CURVE SMOOTH",
"961 1375 LINE SMOOTH",
"983 1584 OFFCURVE",
"835 1683 OFFCURVE",
"629 1683 CURVE SMOOTH",
"423 1683 OFFCURVE",
"258 1584 OFFCURVE",
"236 1375 CURVE SMOOTH",
"191 946 LINE SMOOTH",
"169 737 OFFCURVE",
"313 638 OFFCURVE",
"520 638 CURVE SMOOTH"
);
},
{
closed = 1;
nodes = (
"499 848 OFFCURVE",
"476 878 OFFCURVE",
"483 944 CURVE SMOOTH",
"528 1377 LINE SMOOTH",
"535 1443 OFFCURVE",
"565 1472 OFFCURVE",
"607 1472 CURVE SMOOTH",
"652 1472 OFFCURVE",
"677 1445 OFFCURVE",
"670 1377 CURVE SMOOTH",
"624 944 LINE SMOOTH",
"618 876 OFFCURVE",
"586 848 OFFCURVE",
"542 848 CURVE SMOOTH"
);
}
);
width = 1009;
},
{
layerId = "43161617-4660-4075-B14A-1D8E25AEE542";
paths = (
{
closed = 1;
nodes = (
"699 659 OFFCURVE",
"802 814 OFFCURVE",
"824 1034 CURVE SMOOTH",
"854 1309 LINE SMOOTH",
"877 1529 OFFCURVE",
"805 1683 OFFCURVE",
"579 1683 CURVE SMOOTH",
"342 1683 OFFCURVE",
"250 1539 OFFCURVE",
"226 1309 CURVE SMOOTH",
"197 1034 LINE SMOOTH",
"173 804 OFFCURVE",
"233 659 OFFCURVE",
"471 659 CURVE SMOOTH"
);
},
{
closed = 1;
nodes = (
"359 815 OFFCURVE",
"362 928 OFFCURVE",
"375 1056 CURVE SMOOTH",
"399 1286 LINE SMOOTH",
"412 1414 OFFCURVE",
"434 1527 OFFCURVE",
"559 1527 CURVE SMOOTH",
"686 1527 OFFCURVE",
"678 1416 OFFCURVE",
"665 1286 CURVE SMOOTH",
"641 1056 LINE SMOOTH",
"627 927 OFFCURVE",
"610 815 OFFCURVE",
"484 815 CURVE SMOOTH"
);
}
);
width = 901;
}
);
unicode = 00BA;
userData = {
com.fontlab.hintData = {
hhints = (
{
position = 743;
width = 32;
},
{
position = 1647;
width = 31;
}
);
};
};
},
{
glyphname = afii10018;
lastChange = "2016-08-02 09:50:01 +0000";
layers = (
{
layerId = "6D1B020D-7C4E-4885-9208-B35BA480FE8F";
paths = (
{
closed = 1;
nodes = (
"408 0 LINE SMOOTH",
"729 0 OFFCURVE",
"868 194 OFFCURVE",
"897 470 CURVE SMOOTH",
"931 795 OFFCURVE",
"810 959 OFFCURVE",
"504 959 CURVE SMOOTH",
"322 959 LINE",
"387 1573 LINE",
"913 1573 LINE",
"922 1658 LINE",
"283 1658 LINE",
"109 0 LINE"
);
},
{
closed = 1;
nodes = (
"313 868 LINE",
"501 868 LINE SMOOTH",
"744 868 OFFCURVE",
"810 719 OFFCURVE",
"784 472 CURVE SMOOTH",
"758 225 OFFCURVE",
"662 91 OFFCURVE",
"420 91 CURVE SMOOTH",
"231 91 LINE"
);
}
);
width = 962;
},
{
layerId = "BF03A18F-065F-4249-8E16-486B9CB494A0";
paths = (
{
closed = 1;
nodes = (
"518 0 LINE SMOOTH",
"795 0 OFFCURVE",
"1049 61 OFFCURVE",
"1093 479 CURVE SMOOTH",
"1127 799 OFFCURVE",
"966 955 OFFCURVE",
"662 955 CURVE SMOOTH",
"579 955 LINE",
"621 1353 LINE",
"1071 1353 LINE",
"1104 1658 LINE",
"254 1658 LINE",
"80 0 LINE"
);
},
{
closed = 1;
nodes = (
"551 681 LINE",
"589 681 LINE SMOOTH",
"717 681 OFFCURVE",
"732 585 OFFCURVE",
"726 487 CURVE SMOOTH",
"716 343 OFFCURVE",
"670 260 OFFCURVE",
"548 260 CURVE SMOOTH",
"506 260 LINE"
);
}
);
width = 1163;
},
{
layerId = "43161617-4660-4075-B14A-1D8E25AEE542";
paths = (
{
closed = 1;
nodes = (
"377 0 LINE SMOOTH",
"732 0 OFFCURVE",
"908 147 OFFCURVE",
"943 485 CURVE SMOOTH",
"983 861 OFFCURVE",
"823 967 OFFCURVE",
"468 967 CURVE SMOOTH",
"408 967 LINE",
"463 1496 LINE",
"947 1496 LINE",
"963 1658 LINE",
"256 1658 LINE",
"82 0 LINE"
);
},
{
closed = 1;
nodes = (
"391 806 LINE",
"458 806 LINE SMOOTH",
"691 806 OFFCURVE",
"756 713 OFFCURVE",
"732 487 CURVE SMOOTH",
"704 217 OFFCURVE",
"603 162 OFFCURVE",
"395 162 CURVE SMOOTH",
"323 162 LINE"
);
}
);
width = 1009;
}
);
unicode = 0411;
userData = {
com.fontlab.hintData = {
hhints = (
{
position = 0;
width = 61;
},
{
position = 895;
width = 61;
}
);
};
};
},
{
glyphname = afii10019;
lastChange = "2016-08-02 09:50:01 +0000";
layers = (
{
layerId = "6D1B020D-7C4E-4885-9208-B35BA480FE8F";
paths = (
{
closed = 1;
nodes = (
"503 0 LINE SMOOTH",
"822 0 OFFCURVE",
"897 233 OFFCURVE",
"923 483 CURVE SMOOTH",
"939 630 OFFCURVE",
"923 837 OFFCURVE",
"736 894 CURVE",
"900 934 OFFCURVE",
"953 1112 OFFCURVE",
"967 1245 CURVE SMOOTH",
"991 1475 OFFCURVE",
"931 1658 OFFCURVE",
"626 1658 CURVE SMOOTH",
"284 1658 LINE",
"110 0 LINE"
);
},
{
closed = 1;
nodes = (
"311 843 LINE",
"592 843 LINE SMOOTH",
"791 843 OFFCURVE",
"834 679 OFFCURVE",
"814 482 CURVE SMOOTH",
"786 213 OFFCURVE",
"717 88 OFFCURVE",
"498 88 CURVE SMOOTH",
"232 88 LINE"
);
},
{
closed = 1;
nodes = (
"387 1569 LINE",
"592 1569 LINE SMOOTH",
"851 1569 OFFCURVE",
"883 1430 OFFCURVE",
"864 1245 CURVE SMOOTH",
"845 1074 OFFCURVE",
"783 931 OFFCURVE",
"599 931 CURVE SMOOTH",
"320 931 LINE"
);
}
);
width = 1000;
},
{
layerId = "BF03A18F-065F-4249-8E16-486B9CB494A0";
paths = (
{
closed = 1;
nodes = (
"607 0 LINE SMOOTH",
"930 0 OFFCURVE",
"1146 140 OFFCURVE",
"1178 497 CURVE SMOOTH",
"1200 732 OFFCURVE",
"1111 872 OFFCURVE",
"924 890 CURVE",
"1073 919 OFFCURVE",
"1176 1020 OFFCURVE",
"1201 1219 CURVE SMOOTH",
"1252 1609 OFFCURVE",
"979 1658 OFFCURVE",
"699 1658 CURVE SMOOTH",
"254 1658 LINE",
"80 0 LINE"
);
},
{
closed = 1;
nodes = (
"557 745 LINE",
"617 745 LINE SMOOTH",
"769 745 OFFCURVE",
"813 684 OFFCURVE",
"794 503 CURVE SMOOTH",
"779 357 OFFCURVE",
"720 278 OFFCURVE",
"567 278 CURVE SMOOTH",
"508 278 LINE"
);
},
{
closed = 1;
nodes = (
"625 1395 LINE",
"691 1395 LINE SMOOTH",
"805 1395 OFFCURVE",
"863 1316 OFFCURVE",
"852 1209 CURVE SMOOTH",
"838 1083 OFFCURVE",
"800 1001 OFFCURVE",
"641 1001 CURVE SMOOTH",
"584 1001 LINE"
);
}
);
width = 1239;
},
{
layerId = "43161617-4660-4075-B14A-1D8E25AEE542";
paths = (
{
closed = 1;
nodes = (
"521 0 LINE SMOOTH",
"819 0 OFFCURVE",
"963 190 OFFCURVE",
"994 475 CURVE SMOOTH",
"1018 703 OFFCURVE",
"951 844 OFFCURVE",
"759 893 CURVE",
"922 916 OFFCURVE",
"1009 1044 OFFCURVE",
"1030 1243 CURVE SMOOTH",
"1059 1524 OFFCURVE",
"933 1658 OFFCURVE",
"633 1658 CURVE SMOOTH",
"256 1658 LINE",
"82 0 LINE"
);
},
{
closed = 1;
nodes = (
"390 793 LINE",
"535 793 LINE SMOOTH",
"738 793 OFFCURVE",
"801 680 OFFCURVE",
"780 475 CURVE SMOOTH",
"757 256 OFFCURVE",
"693 161 OFFCURVE",
"487 161 CURVE SMOOTH",
"324 161 LINE"
);
},
{
closed = 1;
nodes = (
"463 1492 LINE",
"526 1492 LINE SMOOTH",
"764 1492 OFFCURVE",
"858 1468 OFFCURVE",
"835 1243 CURVE SMOOTH",
"814 1049 OFFCURVE",
"747 963 OFFCURVE",
"553 963 CURVE SMOOTH",
"408 963 LINE"
);
}
);
width = 1068;
}
);
unicode = 0412;
userData = {
com.fontlab.hintData = {
hhints = (
{
position = 0;
width = 56;
},
{
position = 864;
width = 53;
},
{
position = 1602;
width = 56;
}
);
};
};
},
{
glyphname = afii10020;
lastChange = "2016-08-02 09:50:01 +0000";
layers = (
{
layerId = "6D1B020D-7C4E-4885-9208-B35BA480FE8F";
paths = (
{
closed = 1;
nodes = (
"222 0 LINE",
"387 1569 LINE",
"838 1569 LINE",
"848 1658 LINE",
"284 1658 LINE",
"110 0 LINE"
);
}
);
width = 755;
},
{
layerId = "BF03A18F-065F-4249-8E16-486B9CB494A0";
paths = (
{
closed = 1;
nodes = (
"479 0 LINE",
"622 1363 LINE",
"1021 1363 LINE",
"1052 1658 LINE",
"254 1658 LINE",
"80 0 LINE"
);
}
);
width = 986;
},
{
layerId = "43161617-4660-4075-B14A-1D8E25AEE542";
paths = (
{
closed = 1;
nodes = (
"306 0 LINE",
"463 1492 LINE",
"865 1492 LINE",
"882 1658 LINE",
"256 1658 LINE",
"82 0 LINE"
);
}
);
width = 788;
}
);
unicode = 0413;
},
{
glyphname = uni0490;
lastChange = "2016-08-02 09:50:01 +0000";
layers = (
{
layerId = "6D1B020D-7C4E-4885-9208-B35BA480FE8F";
paths = (
{
closed = 1;
nodes = (
"222 0 LINE",
"387 1572 LINE",
"850 1572 LINE",
"878 1837 LINE",
"802 1837 LINE",
"784 1658 LINE",
"283 1658 LINE",
"109 0 LINE"
);
}
);
width = 763;
},
{
layerId = "BF03A18F-065F-4249-8E16-486B9CB494A0";
paths = (
{
closed = 1;
nodes = (
"479 0 LINE",
"622 1363 LINE",
"1021 1363 LINE",
"1081 1939 LINE",
"850 1939 LINE",
"821 1658 LINE",
"254 1658 LINE",
"80 0 LINE"
);
}
);
width = 984;
},
{
layerId = "43161617-4660-4075-B14A-1D8E25AEE542";
paths = (
{
closed = 1;
nodes = (
"306 0 LINE",
"463 1492 LINE",
"867 1492 LINE",
"907 1878 LINE",
"766 1878 LINE",
"744 1658 LINE",
"256 1658 LINE",
"82 0 LINE"
);
}
);
width = 771;
}
);
unicode = 0490;
},
{
glyphname = afii10021;
lastChange = "2016-08-02 09:50:01 +0000";
layers = (
{
layerId = "6D1B020D-7C4E-4885-9208-B35BA480FE8F";
paths = (
{
closed = 1;
nodes = (
"37 -275 LINE",
"77 0 LINE",
"951 0 LINE",
"934 -275 LINE",
"1024 -275 LINE",
"1062 87 LINE",
"941 87 LINE",
"1106 1658 LINE",
"523 1658 LINE",
"421 1094 LINE SMOOTH",
"260 204 OFFCURVE",
"193 174 OFFCURVE",
"43 87 CURVE",
"-15 87 LINE",
"-53 -275 LINE"
);
},
{
closed = 1;
nodes = (
"291 162 OFFCURVE",
"363 189 OFFCURVE",
"524 1073 CURVE",
"616 1572 LINE",
"985 1572 LINE",
"829 87 LINE",
"170 87 LINE"
);
}
);
width = 1156;
},
{
layerId = "BF03A18F-065F-4249-8E16-486B9CB494A0";
paths = (
{
closed = 1;
nodes = (
"222 -372 LINE",
"282 0 LINE",
"1090 0 LINE",
"1071 -372 LINE",
"1328 -372 LINE",
"1398 285 LINE",
"1202 285 LINE",
"1346 1658 LINE",
"558 1658 LINE",
"446 1058 LINE SMOOTH",
"352 545 OFFCURVE",
"229 324 OFFCURVE",
"61 285 CURVE",
"20 285 LINE",
"-50 -372 LINE"
);
},
{
closed = 1;
nodes = (
"548 373 OFFCURVE",
"672 474 OFFCURVE",
"767 1026 CURVE",
"825 1377 LINE",
"949 1377 LINE",
"834 285 LINE",
"437 285 LINE"
);
}
);
width = 1452;
},
{
layerId = "43161617-4660-4075-B14A-1D8E25AEE542";
paths = (
{
closed = 1;
nodes = (
"115 -300 LINE",
"165 0 LINE",
"990 0 LINE",
"977 -300 LINE",
"1150 -300 LINE",
"1199 161 LINE",
"1042 161 LINE",
"1199 1658 LINE",
"510 1658 LINE",
"432 1163 LINE SMOOTH",
"311 395 OFFCURVE",
"194 258 OFFCURVE",
"65 161 CURVE",
"-10 161 LINE",
"-59 -300 LINE"
);
},
{
closed = 1;
nodes = (
"405 272 OFFCURVE",
"515 361 OFFCURVE",
"627 1110 CURVE",
"684 1492 LINE",
"958 1492 LINE",
"818 161 LINE",
"275 161 LINE"
);
}
);
width = 1276;
}
);
unicode = 0414;
userData = {
com.fontlab.hintData = {
hhints = (
{
position = 0;
width = 55;
}
);
};
};
},
{
glyphname = afii10024;
lastChange = "2016-08-02 09:50:01 +0000";
layers = (
{
layerId = "6D1B020D-7C4E-4885-9208-B35BA480FE8F";
paths = (
{
closed = 1;
nodes = (
"111 0 LINE",
"602 844 LINE",
"624 844 LINE",
"535 0 LINE",
"637 0 LINE",
"726 844 LINE",
"747 844 LINE",
"1061 0 LINE",
"1172 0 LINE",
"836 866 LINE",
"1307 1658 LINE",
"1199 1658 LINE",
"744 873 LINE",
"729 873 LINE",
"811 1658 LINE",
"709 1658 LINE",
"627 873 LINE",
"611 873 LINE",
"321 1658 LINE",
"214 1658 LINE",
"519 866 LINE",
"1 0 LINE"
);
}
);
width = 1258;
},
{
layerId = "BF03A18F-065F-4249-8E16-486B9CB494A0";
paths = (
{
closed = 1;
nodes = (
"315 0 LINE",
"702 799 LINE",
"721 799 LINE",
"637 0 LINE",
"948 0 LINE",
"1033 799 LINE",
"1052 799 LINE",
"1271 0 LINE",
"1623 0 LINE",
"1370 830 LINE",
"1795 1658 LINE",
"1425 1658 LINE",
"1062 888 LINE",
"1042 888 LINE",
"1122 1658 LINE",
"811 1658 LINE",
"731 888 LINE",
"711 888 LINE",
"508 1658 LINE",
"138 1658 LINE",
"390 830 LINE",
"-38 0 LINE"
);
}
);
width = 1686;
},
{
layerId = "43161617-4660-4075-B14A-1D8E25AEE542";
paths = (
{
closed = 1;
nodes = (
"181 0 LINE",
"617 831 LINE",
"632 831 LINE",
"545 0 LINE",
"735 0 LINE",
"822 831 LINE",
"838 831 LINE",
"1099 0 LINE",
"1319 0 LINE",
"1019 849 LINE",
"1454 1658 LINE",
"1237 1658 LINE",
"839 860 LINE",
"825 860 LINE",
"909 1658 LINE",
"719 1658 LINE",
"635 860 LINE",
"622 860 LINE",
"391 1658 LINE",
"174 1658 LINE",
"439 849 LINE",
"-39 0 LINE"
);
}
);
width = 1377;
}
);
unicode = 0416;
},
{
glyphname = afii10025;
lastChange = "2016-08-02 09:50:01 +0000";
layers = (
{
layerId = "6D1B020D-7C4E-4885-9208-B35BA480FE8F";
paths = (
{
closed = 1;
nodes = (
"718 -22 OFFCURVE",
"847 169 OFFCURVE",
"876 443 CURVE SMOOTH",
"905 729 OFFCURVE",
"780 837 OFFCURVE",
"678 862 CURVE",
"815 889 OFFCURVE",
"936 1017 OFFCURVE",
"962 1268 CURVE SMOOTH",
"986 1500 OFFCURVE",
"888 1677 OFFCURVE",
"634 1677 CURVE SMOOTH",
"358 1677 OFFCURVE",
"243 1522 OFFCURVE",
"218 1291 CURVE SMOOTH",
"216 1264 LINE",
"319 1264 LINE",
"319 1269 OFFCURVE",
"322 1289 OFFCURVE",
"322 1294 CURVE SMOOTH",
"348 1511 OFFCURVE",
"452 1590 OFFCURVE",
"628 1590 CURVE SMOOTH",
"816 1590 OFFCURVE",
"870 1456 OFFCURVE",
"850 1270 CURVE SMOOTH",
"825 1025 OFFCURVE",
"734 907 OFFCURVE",
"523 904 CURVE SMOOTH",
"518 904 OFFCURVE",
"424 904 OFFCURVE",
"420 904 CURVE",
"411 821 LINE",
"416 821 OFFCURVE",
"510 821 OFFCURVE",
"515 821 CURVE SMOOTH",
"725 816 OFFCURVE",
"786 660 OFFCURVE",
"763 440 CURVE SMOOTH",
"732 145 OFFCURVE",
"605 66 OFFCURVE",
"451 66 CURVE SMOOTH",
"280 66 OFFCURVE",
"219 171 OFFCURVE",
"237 361 CURVE SMOOTH",
"237 366 OFFCURVE",
"240 394 OFFCURVE",
"241 399 CURVE",
"138 399 LINE",
"135 368 LINE",
"111 134 OFFCURVE",
"191 -22 OFFCURVE",
"441 -22 CURVE SMOOTH"
);
}
);
width = 942;
},
{
layerId = "BF03A18F-065F-4249-8E16-486B9CB494A0";
paths = (
{
closed = 1;
nodes = (
"846 -34 OFFCURVE",
"994 186 OFFCURVE",
"1026 492 CURVE SMOOTH",
"1050 731 OFFCURVE",
"973 824 OFFCURVE",
"870 866 CURVE",
"980 893 OFFCURVE",
"1083 1039 OFFCURVE",
"1103 1231 CURVE SMOOTH",
"1135 1534 OFFCURVE",
"969 1687 OFFCURVE",
"678 1687 CURVE SMOOTH",
"393 1687 OFFCURVE",
"185 1520 OFFCURVE",
"152 1214 CURVE SMOOTH",
"141 1102 LINE",
"513 1102 LINE",
"513 1104 OFFCURVE",
"523 1202 OFFCURVE",
"524 1203 CURVE SMOOTH",
"537 1314 OFFCURVE",
"567 1390 OFFCURVE",
"644 1390 CURVE SMOOTH",
"721 1390 OFFCURVE",
"747 1327 OFFCURVE",
"733 1203 CURVE SMOOTH",
"716 1040 OFFCURVE",
"679 960 OFFCURVE",
"531 959 CURVE SMOOTH",
"530 959 OFFCURVE",
"441 959 OFFCURVE",
"440 959 CURVE",
"414 722 LINE",
"416 722 OFFCURVE",
"511 722 OFFCURVE",
"513 722 CURVE SMOOTH",
"655 721 OFFCURVE",
"675 642 OFFCURVE",
"658 480 CURVE SMOOTH",
"643 340 OFFCURVE",
"621 280 OFFCURVE",
"544 280 CURVE SMOOTH",
"465 280 OFFCURVE",
"447 334 OFFCURVE",
"464 503 CURVE SMOOTH",
"465 505 OFFCURVE",
"471 567 OFFCURVE",
"471 569 CURVE",
"99 569 LINE",
"92 510 LINE",
"59 188 OFFCURVE",
"138 -34 OFFCURVE",
"505 -34 CURVE SMOOTH"
);
}
);
width = 1099;
},
{
layerId = "43161617-4660-4075-B14A-1D8E25AEE542";
paths = (
{
closed = 1;
nodes = (
"733 -18 OFFCURVE",
"869 173 OFFCURVE",
"900 466 CURVE SMOOTH",
"924 694 OFFCURVE",
"846 829 OFFCURVE",
"705 875 CURVE",
"851 916 OFFCURVE",
"960 1042 OFFCURVE",
"981 1246 CURVE SMOOTH",
"1010 1509 OFFCURVE",
"873 1675 OFFCURVE",
"603 1675 CURVE SMOOTH",
"331 1675 OFFCURVE",
"166 1514 OFFCURVE",
"139 1252 CURVE SMOOTH",
"132 1199 LINE",
"344 1199 LINE",
"346 1215 OFFCURVE",
"349 1235 OFFCURVE",
"351 1250 CURVE SMOOTH",
"376 1402 OFFCURVE",
"445 1501 OFFCURVE",
"593 1501 CURVE SMOOTH",
"743 1501 OFFCURVE",
"785 1398 OFFCURVE",
"768 1246 CURVE SMOOTH",
"750 1067 OFFCURVE",
"672 966 OFFCURVE",
"460 954 CURVE SMOOTH",
"445 953 OFFCURVE",
"414 953 OFFCURVE",
"398 953 CURVE",
"380 783 LINE",
"397 783 OFFCURVE",
"430 782 OFFCURVE",
"444 781 CURVE SMOOTH",
"656 767 OFFCURVE",
"705 641 OFFCURVE",
"687 465 CURVE SMOOTH",
"666 276 OFFCURVE",
"618 157 OFFCURVE",
"459 157 CURVE SMOOTH",
"313 157 OFFCURVE",
"285 259 OFFCURVE",
"295 401 CURVE SMOOTH",
"296 419 OFFCURVE",
"298 441 OFFCURVE",
"300 459 CURVE",
"89 459 LINE",
"83 405 LINE",
"55 142 OFFCURVE",
"171 -18 OFFCURVE",
"440 -18 CURVE SMOOTH"
);
}
);
width = 981;
}
);
unicode = 0417;
userData = {
com.fontlab.hintData = {
hhints = (
{
position = -24;
width = 51;
},
{
position = 838;
width = 44;
},
{
position = 1628;
width = 50;
}
);
};
};
},
{
glyphname = afii10026;
lastChange = "2016-08-02 09:50:01 +0000";
layers = (
{
layerId = "6D1B020D-7C4E-4885-9208-B35BA480FE8F";
paths = (
{
closed = 1;
nodes = (
"204 0 LINE",
"918 1413 LINE",
"769 0 LINE",
"870 0 LINE",
"1044 1658 LINE",
"951 1658 LINE",
"235 245 LINE",
"383 1658 LINE",
"283 1658 LINE",
"109 0 LINE"
);
}
);
width = 1064;
},
{
layerId = "BF03A18F-065F-4249-8E16-486B9CB494A0";
paths = (
{
closed = 1;
nodes = (
"313 0 LINE",
"831 918 LINE",
"734 0 LINE",
"1050 0 LINE",
"1224 1658 LINE",
"970 1658 LINE",
"468 756 LINE",
"563 1658 LINE",
"254 1658 LINE",
"80 0 LINE"
);
}
);
width = 1230;
},
{
layerId = "43161617-4660-4075-B14A-1D8E25AEE542";
paths = (
{
closed = 1;
nodes = (
"249 0 LINE",
"860 1183 LINE",
"736 0 LINE",
"933 0 LINE",
"1107 1658 LINE",
"945 1658 LINE",
"331 493 LINE",
"454 1658 LINE",
"256 1658 LINE",
"82 0 LINE"
);
}
);
width = 1113;
}
);
unicode = 0418;
},
{
glyphname = afii10028;
lastChange = "2016-08-02 09:50:01 +0000";
layers = (
{
layerId = "6D1B020D-7C4E-4885-9208-B35BA480FE8F";
paths = (
{
closed = 1;
nodes = (
"222 0 LINE",
"307 815 LINE",
"446 815 LINE",
"787 0 LINE",
"901 0 LINE",
"547 854 LINE",
"1011 1658 LINE",
"897 1658 LINE",
"452 881 LINE",
"314 881 LINE",
"396 1658 LINE",
"283 1658 LINE",
"109 0 LINE"
);
}
);
width = 960;
},
{
layerId = "BF03A18F-065F-4249-8E16-486B9CB494A0";
paths = (
{
closed = 1;
nodes = (
"479 0 LINE",
"553 703 LINE",
"576 703 LINE",
"722 0 LINE",
"1133 0 LINE",
"926 882 LINE",
"1303 1658 LINE",
"909 1658 LINE",
"610 1019 LINE",
"586 1019 LINE",
"653 1658 LINE",
"254 1658 LINE",
"80 0 LINE"
);
}
);
width = 1205;
},
{
layerId = "43161617-4660-4075-B14A-1D8E25AEE542";
paths = (
{
closed = 1;
nodes = (
"306 0 LINE",
"391 809 LINE",
"482 809 LINE",
"738 0 LINE",
"963 0 LINE",
"682 869 LINE",
"1095 1658 LINE",
"870 1658 LINE",
"493 919 LINE",
"403 919 LINE",
"480 1658 LINE",
"256 1658 LINE",
"82 0 LINE"
);
}
);
width = 1035;
}
);
unicode = 041A;
},
{
glyphname = afii10029;
lastChange = "2016-08-02 09:50:01 +0000";
layers = (
{
layerId = "6D1B020D-7C4E-4885-9208-B35BA480FE8F";
paths = (
{
closed = 1;
nodes = (
"339 3 OFFCURVE",
"349 107 OFFCURVE",
"526 1040 CURVE SMOOTH",
"622 1572 LINE",
"1000 1572 LINE",
"834 0 LINE",
"947 0 LINE",
"1121 1658 LINE",
"528 1658 LINE",
"417 1041 LINE SMOOTH",
"243 107 OFFCURVE",
"238 97 OFFCURVE",
"17 84 CURVE",
"8 -5 LINE"
);
}
);
width = 1141;
},
{
layerId = "BF03A18F-065F-4249-8E16-486B9CB494A0";
paths = (
{
closed = 1;
nodes = (
"571 -30 OFFCURVE",
"583 148 OFFCURVE",
"706 863 CURVE SMOOTH",
"790 1353 LINE",
"943 1353 LINE",
"801 0 LINE",
"1200 0 LINE",
"1374 1658 LINE",
"459 1658 LINE",
"332 949 LINE SMOOTH",
"219 323 OFFCURVE",
"241 277 OFFCURVE",
"-4 278 CURVE",
"-33 0 LINE"
);
}
);
width = 1380;
},
{
layerId = "43161617-4660-4075-B14A-1D8E25AEE542";
paths = (
{
closed = 1;
nodes = (
"333 -26 OFFCURVE",
"428 235 OFFCURVE",
"522 793 CURVE SMOOTH",
"635 1492 LINE",
"939 1492 LINE",
"782 0 LINE",
"1006 0 LINE",
"1180 1658 LINE",
"458 1658 LINE",
"313 793 LINE SMOOTH",
"210 194 OFFCURVE",
"133 163 OFFCURVE",
"-23 167 CURVE",
"-42 -1 LINE"
);
}
);
width = 1186;
}
);
unicode = 041B;
userData = {
com.fontlab.hintData = {
hhints = (
{
position = -7;
width = 55;
}
);
};
};
},
{
glyphname = afii10030;
lastChange = "2016-08-02 09:50:01 +0000";
layers = (
{
layerId = "6D1B020D-7C4E-4885-9208-B35BA480FE8F";
paths = (
{
closed = 1;
nodes = (
"186 0 LINE",
"368 1362 LINE",
"562 0 LINE",
"644 0 LINE",
"1128 1366 LINE",
"1024 0 LINE",
"1119 0 LINE",
"1246 1658 LINE",
"1135 1658 LINE",
"621 182 LINE",
"418 1658 LINE",
"314 1658 LINE",
"90 0 LINE"
);
}
);
width = 1294;
},
{
layerId = "BF03A18F-065F-4249-8E16-486B9CB494A0";
paths = (
{
closed = 1;
nodes = (
"347 0 LINE",
"488 1081 LINE",
"589 0 LINE",
"787 0 LINE",
"1102 1072 LINE",
"1020 0 LINE",
"1298 0 LINE",
"1445 1658 LINE",
"1030 1658 LINE",
"765 791 LINE",
"698 1658 LINE",
"266 1658 LINE",
"65 0 LINE"
);
}
);
width = 1463;
},
{
layerId = "43161617-4660-4075-B14A-1D8E25AEE542";
paths = (
{
closed = 1;
nodes = (
"255 0 LINE",
"388 1132 LINE",
"562 0 LINE",
"689 0 LINE",
"1102 1132 LINE",
"997 0 LINE",
"1174 0 LINE",
"1316 1658 LINE",
"1115 1658 LINE",
"663 368 LINE",
"484 1658 LINE",
"283 1658 LINE",
"77 0 LINE"
);
}
);
width = 1348;
}
);
unicode = 041C;
userData = {
com.fontlab.hintData = {
vhints = (
{
position = 36;
width = 290;
},
{
position = 63;
width = 291;
},
{
position = 962;
width = 291;
},
{
position = 994;
width = 286;
}
);
};
};
},
{
glyphname = afii10033;
lastChange = "2016-08-02 09:50:01 +0000";
layers = (
{
layerId = "6D1B020D-7C4E-4885-9208-B35BA480FE8F";
paths = (
{
closed = 1;
nodes = (
"222 0 LINE",
"388 1573 LINE",
"974 1573 LINE",
"808 0 LINE",
"920 0 LINE",
"1094 1658 LINE",
"284 1658 LINE",
"110 0 LINE"
);
}
);
width = 1116;
},
{
layerId = "BF03A18F-065F-4249-8E16-486B9CB494A0";
paths = (
{
closed = 1;
nodes = (
"462 0 LINE",
"606 1372 LINE",
"836 1372 LINE",
"692 0 LINE",
"1084 0 LINE",
"1258 1658 LINE",
"244 1658 LINE",
"70 0 LINE"
);
}
);
width = 1255;
},
{
layerId = "43161617-4660-4075-B14A-1D8E25AEE542";
paths = (
{
closed = 1;
nodes = (
"306 0 LINE",
"464 1498 LINE",
"922 1498 LINE",
"764 0 LINE",
"988 0 LINE",
"1162 1658 LINE",
"256 1658 LINE",
"82 0 LINE"
);
}
);
width = 1168;
}
);
unicode = 041F;
},
{
glyphname = afii10034;
lastChange = "2016-08-02 09:50:01 +0000";
layers = (
{
layerId = "6D1B020D-7C4E-4885-9208-B35BA480FE8F";
paths = (
{
closed = 1;
nodes = (
"222 0 LINE",
"306 792 LINE",
"585 792 LINE SMOOTH",
"881 792 OFFCURVE",
"992 1010 OFFCURVE",
"1015 1230 CURVE SMOOTH",
"1041 1477 OFFCURVE",
"972 1658 OFFCURVE",
"674 1658 CURVE SMOOTH",
"284 1658 LINE",
"110 0 LINE"
);
},
{
closed = 1;
nodes = (
"388 1572 LINE",
"645 1572 LINE SMOOTH",
"858 1572 OFFCURVE",
"929 1497 OFFCURVE",
"901 1230 CURVE SMOOTH",
"874 972 OFFCURVE",
"770 879 OFFCURVE",
"570 879 CURVE SMOOTH",
"315 879 LINE"
);
}
);
width = 977;
},
{
layerId = "BF03A18F-065F-4249-8E16-486B9CB494A0";
paths = (
{
closed = 1;
nodes = (
"470 0 LINE",
"542 689 LINE",
"681 689 LINE SMOOTH",
"949 689 OFFCURVE",
"1186 760 OFFCURVE",
"1230 1172 CURVE SMOOTH",
"1263 1485 OFFCURVE",
"1134 1658 OFFCURVE",
"836 1658 CURVE SMOOTH",
"244 1658 LINE",
"70 0 LINE"
);
},
{
closed = 1;
nodes = (
"614 1379 LINE",
"738 1379 LINE SMOOTH",
"866 1379 OFFCURVE",
"867 1279 OFFCURVE",
"857 1180 CURVE SMOOTH",
"842 1042 OFFCURVE",
"820 965 OFFCURVE",
"698 965 CURVE SMOOTH",
"571 965 LINE"
);
}
);
width = 1206;
},
{
layerId = "43161617-4660-4075-B14A-1D8E25AEE542";
paths = (
{
closed = 1;
nodes = (
"306 0 LINE",
"388 773 LINE",
"575 773 LINE SMOOTH",
"848 773 OFFCURVE",
"1000 940 OFFCURVE",
"1028 1202 CURVE SMOOTH",
"1058 1488 OFFCURVE",
"963 1658 OFFCURVE",
"667 1658 CURVE SMOOTH",
"256 1658 LINE",
"82 0 LINE"
);
},
{
closed = 1;
nodes = (
"464 1497 LINE",
"582 1497 LINE SMOOTH",
"813 1497 OFFCURVE",
"840 1438 OFFCURVE",
"814 1201 CURVE SMOOTH",
"793 992 OFFCURVE",
"719 934 OFFCURVE",
"519 934 CURVE SMOOTH",
"405 934 LINE"
);
}
);
width = 980;
}
);
unicode = 0420;
userData = {
com.fontlab.hintData = {
hhints = (
{
position = 800;
width = 55;
},
{
position = 1604;
width = 54;
}
);
};
};
},
{
glyphname = afii10037;
lastChange = "2016-08-02 09:50:01 +0000";
layers = (
{
layerId = "6D1B020D-7C4E-4885-9208-B35BA480FE8F";
paths = (
{
closed = 1;
nodes = (
"409 -197 OFFCURVE",
"429 -111 OFFCURVE",
"533 214 CURVE SMOOTH",
"1014 1658 LINE",
"902 1658 LINE",
"657 896 LINE",
"488 354 LINE",
"418 892 LINE",
"310 1658 LINE",
"199 1658 LINE",
"419 223 LINE SMOOTH",
"362 -47 OFFCURVE",
"341 -107 OFFCURVE",
"73 -102 CURVE",
"62 -190 LINE"
);
}
);
width = 926;
},
{
layerId = "BF03A18F-065F-4249-8E16-486B9CB494A0";
paths = (
{
closed = 1;
nodes = (
"465 -348 OFFCURVE",
"636 -285 OFFCURVE",
"765 99 CURVE SMOOTH",
"1284 1658 LINE",
"909 1658 LINE",
"720 986 LINE",
"631 559 LINE",
"613 985 LINE",
"539 1658 LINE",
"171 1658 LINE",
"396 163 LINE SMOOTH",
"426 -37 OFFCURVE",
"270 -91 OFFCURVE",
"50 -88 CURVE",
"23 -346 LINE"
);
}
);
width = 1183;
},
{
layerId = "43161617-4660-4075-B14A-1D8E25AEE542";
paths = (
{
closed = 1;
nodes = (
"484 -273 OFFCURVE",
"470 -153 OFFCURVE",
"572 183 CURVE SMOOTH",
"1026 1658 LINE",
"811 1658 LINE",
"609 945 LINE",
"478 422 LINE",
"447 948 LINE",
"378 1658 LINE",
"167 1658 LINE",
"342 187 LINE SMOOTH",
"348 -22 OFFCURVE",
"333 -102 OFFCURVE",
"54 -75 CURVE",
"35 -248 LINE"
);
}
);
width = 925;
}
);
unicode = 0423;
userData = {
com.fontlab.hintData = {
hhints = (
{
position = -165;
width = 52;
}
);
};
};
},
{
glyphname = afii10038;
lastChange = "2016-08-02 09:50:01 +0000";
layers = (
{
layerId = "6D1B020D-7C4E-4885-9208-B35BA480FE8F";
paths = (
{
closed = 1;
nodes = (
"606 -114 LINE",
"638 185 LINE",
"666 182 OFFCURVE",
"722 180 OFFCURVE",
"741 180 CURVE",
"961 173 OFFCURVE",
"1087 310 OFFCURVE",
"1117 595 CURVE SMOOTH",
"1168 1079 LINE SMOOTH",
"1198 1370 OFFCURVE",
"1100 1521 OFFCURVE",
"873 1517 CURVE",
"857 1517 OFFCURVE",
"804 1515 OFFCURVE",
"778 1513 CURVE",
"809 1808 LINE",
"696 1808 LINE",
"665 1512 LINE",
"643 1514 OFFCURVE",
"598 1515 OFFCURVE",
"585 1515 CURVE",
"353 1519 OFFCURVE",
"219 1370 OFFCURVE",
"189 1079 CURVE SMOOTH",
"138 595 LINE SMOOTH",
"108 308 OFFCURVE",
"206 174 OFFCURVE",
"427 180 CURVE",
"444 180 OFFCURVE",
"497 182 OFFCURVE",
"525 184 CURVE",
"494 -114 LINE"
);
},
{
closed = 1;
nodes = (
"270 252 OFFCURVE",
"221 364 OFFCURVE",
"245 595 CURVE SMOOTH",
"296 1079 LINE SMOOTH",
"320 1313 OFFCURVE",
"397 1443 OFFCURVE",
"584 1440 CURVE SMOOTH",
"597 1440 OFFCURVE",
"634 1439 OFFCURVE",
"657 1436 CURVE",
"534 260 LINE",
"506 257 OFFCURVE",
"467 256 OFFCURVE",
"451 256 CURVE SMOOTH"
);
},
{
closed = 1;
nodes = (
"716 256 OFFCURVE",
"672 257 OFFCURVE",
"646 260 CURVE",
"770 1436 LINE",
"794 1438 OFFCURVE",
"835 1440 OFFCURVE",
"849 1440 CURVE SMOOTH",
"1036 1443 OFFCURVE",
"1086 1313 OFFCURVE",
"1062 1079 CURVE SMOOTH",
"1011 595 LINE SMOOTH",
"987 364 OFFCURVE",
"913 252 OFFCURVE",
"732 256 CURVE SMOOTH"
);
}
);
width = 1215;
},
{
layerId = "BF03A18F-065F-4249-8E16-486B9CB494A0";
paths = (
{
closed = 1;
nodes = (
"899 -56 LINE",
"925 182 LINE",
"925 182 OFFCURVE",
"967 180 OFFCURVE",
"967 180 CURVE",
"1259 156 OFFCURVE",
"1493 345 OFFCURVE",
"1517 577 CURVE SMOOTH",
"1572 1097 LINE SMOOTH",
"1596 1328 OFFCURVE",
"1403 1518 OFFCURVE",
"1090 1494 CURVE",
"1062 1493 LINE",
"1089 1744 LINE",
"779 1744 LINE",
"752 1492 LINE",
"710 1494 LINE",
"420 1518 OFFCURVE",
"185 1329 OFFCURVE",
"161 1098 CURVE SMOOTH",
"106 578 LINE SMOOTH",
"82 346 OFFCURVE",
"274 156 OFFCURVE",
"587 180 CURVE",
"615 181 LINE",
"589 -56 LINE"
);
},
{
closed = 1;
nodes = (
"489 428 OFFCURVE",
"448 506 OFFCURVE",
"454 572 CURVE SMOOTH",
"510 1103 LINE SMOOTH",
"517 1171 OFFCURVE",
"576 1256 OFFCURVE",
"694 1260 CURVE SMOOTH",
"704 1261 OFFCURVE",
"717 1260 OFFCURVE",
"728 1259 CURVE",
"641 430 LINE",
"631 429 OFFCURVE",
"619 428 OFFCURVE",
"610 428 CURVE SMOOTH"
);
},
{
closed = 1;
nodes = (
"975 429 OFFCURVE",
"962 430 OFFCURVE",
"951 430 CURVE",
"1038 1260 LINE",
"1068 1260 LINE SMOOTH",
"1189 1254 OFFCURVE",
"1230 1169 OFFCURVE",
"1223 1102 CURVE SMOOTH",
"1167 571 LINE SMOOTH",
"1159 501 OFFCURVE",
"1100 428 OFFCURVE",
"985 429 CURVE SMOOTH"
);
}
);
width = 1602;
},
{
layerId = "43161617-4660-4075-B14A-1D8E25AEE542";
paths = (
{
closed = 1;
nodes = (
"725 -76 LINE",
"755 203 LINE",
"760 202 OFFCURVE",
"831 200 OFFCURVE",
"834 200 CURVE",
"1081 179 OFFCURVE",
"1231 306 OFFCURVE",
"1265 635 CURVE SMOOTH",
"1309 1053 LINE SMOOTH",
"1344 1385 OFFCURVE",
"1220 1506 OFFCURVE",
"969 1492 CURVE",
"966 1492 OFFCURVE",
"895 1491 OFFCURVE",
"890 1490 CURVE",
"923 1808 LINE",
"699 1808 LINE",
"666 1490 LINE",
"662 1490 OFFCURVE",
"600 1491 OFFCURVE",
"597 1491 CURVE",
"347 1505 OFFCURVE",
"197 1383 OFFCURVE",
"162 1053 CURVE SMOOTH",
"119 635 LINE SMOOTH",
"84 304 OFFCURVE",
"207 180 OFFCURVE",
"458 200 CURVE",
"461 200 OFFCURVE",
"525 202 OFFCURVE",
"531 203 CURVE",
"501 -76 LINE"
);
},
{
closed = 1;
nodes = (
"315 325 OFFCURVE",
"298 400 OFFCURVE",
"323 635 CURVE SMOOTH",
"366 1053 LINE SMOOTH",
"391 1289 OFFCURVE",
"425 1367 OFFCURVE",
"616 1356 CURVE SMOOTH",
"619 1356 OFFCURVE",
"647 1355 OFFCURVE",
"651 1355 CURVE",
"544 337 LINE",
"539 337 OFFCURVE",
"510 335 OFFCURVE",
"507 335 CURVE SMOOTH"
);
},
{
closed = 1;
nodes = (
"810 335 OFFCURVE",
"773 337 OFFCURVE",
"768 337 CURVE",
"875 1355 LINE",
"880 1355 OFFCURVE",
"917 1356 OFFCURVE",
"919 1356 CURVE SMOOTH",
"1113 1367 OFFCURVE",
"1130 1289 OFFCURVE",
"1105 1053 CURVE SMOOTH",
"1061 635 LINE SMOOTH",
"1036 400 OFFCURVE",
"1004 325 OFFCURVE",
"813 335 CURVE SMOOTH"
);
}
);
width = 1347;
}
);
unicode = 0424;
userData = {
com.fontlab.hintData = {
hhints = (
{
position = 171;
width = 50;
},
{
position = 1476;
width = 52;
}
);
};
};
},
{
glyphname = afii10041;
lastChange = "2016-08-02 09:50:01 +0000";
layers = (
{
layerId = "6D1B020D-7C4E-4885-9208-B35BA480FE8F";
paths = (
{
closed = 1;
nodes = (
"838 0 LINE",
"1012 1658 LINE",
"900 1658 LINE",
"816 853 LINE",
"753 831 OFFCURVE",
"669 816 OFFCURVE",
"584 816 CURVE SMOOTH",
"404 816 OFFCURVE",
"267 867 OFFCURVE",
"291 1092 CURVE SMOOTH",
"350 1658 LINE",
"244 1658 LINE",
"185 1091 LINE SMOOTH",
"158 832 OFFCURVE",
"307 734 OFFCURVE",
"559 734 CURVE SMOOTH",
"634 734 OFFCURVE",
"717 746 OFFCURVE",
"807 771 CURVE",
"726 0 LINE"
);
}
);
width = 1034;
},
{
layerId = "BF03A18F-065F-4249-8E16-486B9CB494A0";
paths = (
{
closed = 1;
nodes = (
"1095 0 LINE",
"1269 1658 LINE",
"870 1658 LINE",
"790 899 LINE",
"765 896 OFFCURVE",
"740 894 OFFCURVE",
"717 894 CURVE SMOOTH",
"534 894 OFFCURVE",
"536 967 OFFCURVE",
"545 1057 CURVE SMOOTH",
"608 1658 LINE",
"211 1658 LINE",
"148 1056 LINE SMOOTH",
"121 796 OFFCURVE",
"337 651 OFFCURVE",
"587 651 CURVE SMOOTH",
"629 651 OFFCURVE",
"695 655 OFFCURVE",
"766 663 CURVE",
"696 0 LINE"
);
}
);
width = 1275;
},
{
layerId = "43161617-4660-4075-B14A-1D8E25AEE542";
paths = (
{
closed = 1;
nodes = (
"918 0 LINE",
"1092 1658 LINE",
"868 1658 LINE",
"789 907 LINE",
"712 890 OFFCURVE",
"644 882 OFFCURVE",
"585 882 CURVE SMOOTH",
"414 882 OFFCURVE",
"355 956 OFFCURVE",
"372 1119 CURVE SMOOTH",
"429 1658 LINE",
"226 1658 LINE",
"170 1118 LINE SMOOTH",
"143 860 OFFCURVE",
"266 735 OFFCURVE",
"526 735 CURVE SMOOTH",
"598 735 OFFCURVE",
"681 745 OFFCURVE",
"774 765 CURVE",
"694 0 LINE"
);
}
);
width = 1097;
}
);
unicode = 0427;
userData = {
com.fontlab.hintData = {
hhints = (
{
position = 734;
width = 54;
}
);
};
};
},
{
glyphname = afii10040;
lastChange = "2016-08-02 09:50:01 +0000";
layers = (
{
layerId = "6D1B020D-7C4E-4885-9208-B35BA480FE8F";
paths = (
{
closed = 1;
nodes = (
"1009 -275 LINE",
"1047 85 LINE",
"932 85 LINE",
"1098 1658 LINE",
"985 1658 LINE",
"820 85 LINE",
"230 85 LINE",
"396 1658 LINE",
"283 1658 LINE",
"109 0 LINE",
"936 0 LINE",
"919 -275 LINE"
);
}
);
width = 1137;
},
{
layerId = "BF03A18F-065F-4249-8E16-486B9CB494A0";
paths = (
{
closed = 1;
nodes = (
"1313 -372 LINE",
"1380 267 LINE",
"1138 267 LINE",
"1284 1658 LINE",
"885 1658 LINE",
"739 267 LINE",
"507 267 LINE",
"653 1658 LINE",
"254 1658 LINE",
"80 0 LINE",
"1008 0 LINE",
"1023 -372 LINE"
);
}
);
width = 1436;
},
{
layerId = "43161617-4660-4075-B14A-1D8E25AEE542";
paths = (
{
closed = 1;
nodes = (
"1132 -300 LINE",
"1181 160 LINE",
"1025 160 LINE",
"1182 1658 LINE",
"958 1658 LINE",
"801 160 LINE",
"323 160 LINE",
"480 1658 LINE",
"256 1658 LINE",
"82 0 LINE",
"972 0 LINE",
"959 -300 LINE"
);
}
);
width = 1264;
}
);
unicode = 0426;
userData = {
com.fontlab.hintData = {
vhints = (
{
position = 1036;
width = 298;
}
);
};
};
},
{
glyphname = afii10042;
lastChange = "2016-08-02 09:50:01 +0000";
layers = (
{
layerId = "6D1B020D-7C4E-4885-9208-B35BA480FE8F";
paths = (
{
closed = 1;
nodes = (
"1241 0 LINE",
"1415 1658 LINE",
"1303 1658 LINE",
"1138 85 LINE",
"748 85 LINE",
"914 1658 LINE",
"801 1658 LINE",
"636 85 LINE",
"231 85 LINE",
"396 1658 LINE",
"284 1658 LINE",
"110 0 LINE"
);
}
);
width = 1437;
},
{
layerId = "BF03A18F-065F-4249-8E16-486B9CB494A0";
paths = (
{
closed = 1;
nodes = (
"1548 0 LINE",
"1722 1658 LINE",
"1350 1658 LINE",
"1206 285 LINE",
"1032 285 LINE",
"1176 1658 LINE",
"804 1658 LINE",
"660 285 LINE",
"483 285 LINE",
"627 1658 LINE",
"254 1658 LINE",
"80 0 LINE"
);
}
);
width = 1728;
},
{
layerId = "43161617-4660-4075-B14A-1D8E25AEE542";
paths = (
{
closed = 1;
nodes = (
"1351 0 LINE",
"1525 1658 LINE",
"1301 1658 LINE",
"1144 162 LINE",
"853 162 LINE",
"1010 1658 LINE",
"786 1658 LINE",
"629 162 LINE",
"323 162 LINE",
"480 1658 LINE",
"256 1658 LINE",
"82 0 LINE"
);
}
);
width = 1530;
}
);
unicode = 0428;
},
{
glyphname = afii10043;
lastChange = "2016-08-02 09:50:01 +0000";
layers = (
{
layerId = "6D1B020D-7C4E-4885-9208-B35BA480FE8F";
paths = (
{
closed = 1;
nodes = (
"1330 -275 LINE",
"1368 85 LINE",
"1251 85 LINE",
"1416 1658 LINE",
"1304 1658 LINE",
"1139 85 LINE",
"748 85 LINE",
"913 1658 LINE",
"801 1658 LINE",
"635 85 LINE",
"230 85 LINE",
"396 1658 LINE",
"283 1658 LINE",
"109 0 LINE",
"1256 0 LINE",
"1240 -275 LINE"
);
}
);
width = 1458;
},
{
layerId = "BF03A18F-065F-4249-8E16-486B9CB494A0";
paths = (
{
closed = 1;
nodes = (
"1752 -372 LINE",
"1820 267 LINE",
"1577 267 LINE",
"1723 1658 LINE",
"1351 1658 LINE",
"1204 267 LINE",
"1032 267 LINE",
"1177 1658 LINE",
"804 1658 LINE",
"658 267 LINE",
"481 267 LINE",
"627 1658 LINE",
"254 1658 LINE",
"80 0 LINE",
"1453 0 LINE",
"1462 -372 LINE"
);
}
);
width = 1939;
},
{
layerId = "43161617-4660-4075-B14A-1D8E25AEE542";
paths = (
{
closed = 1;
nodes = (
"1476 -300 LINE",
"1524 160 LINE",
"1369 160 LINE",
"1526 1658 LINE",
"1302 1658 LINE",
"1145 160 LINE",
"853 160 LINE",
"1009 1658 LINE",
"786 1658 LINE",
"629 160 LINE",
"323 160 LINE",
"480 1658 LINE",
"256 1658 LINE",
"82 0 LINE",
"1315 0 LINE",
"1302 -300 LINE"
);
}
);
width = 1608;
}
);
unicode = 0429;
userData = {
com.fontlab.hintData = {
vhints = (
{
position = 1553;
width = 298;
}
);
};
};
},
{
glyphname = afii10145;
lastChange = "2016-08-02 09:50:01 +0000";
layers = (
{
layerId = "6D1B020D-7C4E-4885-9208-B35BA480FE8F";
paths = (
{
closed = 1;
nodes = (
"512 -275 LINE",
"552 0 LINE",
"851 0 LINE",
"1025 1658 LINE",
"913 1658 LINE",
"748 85 LINE",
"231 85 LINE",
"396 1658 LINE",
"284 1658 LINE",
"110 0 LINE",
"443 0 LINE",
"426 -275 LINE"
);
}
);
width = 1047;
},
{
layerId = "BF03A18F-065F-4249-8E16-486B9CB494A0";
paths = (
{
closed = 1;
nodes = (
"684 -372 LINE",
"737 0 LINE",
"1082 0 LINE",
"1256 1658 LINE",
"857 1658 LINE",
"715 305 LINE",
"501 305 LINE",
"644 1658 LINE",
"244 1658 LINE",
"70 0 LINE",
"424 0 LINE",
"399 -372 LINE"
);
}
);
width = 1252;
},
{
layerId = "43161617-4660-4075-B14A-1D8E25AEE542";
paths = (
{
closed = 1;
nodes = (
"567 -300 LINE",
"613 0 LINE",
"935 0 LINE",
"1109 1658 LINE",
"885 1658 LINE",
"728 160 LINE",
"323 160 LINE",
"480 1658 LINE",
"256 1658 LINE",
"82 0 LINE",
"416 0 LINE",
"399 -300 LINE"
);
}
);
width = 1115;
}
);
unicode = 040F;
},
{
glyphname = afii10046;
lastChange = "2016-08-02 09:50:01 +0000";
layers = (
{
layerId = "6D1B020D-7C4E-4885-9208-B35BA480FE8F";
paths = (
{
closed = 1;
nodes = (
"412 0 LINE SMOOTH",
"734 0 OFFCURVE",
"873 194 OFFCURVE",
"901 470 CURVE SMOOTH",
"936 795 OFFCURVE",
"814 959 OFFCURVE",
"509 959 CURVE SMOOTH",
"323 959 LINE",
"396 1658 LINE",
"284 1658 LINE",
"110 0 LINE"
);
},
{
closed = 1;
nodes = (
"314 868 LINE",
"505 868 LINE SMOOTH",
"749 868 OFFCURVE",
"815 719 OFFCURVE",
"789 472 CURVE SMOOTH",
"763 225 OFFCURVE",
"667 91 OFFCURVE",
"424 91 CURVE SMOOTH",
"232 91 LINE"
);
}
);
width = 945;
},
{
layerId = "BF03A18F-065F-4249-8E16-486B9CB494A0";
paths = (
{
closed = 1;
nodes = (
"517 0 LINE SMOOTH",
"794 0 OFFCURVE",
"1049 61 OFFCURVE",
"1092 479 CURVE SMOOTH",
"1126 799 OFFCURVE",
"965 955 OFFCURVE",
"662 955 CURVE SMOOTH",
"579 955 LINE",
"653 1658 LINE",
"254 1658 LINE",
"80 0 LINE"
);
},
{
closed = 1;
nodes = (
"551 681 LINE",
"588 681 LINE SMOOTH",
"716 681 OFFCURVE",
"731 585 OFFCURVE",
"725 487 CURVE SMOOTH",
"715 343 OFFCURVE",
"669 260 OFFCURVE",
"547 260 CURVE SMOOTH",
"506 260 LINE"
);
}
);
width = 1168;
},
{
layerId = "43161617-4660-4075-B14A-1D8E25AEE542";
paths = (
{
closed = 1;
nodes = (
"389 0 LINE SMOOTH",
"744 0 OFFCURVE",
"920 147 OFFCURVE",
"955 485 CURVE SMOOTH",
"995 861 OFFCURVE",
"835 967 OFFCURVE",
"480 967 CURVE SMOOTH",
"408 967 LINE",
"480 1658 LINE",
"256 1658 LINE",
"82 0 LINE"
);
},
{
closed = 1;
nodes = (
"391 806 LINE",
"470 806 LINE SMOOTH",
"704 806 OFFCURVE",
"768 713 OFFCURVE",
"744 487 CURVE SMOOTH",
"716 217 OFFCURVE",
"615 162 OFFCURVE",
"407 162 CURVE SMOOTH",
"324 162 LINE"
);
}
);
width = 1008;
}
);
unicode = 042C;
userData = {
com.fontlab.hintData = {
hhints = (
{
position = 0;
width = 61;
},
{
position = 895;
width = 61;
}
);
};
};
},
{
glyphname = afii10044;
lastChange = "2016-08-02 09:50:01 +0000";
layers = (
{
layerId = "6D1B020D-7C4E-4885-9208-B35BA480FE8F";
paths = (
{
closed = 1;
nodes = (
"577 0 LINE SMOOTH",
"898 0 OFFCURVE",
"1037 194 OFFCURVE",
"1066 470 CURVE SMOOTH",
"1101 795 OFFCURVE",
"979 959 OFFCURVE",
"673 959 CURVE SMOOTH",
"488 959 LINE",
"561 1658 LINE",
"145 1658 LINE",
"136 1570 LINE",
"440 1570 LINE",
"275 0 LINE"
);
},
{
closed = 1;
nodes = (
"478 868 LINE",
"670 868 LINE SMOOTH",
"913 868 OFFCURVE",
"979 719 OFFCURVE",
"954 472 CURVE SMOOTH",
"927 225 OFFCURVE",
"831 91 OFFCURVE",
"589 91 CURVE SMOOTH",
"397 91 LINE"
);
}
);
width = 1109;
},
{
layerId = "BF03A18F-065F-4249-8E16-486B9CB494A0";
paths = (
{
closed = 1;
nodes = (
"679 0 LINE SMOOTH",
"956 0 OFFCURVE",
"1210 61 OFFCURVE",
"1254 479 CURVE SMOOTH",
"1288 799 OFFCURVE",
"1127 955 OFFCURVE",
"823 955 CURVE SMOOTH",
"722 955 LINE",
"796 1658 LINE",
"92 1658 LINE",
"63 1390 LINE",
"369 1390 LINE",
"223 0 LINE"
);
},
{
closed = 1;
nodes = (
"694 681 LINE",
"750 681 LINE SMOOTH",
"878 681 OFFCURVE",
"893 585 OFFCURVE",
"887 487 CURVE SMOOTH",
"877 343 OFFCURVE",
"831 260 OFFCURVE",
"709 260 CURVE SMOOTH",
"649 260 LINE"
);
}
);
width = 1326;
},
{
layerId = "43161617-4660-4075-B14A-1D8E25AEE542";
paths = (
{
closed = 1;
nodes = (
"540 0 LINE SMOOTH",
"895 0 OFFCURVE",
"1070 147 OFFCURVE",
"1106 485 CURVE SMOOTH",
"1146 861 OFFCURVE",
"985 967 OFFCURVE",
"630 967 CURVE SMOOTH",
"558 967 LINE",
"631 1658 LINE",
"135 1658 LINE",
"117 1488 LINE",
"389 1488 LINE",
"233 0 LINE"
);
},
{
closed = 1;
nodes = (
"541 806 LINE",
"620 806 LINE SMOOTH",
"854 806 OFFCURVE",
"918 713 OFFCURVE",
"895 487 CURVE SMOOTH",
"866 217 OFFCURVE",
"765 162 OFFCURVE",
"557 162 CURVE SMOOTH",
"474 162 LINE"
);
}
);
width = 1159;
}
);
unicode = 042A;
userData = {
com.fontlab.hintData = {
hhints = (
{
position = 0;
width = 61;
},
{
position = 895;
width = 61;
}
);
};
};
},
